<?xml version="1.0" encoding="UTF-8" standalone="no"?>
<svg width="550px" height="353px" viewBox="0 0 550 353" version="1.1" xmlns="http://www.w3.org/2000/svg" xmlns:xlink="http://www.w3.org/1999/xlink" xmlns:sketch="http://www.bohemiancoding.com/sketch/ns">
    <title>Graph</title>
    <description>Created with Sketch (http://www.bohemiancoding.com/sketch)</description>
    <defs></defs>
    <g id="Page 1" stroke="none" stroke-width="1" fill="none" fill-rule="evenodd">
        <g id="Graph 3" transform="translate(1.000000, 6.000000)">
            <path d="M80,251 C124.182782,251 160,215.182782 160,171 C160,126.817218 124.182782,91 80,91 C35.8172178,91 0,126.817218 0,171 C0,215.182782 35.8172178,251 80,251 Z M80,251" id="Oval 1 copy" fill="#2FADD8"></path>
            <path d="M376,342 C470.440697,342 547,265.440697 547,171 C547,76.5593031 470.440697,0 376,0 C281.559303,0 205,76.5593031 205,171 C205,265.440697 281.559303,342 376,342 Z M376,342" id="Oval 1 copy 2" fill-opacity="0.2" fill="#2FADD8"></path>
            <path d="M299.552,222.499968 L299.552,217.619968 C299.552,216.899968 299.232,216.387968 298.4,216.387968 C297.68,216.387968 297.088,216.867968 296.8,217.283968 L296.8,222.499968 L294.752,222.499968 L294.752,217.619968 C294.752,216.899968 294.432,216.387968 293.6,216.387968 C292.896,216.387968 292.304,216.867968 292,217.283968 L292,222.499968 L289.968,222.499968 L289.968,214.771968 L292,214.771968 L292,215.763968 C292.336,215.315968 293.344,214.579968 294.528,214.579968 C295.664,214.579968 296.4,215.107968 296.672,215.971968 C297.12,215.283968 298.144,214.579968 299.328,214.579968 C300.752,214.579968 301.6,215.331968 301.6,216.915968 L301.6,222.499968 Z M288.672,224.691968 L287.408,225.683968 C285.84,223.939968 284.864,221.187968 284.864,218.611968 C284.864,216.035968 285.84,213.283968 287.408,211.539968 L288.672,212.499968 C287.6,214.451968 287.056,216.211968 287.056,218.611968 C287.056,220.995968 287.6,222.771968 288.672,224.691968 Z M308.256,222.499968 L308.256,221.683968 C307.728,222.323968 306.816,222.691968 305.808,222.691968 C304.576,222.691968 303.136,221.859968 303.136,220.131968 C303.136,218.307968 304.576,217.635968 305.808,217.635968 C306.848,217.635968 307.744,217.971968 308.256,218.579968 L308.256,217.603968 C308.256,216.819968 307.584,216.307968 306.56,216.307968 C305.744,216.307968 304.976,216.627968 304.336,217.219968 L303.536,215.795968 C304.48,214.947968 305.696,214.579968 306.912,214.579968 C308.688,214.579968 310.304,215.283968 310.304,217.507968 L310.304,222.499968 Z M306.624,221.315968 C307.28,221.315968 307.92,221.091968 308.256,220.643968 L308.256,219.683968 C307.92,219.235968 307.28,218.995968 306.624,218.995968 C305.824,218.995968 305.168,219.427968 305.168,220.163968 C305.168,220.899968 305.824,221.315968 306.624,221.315968 Z M317.52,222.499968 L317.52,217.827968 C317.52,216.755968 316.96,216.387968 316.096,216.387968 C315.296,216.387968 314.688,216.835968 314.336,217.283968 L314.336,222.499968 L312.304,222.499968 L312.304,214.771968 L314.336,214.771968 L314.336,215.763968 C314.832,215.187968 315.792,214.579968 317.04,214.579968 C318.752,214.579968 319.568,215.539968 319.568,217.043968 L319.568,222.499968 Z M326.784,222.499968 L326.784,221.523968 C326.256,222.099968 325.328,222.691968 324.064,222.691968 C322.368,222.691968 321.568,221.763968 321.568,220.259968 L321.568,214.771968 L323.6,214.771968 L323.6,219.459968 C323.6,220.531968 324.16,220.883968 325.024,220.883968 C325.808,220.883968 326.432,220.451968 326.784,220.003968 L326.784,214.771968 L328.816,214.771968 L328.816,222.499968 Z M331.296,222.499968 L331.296,216.547968 L330.016,216.547968 L330.016,214.771968 L331.296,214.771968 L331.296,214.451968 C331.296,212.707968 332.336,211.667968 333.888,211.667968 C334.64,211.667968 335.44,211.875968 335.904,212.403968 L335.136,213.635968 C334.928,213.443968 334.656,213.331968 334.288,213.331968 C333.712,213.331968 333.328,213.699968 333.328,214.451968 L333.328,214.771968 L334.896,214.771968 L334.896,216.547968 L333.328,216.547968 L333.328,222.499968 Z M340.704,222.499968 L340.704,221.683968 C340.176,222.323968 339.264,222.691968 338.256,222.691968 C337.024,222.691968 335.584,221.859968 335.584,220.131968 C335.584,218.307968 337.024,217.635968 338.256,217.635968 C339.296,217.635968 340.192,217.971968 340.704,218.579968 L340.704,217.603968 C340.704,216.819968 340.032,216.307968 339.008,216.307968 C338.192,216.307968 337.424,216.627968 336.784,217.219968 L335.984,215.795968 C336.928,214.947968 338.144,214.579968 339.36,214.579968 C341.136,214.579968 342.752,215.283968 342.752,217.507968 L342.752,222.499968 Z M339.072,221.315968 C339.728,221.315968 340.368,221.091968 340.704,220.643968 L340.704,219.683968 C340.368,219.235968 339.728,218.995968 339.072,218.995968 C338.272,218.995968 337.616,219.427968 337.616,220.163968 C337.616,220.899968 338.272,221.315968 339.072,221.315968 Z M348.352,222.691968 C345.984,222.691968 344.256,221.011968 344.256,218.627968 C344.256,216.259968 345.984,214.579968 348.352,214.579968 C349.936,214.579968 350.896,215.267968 351.408,215.971968 L350.08,217.219968 C349.712,216.675968 349.152,216.387968 348.448,216.387968 C347.216,216.387968 346.352,217.283968 346.352,218.627968 C346.352,219.971968 347.216,220.883968 348.448,220.883968 C349.152,220.883968 349.712,220.563968 350.08,220.035968 L351.408,221.283968 C350.896,221.987968 349.936,222.691968 348.352,222.691968 Z M355.328,222.691968 C353.904,222.691968 353.152,221.955968 353.152,220.563968 L353.152,216.547968 L351.872,216.547968 L351.872,214.771968 L353.152,214.771968 L353.152,212.659968 L355.184,212.659968 L355.184,214.771968 L356.752,214.771968 L356.752,216.547968 L355.184,216.547968 L355.184,220.019968 C355.184,220.515968 355.44,220.883968 355.888,220.883968 C356.192,220.883968 356.48,220.771968 356.592,220.643968 L357.024,222.195968 C356.72,222.467968 356.176,222.691968 355.328,222.691968 Z M363.36,222.499968 L363.36,221.523968 C362.832,222.099968 361.904,222.691968 360.64,222.691968 C358.944,222.691968 358.144,221.763968 358.144,220.259968 L358.144,214.771968 L360.176,214.771968 L360.176,219.459968 C360.176,220.531968 360.736,220.883968 361.6,220.883968 C362.384,220.883968 363.008,220.451968 363.36,220.003968 L363.36,214.771968 L365.392,214.771968 L365.392,222.499968 Z M367.408,222.499968 L367.408,214.771968 L369.44,214.771968 L369.44,215.811968 C370,215.139968 370.944,214.579968 371.904,214.579968 L371.904,216.563968 C371.76,216.531968 371.584,216.515968 371.344,216.515968 C370.672,216.515968 369.776,216.899968 369.44,217.395968 L369.44,222.499968 Z M374.176,213.939968 C373.52,213.939968 372.976,213.395968 372.976,212.723968 C372.976,212.051968 373.52,211.523968 374.176,211.523968 C374.848,211.523968 375.392,212.051968 375.392,212.723968 C375.392,213.395968 374.848,213.939968 374.176,213.939968 Z M373.168,222.499968 L373.168,214.771968 L375.2,214.771968 L375.2,222.499968 Z M382.432,222.499968 L382.432,217.827968 C382.432,216.755968 381.872,216.387968 381.008,216.387968 C380.208,216.387968 379.6,216.835968 379.248,217.283968 L379.248,222.499968 L377.216,222.499968 L377.216,214.771968 L379.248,214.771968 L379.248,215.763968 C379.744,215.187968 380.704,214.579968 381.952,214.579968 C383.664,214.579968 384.48,215.539968 384.48,217.043968 L384.48,222.499968 Z M389.648,225.635968 C388.336,225.635968 387.296,225.331968 386.32,224.483968 L387.232,223.027968 C387.856,223.699968 388.688,223.971968 389.648,223.971968 C390.624,223.971968 391.792,223.555968 391.792,221.987968 L391.792,221.235968 C391.184,222.003968 390.352,222.435968 389.392,222.435968 C387.472,222.435968 385.984,221.091968 385.984,218.515968 C385.984,215.987968 387.44,214.579968 389.392,214.579968 C390.32,214.579968 391.168,214.963968 391.792,215.763968 L391.792,214.771968 L393.824,214.771968 L393.824,221.987968 C393.824,224.915968 391.552,225.635968 389.648,225.635968 Z M390.048,220.643968 C390.704,220.643968 391.44,220.259968 391.792,219.763968 L391.792,217.251968 C391.44,216.755968 390.704,216.387968 390.048,216.387968 C388.88,216.387968 388.08,217.187968 388.08,218.515968 C388.08,219.843968 388.88,220.643968 390.048,220.643968 Z M405.264,222.499968 L405.264,221.507968 C404.656,222.275968 403.824,222.691968 402.88,222.691968 C400.944,222.691968 399.456,221.219968 399.456,218.627968 C399.456,216.115968 400.912,214.579968 402.88,214.579968 C403.792,214.579968 404.656,214.963968 405.264,215.763968 L405.264,211.827968 L407.312,211.827968 L407.312,222.499968 Z M403.52,220.883968 C404.192,220.883968 404.928,220.515968 405.264,220.003968 L405.264,217.267968 C404.928,216.755968 404.192,216.387968 403.52,216.387968 C402.352,216.387968 401.552,217.299968 401.552,218.627968 C401.552,219.971968 402.352,220.883968 403.52,220.883968 Z M412.96,222.691968 C410.608,222.691968 408.832,221.107968 408.832,218.627968 C408.832,216.387968 410.496,214.579968 412.832,214.579968 C415.152,214.579968 416.704,216.307968 416.704,218.819968 L416.704,219.299968 L410.96,219.299968 C411.104,220.243968 411.872,221.027968 413.184,221.027968 C413.84,221.027968 414.736,220.755968 415.232,220.275968 L416.144,221.619968 C415.376,222.323968 414.16,222.691968 412.96,222.691968 Z M414.752,217.891968 C414.688,217.155968 414.176,216.243968 412.832,216.243968 C411.568,216.243968 411.024,217.123968 410.944,217.891968 Z M420.96,222.691968 C419.616,222.691968 418.32,222.243968 417.504,221.491968 L418.384,220.019968 C418.96,220.563968 420.096,221.091968 421.056,221.091968 C421.936,221.091968 422.352,220.755968 422.352,220.275968 C422.352,219.011968 417.776,220.051968 417.776,217.011968 C417.776,215.715968 418.896,214.579968 420.944,214.579968 C422.24,214.579968 423.28,215.027968 424.048,215.635968 L423.232,217.075968 C422.768,216.595968 421.888,216.179968 420.944,216.179968 C420.208,216.179968 419.728,216.499968 419.728,216.931968 C419.728,218.067968 424.32,217.107968 424.32,220.227968 C424.32,221.651968 423.104,222.691968 420.96,222.691968 Z M426.816,213.939968 C426.16,213.939968 425.616,213.395968 425.616,212.723968 C425.616,212.051968 426.16,211.523968 426.816,211.523968 C427.488,211.523968 428.032,212.051968 428.032,212.723968 C428.032,213.395968 427.488,213.939968 426.816,213.939968 Z M425.808,222.499968 L425.808,214.771968 L427.84,214.771968 L427.84,222.499968 Z M433.024,225.635968 C431.712,225.635968 430.672,225.331968 429.696,224.483968 L430.608,223.027968 C431.232,223.699968 432.064,223.971968 433.024,223.971968 C434,223.971968 435.168,223.555968 435.168,221.987968 L435.168,221.235968 C434.56,222.003968 433.728,222.435968 432.768,222.435968 C430.848,222.435968 429.36,221.091968 429.36,218.515968 C429.36,215.987968 430.816,214.579968 432.768,214.579968 C433.696,214.579968 434.544,214.963968 435.168,215.763968 L435.168,214.771968 L437.2,214.771968 L437.2,221.987968 C437.2,224.915968 434.928,225.635968 433.024,225.635968 Z M433.424,220.643968 C434.08,220.643968 434.816,220.259968 435.168,219.763968 L435.168,217.251968 C434.816,216.755968 434.08,216.387968 433.424,216.387968 C432.256,216.387968 431.456,217.187968 431.456,218.515968 C431.456,219.843968 432.256,220.643968 433.424,220.643968 Z M444.432,222.499968 L444.432,217.827968 C444.432,216.755968 443.872,216.387968 443.008,216.387968 C442.208,216.387968 441.6,216.835968 441.248,217.283968 L441.248,222.499968 L439.216,222.499968 L439.216,214.771968 L441.248,214.771968 L441.248,215.763968 C441.744,215.187968 442.704,214.579968 443.952,214.579968 C445.664,214.579968 446.48,215.539968 446.48,217.043968 L446.48,222.499968 Z M452.112,222.691968 C449.76,222.691968 447.984,221.107968 447.984,218.627968 C447.984,216.387968 449.648,214.579968 451.984,214.579968 C454.304,214.579968 455.856,216.307968 455.856,218.819968 L455.856,219.299968 L450.112,219.299968 C450.256,220.243968 451.024,221.027968 452.336,221.027968 C452.992,221.027968 453.888,220.755968 454.384,220.275968 L455.296,221.619968 C454.528,222.323968 453.312,222.691968 452.112,222.691968 Z M453.904,217.891968 C453.84,217.155968 453.328,216.243968 451.984,216.243968 C450.72,216.243968 450.176,217.123968 450.096,217.891968 Z M457.328,222.499968 L457.328,214.771968 L459.36,214.771968 L459.36,215.811968 C459.92,215.139968 460.864,214.579968 461.824,214.579968 L461.824,216.563968 C461.68,216.531968 461.504,216.515968 461.264,216.515968 C460.592,216.515968 459.696,216.899968 459.36,217.395968 L459.36,222.499968 Z M465.872,222.691968 C464.528,222.691968 463.232,222.243968 462.416,221.491968 L463.296,220.019968 C463.872,220.563968 465.008,221.091968 465.968,221.091968 C466.848,221.091968 467.264,220.755968 467.264,220.275968 C467.264,219.011968 462.688,220.051968 462.688,217.011968 C462.688,215.715968 463.808,214.579968 465.856,214.579968 C467.152,214.579968 468.192,215.027968 468.96,215.635968 L468.144,217.075968 C467.68,216.595968 466.8,216.179968 465.856,216.179968 C465.12,216.179968 464.64,216.499968 464.64,216.931968 C464.64,218.067968 469.232,217.107968 469.232,220.227968 C469.232,221.651968 468.016,222.691968 465.872,222.691968 Z M473.152,221.715968 C473.152,222.915968 472.496,223.987968 471.504,224.691968 L470.624,223.971968 C471.136,223.699968 471.728,223.027968 471.856,222.467968 C471.808,222.483968 471.68,222.515968 471.552,222.515968 C470.944,222.515968 470.464,222.035968 470.464,221.363968 C470.464,220.659968 471.04,220.083968 471.728,220.083968 C472.48,220.083968 473.152,220.675968 473.152,221.715968 Z M308.44,241.499968 L308.44,240.683968 C307.912,241.323968 307,241.691968 305.992,241.691968 C304.76,241.691968 303.32,240.859968 303.32,239.131968 C303.32,237.307968 304.76,236.635968 305.992,236.635968 C307.032,236.635968 307.928,236.971968 308.44,237.579968 L308.44,236.603968 C308.44,235.819968 307.768,235.307968 306.744,235.307968 C305.928,235.307968 305.16,235.627968 304.52,236.219968 L303.72,234.795968 C304.664,233.947968 305.88,233.579968 307.096,233.579968 C308.872,233.579968 310.488,234.283968 310.488,236.507968 L310.488,241.499968 Z M306.808,240.315968 C307.464,240.315968 308.104,240.091968 308.44,239.643968 L308.44,238.683968 C308.104,238.235968 307.464,237.995968 306.808,237.995968 C306.008,237.995968 305.352,238.427968 305.352,239.163968 C305.352,239.899968 306.008,240.315968 306.808,240.315968 Z M312.488,241.499968 L312.488,233.771968 L314.52,233.771968 L314.52,234.811968 C315.08,234.139968 316.024,233.579968 316.984,233.579968 L316.984,235.563968 C316.84,235.531968 316.664,235.515968 316.424,235.515968 C315.752,235.515968 314.856,235.899968 314.52,236.395968 L314.52,241.499968 Z M321.848,241.691968 C319.48,241.691968 317.752,240.011968 317.752,237.627968 C317.752,235.259968 319.48,233.579968 321.848,233.579968 C323.432,233.579968 324.392,234.267968 324.904,234.971968 L323.576,236.219968 C323.208,235.675968 322.648,235.387968 321.944,235.387968 C320.712,235.387968 319.848,236.283968 319.848,237.627968 C319.848,238.971968 320.712,239.883968 321.944,239.883968 C322.648,239.883968 323.208,239.563968 323.576,239.035968 L324.904,240.283968 C324.392,240.987968 323.432,241.691968 321.848,241.691968 Z M331.464,241.499968 L331.464,236.795968 C331.464,235.723968 330.904,235.387968 330.04,235.387968 C329.24,235.387968 328.616,235.835968 328.28,236.283968 L328.28,241.499968 L326.232,241.499968 L326.232,230.827968 L328.28,230.827968 L328.28,234.763968 C328.776,234.187968 329.72,233.579968 330.984,233.579968 C332.68,233.579968 333.496,234.507968 333.496,236.011968 L333.496,241.499968 Z M336.52,232.939968 C335.864,232.939968 335.32,232.395968 335.32,231.723968 C335.32,231.051968 335.864,230.523968 336.52,230.523968 C337.192,230.523968 337.736,231.051968 337.736,231.723968 C337.736,232.395968 337.192,232.939968 336.52,232.939968 Z M335.512,241.499968 L335.512,233.771968 L337.544,233.771968 L337.544,241.499968 Z M342.152,241.691968 C340.728,241.691968 339.976,240.955968 339.976,239.563968 L339.976,235.547968 L338.696,235.547968 L338.696,233.771968 L339.976,233.771968 L339.976,231.659968 L342.008,231.659968 L342.008,233.771968 L343.576,233.771968 L343.576,235.547968 L342.008,235.547968 L342.008,239.019968 C342.008,239.515968 342.264,239.883968 342.712,239.883968 C343.016,239.883968 343.304,239.771968 343.416,239.643968 L343.848,241.195968 C343.544,241.467968 343,241.691968 342.152,241.691968 Z M348.6,241.691968 C346.248,241.691968 344.472,240.107968 344.472,237.627968 C344.472,235.387968 346.136,233.579968 348.472,233.579968 C350.792,233.579968 352.344,235.307968 352.344,237.819968 L352.344,238.299968 L346.6,238.299968 C346.744,239.243968 347.512,240.027968 348.824,240.027968 C349.48,240.027968 350.376,239.755968 350.872,239.275968 L351.784,240.619968 C351.016,241.323968 349.8,241.691968 348.6,241.691968 Z M350.392,236.891968 C350.328,236.155968 349.816,235.243968 348.472,235.243968 C347.208,235.243968 346.664,236.123968 346.584,236.891968 Z M357.416,241.691968 C355.048,241.691968 353.32,240.011968 353.32,237.627968 C353.32,235.259968 355.048,233.579968 357.416,233.579968 C359,233.579968 359.96,234.267968 360.472,234.971968 L359.144,236.219968 C358.776,235.675968 358.216,235.387968 357.512,235.387968 C356.28,235.387968 355.416,236.283968 355.416,237.627968 C355.416,238.971968 356.28,239.883968 357.512,239.883968 C358.216,239.883968 358.776,239.563968 359.144,239.035968 L360.472,240.283968 C359.96,240.987968 359,241.691968 357.416,241.691968 Z M364.392,241.691968 C362.968,241.691968 362.216,240.955968 362.216,239.563968 L362.216,235.547968 L360.936,235.547968 L360.936,233.771968 L362.216,233.771968 L362.216,231.659968 L364.248,231.659968 L364.248,233.771968 L365.816,233.771968 L365.816,235.547968 L364.248,235.547968 L364.248,239.019968 C364.248,239.515968 364.504,239.883968 364.952,239.883968 C365.256,239.883968 365.544,239.771968 365.656,239.643968 L366.088,241.195968 C365.784,241.467968 365.24,241.691968 364.392,241.691968 Z M369.992,241.691968 C368.648,241.691968 367.352,241.243968 366.536,240.491968 L367.416,239.019968 C367.992,239.563968 369.128,240.091968 370.088,240.091968 C370.968,240.091968 371.384,239.755968 371.384,239.275968 C371.384,238.011968 366.808,239.051968 366.808,236.011968 C366.808,234.715968 367.928,233.579968 369.976,233.579968 C371.272,233.579968 372.312,234.027968 373.08,234.635968 L372.264,236.075968 C371.8,235.595968 370.92,235.179968 369.976,235.179968 C369.24,235.179968 368.76,235.499968 368.76,235.931968 C368.76,237.067968 373.352,236.107968 373.352,239.227968 C373.352,240.651968 372.136,241.691968 369.992,241.691968 Z M377.272,240.715968 C377.272,241.915968 376.616,242.987968 375.624,243.691968 L374.744,242.971968 C375.256,242.699968 375.848,242.027968 375.976,241.467968 C375.928,241.483968 375.8,241.515968 375.672,241.515968 C375.064,241.515968 374.584,241.035968 374.584,240.363968 C374.584,239.659968 375.16,239.083968 375.848,239.083968 C376.6,239.083968 377.272,239.675968 377.272,240.715968 Z M387.672,241.499968 L387.672,240.683968 C387.144,241.323968 386.232,241.691968 385.224,241.691968 C383.992,241.691968 382.552,240.859968 382.552,239.131968 C382.552,237.307968 383.992,236.635968 385.224,236.635968 C386.264,236.635968 387.16,236.971968 387.672,237.579968 L387.672,236.603968 C387.672,235.819968 387,235.307968 385.976,235.307968 C385.16,235.307968 384.392,235.627968 383.752,236.219968 L382.952,234.795968 C383.896,233.947968 385.112,233.579968 386.328,233.579968 C388.104,233.579968 389.72,234.283968 389.72,236.507968 L389.72,241.499968 Z M386.04,240.315968 C386.696,240.315968 387.336,240.091968 387.672,239.643968 L387.672,238.683968 C387.336,238.235968 386.696,237.995968 386.04,237.995968 C385.24,237.995968 384.584,238.427968 384.584,239.163968 C384.584,239.899968 385.24,240.315968 386.04,240.315968 Z M394.312,241.691968 C392.888,241.691968 392.136,240.955968 392.136,239.563968 L392.136,235.547968 L390.856,235.547968 L390.856,233.771968 L392.136,233.771968 L392.136,231.659968 L394.168,231.659968 L394.168,233.771968 L395.736,233.771968 L395.736,235.547968 L394.168,235.547968 L394.168,239.019968 C394.168,239.515968 394.424,239.883968 394.872,239.883968 C395.176,239.883968 395.464,239.771968 395.576,239.643968 L396.008,241.195968 C395.704,241.467968 395.16,241.691968 394.312,241.691968 Z M399.72,241.691968 C398.296,241.691968 397.544,240.955968 397.544,239.563968 L397.544,235.547968 L396.264,235.547968 L396.264,233.771968 L397.544,233.771968 L397.544,231.659968 L399.576,231.659968 L399.576,233.771968 L401.144,233.771968 L401.144,235.547968 L399.576,235.547968 L399.576,239.019968 C399.576,239.515968 399.832,239.883968 400.28,239.883968 C400.584,239.883968 400.872,239.771968 400.984,239.643968 L401.416,241.195968 C401.112,241.467968 400.568,241.691968 399.72,241.691968 Z M406.12,241.691968 C403.576,241.691968 402.04,239.819968 402.04,237.627968 C402.04,235.435968 403.576,233.579968 406.12,233.579968 C408.68,233.579968 410.216,235.435968 410.216,237.627968 C410.216,239.819968 408.68,241.691968 406.12,241.691968 Z M406.12,239.883968 C407.4,239.883968 408.104,238.843968 408.104,237.627968 C408.104,236.427968 407.4,235.387968 406.12,235.387968 C404.856,235.387968 404.152,236.427968 404.152,237.627968 C404.152,238.843968 404.856,239.883968 406.12,239.883968 Z M411.736,241.499968 L411.736,233.771968 L413.768,233.771968 L413.768,234.811968 C414.328,234.139968 415.272,233.579968 416.232,233.579968 L416.232,235.563968 C416.088,235.531968 415.912,235.515968 415.672,235.515968 C415,235.515968 414.104,235.899968 413.768,236.395968 L413.768,241.499968 Z M422.712,241.499968 L422.712,236.827968 C422.712,235.755968 422.152,235.387968 421.288,235.387968 C420.488,235.387968 419.88,235.835968 419.528,236.283968 L419.528,241.499968 L417.496,241.499968 L417.496,233.771968 L419.528,233.771968 L419.528,234.763968 C420.024,234.187968 420.984,233.579968 422.232,233.579968 C423.944,233.579968 424.76,234.539968 424.76,236.043968 L424.76,241.499968 Z M430.392,241.691968 C428.04,241.691968 426.264,240.107968 426.264,237.627968 C426.264,235.387968 427.928,233.579968 430.264,233.579968 C432.584,233.579968 434.136,235.307968 434.136,237.819968 L434.136,238.299968 L428.392,238.299968 C428.536,239.243968 429.304,240.027968 430.616,240.027968 C431.272,240.027968 432.168,239.755968 432.664,239.275968 L433.576,240.619968 C432.808,241.323968 431.592,241.691968 430.392,241.691968 Z M432.184,236.891968 C432.12,236.155968 431.608,235.243968 430.264,235.243968 C429,235.243968 428.456,236.123968 428.376,236.891968 Z M435.352,244.507968 L435.64,242.699968 C435.816,242.779968 436.088,242.827968 436.28,242.827968 C436.808,242.827968 437.16,242.683968 437.352,242.267968 L437.64,241.595968 L434.504,233.771968 L436.68,233.771968 L438.696,239.147968 L440.728,233.771968 L442.904,233.771968 L439.272,242.763968 C438.696,244.219968 437.672,244.603968 436.344,244.635968 C436.12,244.635968 435.592,244.587968 435.352,244.507968 Z M446.6,241.691968 C445.256,241.691968 443.96,241.243968 443.144,240.491968 L444.024,239.019968 C444.6,239.563968 445.736,240.091968 446.696,240.091968 C447.576,240.091968 447.992,239.755968 447.992,239.275968 C447.992,238.011968 443.416,239.051968 443.416,236.011968 C443.416,234.715968 444.536,233.579968 446.584,233.579968 C447.88,233.579968 448.92,234.027968 449.688,234.635968 L448.872,236.075968 C448.408,235.595968 447.528,235.179968 446.584,235.179968 C445.848,235.179968 445.368,235.499968 445.368,235.931968 C445.368,237.067968 449.96,236.107968 449.96,239.227968 C449.96,240.651968 448.744,241.691968 446.6,241.691968 Z M451.992,244.683968 L450.728,243.691968 C451.816,241.771968 452.344,239.995968 452.344,237.611968 C452.344,235.211968 451.816,233.451968 450.728,231.499968 L451.992,230.539968 C453.56,232.283968 454.552,235.035968 454.552,237.611968 C454.552,240.187968 453.56,242.939968 451.992,244.683968 Z M451.992,244.683968" id="All independent work" fill="#FFFFFF"></path>
            <path d="M315.088,168.4 L315.088,162.64 C308.368,162.064 303.44,159.504 299.92,155.984 L304.912,148.88 C307.28,151.376 310.8,153.616 315.088,154.384 L315.088,144.464 C308.496,142.864 301.328,140.368 301.328,131.664 C301.328,125.2 306.448,119.696 315.088,118.8 L315.088,112.848 L321.104,112.848 L321.104,118.928 C326.288,119.504 330.704,121.424 334.16,124.624 L329.104,131.408 C326.8,129.296 323.984,127.952 321.104,127.248 L321.104,136.08 C327.76,137.744 335.184,140.304 335.184,149.072 C335.184,156.176 330.512,161.68 321.104,162.64 L321.104,168.4 Z M325.904,149.968 C325.904,147.856 323.92,146.832 321.104,145.936 L321.104,154.512 C324.368,153.872 325.904,152.016 325.904,149.968 Z M310.672,130.96 C310.672,132.816 312.464,133.776 315.088,134.608 L315.088,126.864 C312.272,127.248 310.672,128.784 310.672,130.96 Z M340.304,162 L340.304,154.832 C357.776,141.904 362.896,137.552 362.896,132.304 C362.896,128.528 359.504,126.736 355.984,126.736 C351.12,126.736 347.408,128.656 344.528,131.664 L339.344,125.648 C343.504,120.848 349.84,118.672 355.792,118.672 C364.944,118.672 372.112,123.792 372.112,132.304 C372.112,139.6 366.096,145.936 355.024,154 L372.432,154 L372.432,162 Z M395.536,162.768 C383.312,162.768 377.872,151.696 377.872,140.688 C377.872,129.68 383.312,118.672 395.536,118.672 C407.76,118.672 413.2,129.68 413.2,140.688 C413.2,151.696 407.76,162.768 395.536,162.768 Z M395.536,154.704 C401.616,154.704 403.92,148.56 403.92,140.688 C403.92,132.816 401.68,126.736 395.536,126.736 C389.456,126.736 387.152,132.816 387.152,140.688 C387.152,148.56 389.456,154.704 395.536,154.704 Z M419.6,162 L419.6,119.312 L442.064,119.312 C450.192,119.312 454.352,124.496 454.352,130.192 C454.352,135.504 451.024,139.152 446.992,139.984 C451.6,140.688 455.184,145.104 455.184,150.416 C455.184,156.88 450.96,162 442.768,162 Z M440.08,136.272 C443.152,136.272 445.072,134.544 445.072,131.792 C445.072,129.168 443.152,127.312 440.08,127.312 L428.688,127.312 L428.688,136.272 Z M440.464,154 C443.856,154 445.904,152.208 445.904,149.136 C445.904,146.448 443.984,144.272 440.464,144.272 L428.688,144.272 L428.688,154 Z M440.464,154" id="$20B" fill="#FFFFFF"></path>
            <path d="M40.824,195.999996 L40.824,187.759996 L37.56,195.999996 L36.76,195.999996 L33.48,187.759996 L33.48,195.999996 L31.608,195.999996 L31.608,185.327996 L34.248,185.327996 L37.16,192.655996 L40.056,185.327996 L42.696,185.327996 L42.696,195.999996 Z M48.424,196.191996 C45.96,196.191996 44.456,194.335996 44.456,192.127996 C44.456,189.903996 45.96,188.079996 48.424,188.079996 C50.888,188.079996 52.392,189.903996 52.392,192.127996 C52.392,194.335996 50.888,196.191996 48.424,196.191996 Z M48.424,194.703996 C49.864,194.703996 50.648,193.503996 50.648,192.127996 C50.648,190.767996 49.864,189.567996 48.424,189.567996 C47,189.567996 46.2,190.767996 46.2,192.127996 C46.2,193.503996 47,194.703996 48.424,194.703996 Z M55.784,193.679996 C56.168,194.255996 56.984,194.703996 57.784,194.703996 C59.112,194.703996 59.96,193.631996 59.96,192.127996 C59.96,190.639996 59.112,189.567996 57.784,189.567996 C56.984,189.567996 56.168,190.031996 55.784,190.607996 Z M54.104,195.999996 L54.104,185.327996 L55.784,185.327996 L55.784,189.343996 C56.408,188.511996 57.304,188.079996 58.264,188.079996 C60.264,188.079996 61.704,189.631996 61.704,192.127996 C61.704,194.687996 60.248,196.191996 58.264,196.191996 C57.272,196.191996 56.376,195.711996 55.784,194.943996 L55.784,195.999996 Z M64.248,187.327996 C63.672,187.327996 63.208,186.863996 63.208,186.287996 C63.208,185.711996 63.672,185.247996 64.248,185.247996 C64.824,185.247996 65.288,185.711996 65.288,186.287996 C65.288,186.863996 64.824,187.327996 64.248,187.327996 Z M63.4,195.999996 L63.4,188.271996 L65.08,188.271996 L65.08,195.999996 Z M67.256,195.999996 L67.256,185.327996 L68.936,185.327996 L68.936,195.999996 Z M74.696,196.191996 C72.36,196.191996 70.648,194.575996 70.648,192.127996 C70.648,189.887996 72.28,188.079996 74.568,188.079996 C76.888,188.079996 78.36,189.839996 78.36,192.271996 L78.36,192.687996 L72.408,192.687996 C72.536,193.839996 73.4,194.815996 74.856,194.815996 C75.624,194.815996 76.504,194.511996 77.064,193.951996 L77.832,195.055996 C77.048,195.791996 75.912,196.191996 74.696,196.191996 Z M76.744,191.487996 C76.696,190.575996 76.072,189.455996 74.552,189.455996 C73.128,189.455996 72.456,190.559996 72.392,191.487996 Z M90.904,195.999996 C90.648,195.759996 90.312,195.439996 89.96,195.071996 C89.16,195.743996 88.184,196.191996 86.968,196.191996 C85.08,196.191996 83.544,195.167996 83.544,193.151996 C83.544,191.503996 84.632,190.655996 85.864,190.031996 C85.416,189.231996 85.112,188.415996 85.112,187.679996 C85.112,186.255996 86.344,185.167996 88.008,185.167996 C89.448,185.167996 90.632,185.951996 90.632,187.343996 C90.632,188.959996 89.304,189.663996 87.976,190.303996 C88.344,190.815996 88.728,191.279996 89.032,191.631996 C89.384,192.063996 89.736,192.479996 90.088,192.863996 C90.6,192.095996 90.952,191.247996 91.144,190.623996 L92.504,191.247996 C92.136,192.111996 91.656,193.055996 91.032,193.903996 C91.672,194.575996 92.344,195.263996 93.112,195.999996 Z M87.192,194.847996 C87.88,194.847996 88.488,194.543996 89.032,194.095996 C88.488,193.519996 87.992,192.959996 87.72,192.607996 C87.32,192.143996 86.904,191.615996 86.536,191.087996 C85.832,191.551996 85.32,192.111996 85.32,193.007996 C85.32,194.175996 86.2,194.847996 87.192,194.847996 Z M86.792,187.727996 C86.792,188.207996 87,188.767996 87.32,189.327996 C88.328,188.847996 89.144,188.335996 89.144,187.439996 C89.144,186.783996 88.68,186.399996 88.072,186.399996 C87.368,186.399996 86.792,186.943996 86.792,187.727996 Z M106.808,195.999996 L104.744,188.111996 L102.664,195.999996 L100.664,195.999996 L97.624,185.327996 L99.704,185.327996 L101.784,193.535996 L103.992,185.327996 L105.48,185.327996 L107.688,193.535996 L109.768,185.327996 L111.864,185.327996 L108.808,195.999996 Z M115.992,196.191996 C113.656,196.191996 111.944,194.575996 111.944,192.127996 C111.944,189.887996 113.576,188.079996 115.864,188.079996 C118.184,188.079996 119.656,189.839996 119.656,192.271996 L119.656,192.687996 L113.704,192.687996 C113.832,193.839996 114.696,194.815996 116.152,194.815996 C116.92,194.815996 117.8,194.511996 118.36,193.951996 L119.128,195.055996 C118.344,195.791996 117.208,196.191996 115.992,196.191996 Z M118.04,191.487996 C117.992,190.575996 117.368,189.455996 115.848,189.455996 C114.424,189.455996 113.752,190.559996 113.688,191.487996 Z M123,193.679996 C123.384,194.255996 124.2,194.703996 125,194.703996 C126.328,194.703996 127.176,193.631996 127.176,192.127996 C127.176,190.639996 126.328,189.567996 125,189.567996 C124.2,189.567996 123.384,190.031996 123,190.607996 Z M121.32,195.999996 L121.32,185.327996 L123,185.327996 L123,189.343996 C123.624,188.511996 124.52,188.079996 125.48,188.079996 C127.48,188.079996 128.92,189.631996 128.92,192.127996 C128.92,194.687996 127.464,196.191996 125.48,196.191996 C124.488,196.191996 123.592,195.711996 123,194.943996 L123,195.999996 Z M121.32,195.999996" id="Mobile &amp; Web" fill="#FFFFFF"></path>
            <path d="M62.209,173.7 L62.209,171.27 C59.374,171.027 57.295,169.947 55.81,168.462 L57.916,165.465 C58.915,166.518 60.4,167.463 62.209,167.787 L62.209,163.602 C59.428,162.927 56.404,161.874 56.404,158.202 C56.404,155.475 58.564,153.153 62.209,152.775 L62.209,150.264 L64.747,150.264 L64.747,152.829 C66.934,153.072 68.797,153.882 70.255,155.232 L68.122,158.094 C67.15,157.203 65.962,156.636 64.747,156.339 L64.747,160.065 C67.555,160.767 70.687,161.847 70.687,165.546 C70.687,168.543 68.716,170.865 64.747,171.27 L64.747,173.7 Z M66.772,165.924 C66.772,165.033 65.935,164.601 64.747,164.223 L64.747,167.841 C66.124,167.571 66.772,166.788 66.772,165.924 Z M60.346,157.905 C60.346,158.688 61.102,159.093 62.209,159.444 L62.209,156.177 C61.021,156.339 60.346,156.987 60.346,157.905 Z M80.866,171 L80.866,167.274 L72.253,167.274 L72.253,164.25 L79.408,152.991 L84.7,152.991 L84.7,163.899 L87.022,163.899 L87.022,167.274 L84.7,167.274 L84.7,171 Z M80.866,163.899 L80.866,156.393 L76.006,163.899 Z M89.479,171 L89.479,152.991 L98.956,152.991 C102.385,152.991 104.14,155.178 104.14,157.581 C104.14,159.822 102.736,161.361 101.035,161.712 C102.979,162.009 104.491,163.872 104.491,166.113 C104.491,168.84 102.709,171 99.253,171 Z M98.119,160.146 C99.415,160.146 100.225,159.417 100.225,158.256 C100.225,157.149 99.415,156.366 98.119,156.366 L93.313,156.366 L93.313,160.146 Z M98.281,167.625 C99.712,167.625 100.576,166.869 100.576,165.573 C100.576,164.439 99.766,163.521 98.281,163.521 L93.313,163.521 L93.313,167.625 Z M98.281,167.625" id="$4B" fill="#FFFFFF"></path>
        </g>
        <path d="M335.008,203 L332.432,203 L331.76,201.192 L327.184,201.192 L326.512,203 L323.936,203 L328.048,192.328 L330.896,192.328 Z M329.472,194.6 L327.808,199.192 L331.136,199.192 Z M335.952,203 L335.952,192.328 L337.984,192.328 L337.984,203 Z M340,203 L340,192.328 L342.032,192.328 L342.032,203 Z M351.744,203.192 C349.2,203.192 347.664,201.32 347.664,199.128 C347.664,196.936 349.2,195.08 351.744,195.08 C354.304,195.08 355.84,196.936 355.84,199.128 C355.84,201.32 354.304,203.192 351.744,203.192 Z M351.744,201.384 C353.024,201.384 353.728,200.344 353.728,199.128 C353.728,197.928 353.024,196.888 351.744,196.888 C350.48,196.888 349.776,197.928 349.776,199.128 C349.776,200.344 350.48,201.384 351.744,201.384 Z M362.576,203 L362.576,198.328 C362.576,197.256 362.016,196.888 361.152,196.888 C360.352,196.888 359.744,197.336 359.392,197.784 L359.392,203 L357.36,203 L357.36,195.272 L359.392,195.272 L359.392,196.264 C359.888,195.688 360.848,195.08 362.096,195.08 C363.808,195.08 364.624,196.04 364.624,197.544 L364.624,203 Z M366.624,203 L366.624,192.328 L368.656,192.328 L368.656,203 Z M371.68,194.44 C371.024,194.44 370.48,193.896 370.48,193.224 C370.48,192.552 371.024,192.024 371.68,192.024 C372.352,192.024 372.896,192.552 372.896,193.224 C372.896,193.896 372.352,194.44 371.68,194.44 Z M370.672,203 L370.672,195.272 L372.704,195.272 L372.704,203 Z M379.936,203 L379.936,198.328 C379.936,197.256 379.376,196.888 378.512,196.888 C377.712,196.888 377.104,197.336 376.752,197.784 L376.752,203 L374.72,203 L374.72,195.272 L376.752,195.272 L376.752,196.264 C377.248,195.688 378.208,195.08 379.456,195.08 C381.168,195.08 381.984,196.04 381.984,197.544 L381.984,203 Z M387.616,203.192 C385.264,203.192 383.488,201.608 383.488,199.128 C383.488,196.888 385.152,195.08 387.488,195.08 C389.808,195.08 391.36,196.808 391.36,199.32 L391.36,199.8 L385.616,199.8 C385.76,200.744 386.528,201.528 387.84,201.528 C388.496,201.528 389.392,201.256 389.888,200.776 L390.8,202.12 C390.032,202.824 388.816,203.192 387.616,203.192 Z M389.408,198.392 C389.344,197.656 388.832,196.744 387.488,196.744 C386.224,196.744 385.68,197.624 385.6,198.392 Z M403.728,203 L402.096,197.736 L400.464,203 L398.288,203 L395.936,195.272 L398.048,195.272 L399.488,200.472 L401.184,195.272 L402.992,195.272 L404.688,200.472 L406.128,195.272 L408.256,195.272 L405.904,203 Z M412.848,203.192 C410.304,203.192 408.768,201.32 408.768,199.128 C408.768,196.936 410.304,195.08 412.848,195.08 C415.408,195.08 416.944,196.936 416.944,199.128 C416.944,201.32 415.408,203.192 412.848,203.192 Z M412.848,201.384 C414.128,201.384 414.832,200.344 414.832,199.128 C414.832,197.928 414.128,196.888 412.848,196.888 C411.584,196.888 410.88,197.928 410.88,199.128 C410.88,200.344 411.584,201.384 412.848,201.384 Z M418.464,203 L418.464,195.272 L420.496,195.272 L420.496,196.312 C421.056,195.64 422,195.08 422.96,195.08 L422.96,197.064 C422.816,197.032 422.64,197.016 422.4,197.016 C421.728,197.016 420.832,197.4 420.496,197.896 L420.496,203 Z M431.776,203 L429.232,203 L427.184,200.024 L426.256,201.016 L426.256,203 L424.224,203 L424.224,192.328 L426.256,192.328 L426.256,198.712 L429.184,195.272 L431.68,195.272 L428.624,198.776 Z M431.776,203" id="All online work" fill="#FFFFFF"></path>
    </g>
</svg>