<?xml version="1.0" encoding="UTF-8" standalone="no"?>
<svg width="660px" height="353px" viewBox="0 0 660 353" version="1.1" xmlns="http://www.w3.org/2000/svg" xmlns:xlink="http://www.w3.org/1999/xlink" xmlns:sketch="http://www.bohemiancoding.com/sketch/ns">
    <title>Graph</title>
    <description>Created with Sketch (http://www.bohemiancoding.com/sketch)</description>
    <defs></defs>
    <g id="Page 1" stroke="none" stroke-width="1" fill="none" fill-rule="evenodd">
        <g id="Graph 3" transform="translate(2.000000, 6.000000)">
            <path d="M38,197 C52.3594042,197 64,185.359404 64,171 C64,156.640596 52.3594042,145 38,145 C23.6405958,145 12,156.640596 12,171 C12,185.359404 23.6405958,197 38,197 Z M38,197" id="Oval 1" fill="#2FADD8"></path>
            <path d="M189,238 C226.00308,238 256,208.00308 256,171 C256,133.99692 226.00308,104 189,104 C151.99692,104 122,133.99692 122,171 C122,208.00308 151.99692,238 189,238 Z M189,238" id="Oval 1 copy" fill-opacity="0.5" fill="#2FADD8"></path>
            <path d="M485,342 C579.440697,342 656,265.440697 656,171 C656,76.5593031 579.440697,0 485,0 C390.559303,0 314,76.5593031 314,171 C314,265.440697 390.559303,342 485,342 Z M485,342" id="Oval 1 copy 2" fill-opacity="0.2" fill="#2FADD8"></path>
            <path d="M414.224,196.719854 C406.664,196.071854 401.12,193.191854 397.16,189.231854 L402.776,181.239854 C405.44,184.047854 409.4,186.567854 414.224,187.431854 L414.224,176.271854 C406.808,174.471854 398.744,171.663854 398.744,161.871854 C398.744,154.599854 404.504,148.407854 414.224,147.399854 L414.224,140.703854 L420.992,140.703854 L420.992,147.543854 C426.824,148.191854 431.792,150.351854 435.68,153.951854 L429.992,161.583854 C427.4,159.207854 424.232,157.695854 420.992,156.903854 L420.992,166.839854 C428.48,168.711854 436.832,171.591854 436.832,181.455854 C436.832,189.447854 431.576,195.639854 420.992,196.719854 L420.992,203.199854 L414.224,203.199854 Z M426.392,182.463854 C426.392,180.087854 424.16,178.935854 420.992,177.927854 L420.992,187.575854 C424.664,186.855854 426.392,184.767854 426.392,182.463854 Z M409.256,161.079854 C409.256,163.167854 411.272,164.247854 414.224,165.183854 L414.224,156.471854 C411.056,156.903854 409.256,158.631854 409.256,161.079854 Z M442.592,195.999854 L442.592,187.935854 C462.248,173.391854 468.008,168.495854 468.008,162.591854 C468.008,158.343854 464.192,156.327854 460.232,156.327854 C454.76,156.327854 450.584,158.487854 447.344,161.871854 L441.512,155.103854 C446.192,149.703854 453.32,147.255854 460.016,147.255854 C470.312,147.255854 478.376,153.015854 478.376,162.591854 C478.376,170.799854 471.608,177.927854 459.152,186.999854 L478.736,186.999854 L478.736,195.999854 Z M504.728,196.863854 C490.976,196.863854 484.856,184.407854 484.856,172.023854 C484.856,159.639854 490.976,147.255854 504.728,147.255854 C518.48,147.255854 524.6,159.639854 524.6,172.023854 C524.6,184.407854 518.48,196.863854 504.728,196.863854 Z M504.728,187.791854 C511.568,187.791854 514.16,180.879854 514.16,172.023854 C514.16,163.167854 511.64,156.327854 504.728,156.327854 C497.888,156.327854 495.296,163.167854 495.296,172.023854 C495.296,180.879854 497.888,187.791854 504.728,187.791854 Z M531.8,195.999854 L531.8,147.975854 L557.072,147.975854 C566.216,147.975854 570.896,153.807854 570.896,160.215854 C570.896,166.191854 567.152,170.295854 562.616,171.231854 C567.8,172.023854 571.832,176.991854 571.832,182.967854 C571.832,190.239854 567.08,195.999854 557.864,195.999854 Z M554.84,167.055854 C558.296,167.055854 560.456,165.111854 560.456,162.015854 C560.456,159.063854 558.296,156.975854 554.84,156.975854 L542.024,156.975854 L542.024,167.055854 Z M555.272,186.999854 C559.088,186.999854 561.392,184.983854 561.392,181.527854 C561.392,178.503854 559.232,176.055854 555.272,176.055854 L542.024,176.055854 L542.024,186.999854 Z M555.272,186.999854" id="$20B" fill="#FFFFFF"></path>
            <path d="M162.18,191 L162.18,187.4 C157.98,187.04 154.9,185.44 152.7,183.24 L155.82,178.8 C157.3,180.36 159.5,181.76 162.18,182.24 L162.18,176.04 C158.06,175.04 153.58,173.48 153.58,168.04 C153.58,164 156.78,160.56 162.18,160 L162.18,156.28 L165.94,156.28 L165.94,160.08 C169.18,160.44 171.94,161.64 174.1,163.64 L170.94,167.88 C169.5,166.56 167.74,165.72 165.94,165.28 L165.94,170.8 C170.1,171.84 174.74,173.44 174.74,178.92 C174.74,183.36 171.82,186.8 165.94,187.4 L165.94,191 Z M168.94,179.48 C168.94,178.16 167.7,177.52 165.94,176.96 L165.94,182.32 C167.98,181.92 168.94,180.76 168.94,179.48 Z M159.42,167.6 C159.42,168.76 160.54,169.36 162.18,169.88 L162.18,165.04 C160.42,165.28 159.42,166.24 159.42,167.6 Z M189.82,187 L189.82,181.48 L177.06,181.48 L177.06,177 L187.66,160.32 L195.5,160.32 L195.5,176.48 L198.94,176.48 L198.94,181.48 L195.5,181.48 L195.5,187 Z M189.82,176.48 L189.82,165.36 L182.62,176.48 Z M202.58,187 L202.58,160.32 L216.62,160.32 C221.7,160.32 224.3,163.56 224.3,167.12 C224.3,170.44 222.22,172.72 219.7,173.24 C222.58,173.68 224.82,176.44 224.82,179.76 C224.82,183.8 222.18,187 217.06,187 Z M215.38,170.92 C217.3,170.92 218.5,169.84 218.5,168.12 C218.5,166.48 217.3,165.32 215.38,165.32 L208.26,165.32 L208.26,170.92 Z M215.62,182 C217.74,182 219.02,180.88 219.02,178.96 C219.02,177.28 217.82,175.92 215.62,175.92 L208.26,175.92 L208.26,182 Z M215.62,182" id="$4B" fill="#FFFFFF"></path>
            <path d="M27.806,180.8 L27.806,179.18 C25.916,179.018 24.53,178.298 23.54,177.308 L24.944,175.31 C25.61,176.012 26.6,176.642 27.806,176.858 L27.806,174.068 C25.952,173.618 23.936,172.916 23.936,170.468 C23.936,168.65 25.376,167.102 27.806,166.85 L27.806,165.176 L29.498,165.176 L29.498,166.886 C30.956,167.048 32.198,167.588 33.17,168.488 L31.748,170.396 C31.1,169.802 30.308,169.424 29.498,169.226 L29.498,171.71 C31.37,172.178 33.458,172.898 33.458,175.364 C33.458,177.362 32.144,178.91 29.498,179.18 L29.498,180.8 Z M30.848,175.616 C30.848,175.022 30.29,174.734 29.498,174.482 L29.498,176.894 C30.416,176.714 30.848,176.192 30.848,175.616 Z M26.564,170.27 C26.564,170.792 27.068,171.062 27.806,171.296 L27.806,169.118 C27.014,169.226 26.564,169.658 26.564,170.27 Z M37.706,179 L37.706,170.288 L35.708,172.322 L34.25,170.792 L38.03,166.994 L40.262,166.994 L40.262,179 Z M42.638,179 L42.638,166.994 L48.956,166.994 C51.242,166.994 52.412,168.452 52.412,170.054 C52.412,171.548 51.476,172.574 50.342,172.808 C51.638,173.006 52.646,174.248 52.646,175.742 C52.646,177.56 51.458,179 49.154,179 Z M48.398,171.764 C49.262,171.764 49.802,171.278 49.802,170.504 C49.802,169.766 49.262,169.244 48.398,169.244 L45.194,169.244 L45.194,171.764 Z M48.506,176.75 C49.46,176.75 50.036,176.246 50.036,175.382 C50.036,174.626 49.496,174.014 48.506,174.014 L45.194,174.014 L45.194,176.75 Z M48.506,176.75" id="$1B" fill="#FFFFFF"></path>
            <path d="M25.54,278 L25.54,276.98 C24.88,277.78 23.74,278.24 22.48,278.24 C20.94,278.24 19.14,277.2 19.14,275.04 C19.14,272.76 20.94,271.92 22.48,271.92 C23.78,271.92 24.9,272.34 25.54,273.1 L25.54,271.88 C25.54,270.9 24.7,270.26 23.42,270.26 C22.4,270.26 21.44,270.66 20.64,271.4 L19.64,269.62 C20.82,268.56 22.34,268.1 23.86,268.1 C26.08,268.1 28.1,268.98 28.1,271.76 L28.1,278 Z M16.22,278.24 C14.44,278.24 13.5,277.32 13.5,275.58 L13.5,270.56 L11.9,270.56 L11.9,268.34 L13.5,268.34 L13.5,265.7 L16.04,265.7 L16.04,268.34 L18,268.34 L18,270.56 L16.04,270.56 L16.04,274.9 C16.04,275.52 16.36,275.98 16.92,275.98 C17.3,275.98 17.66,275.84 17.8,275.68 L18.34,277.62 C17.96,277.96 17.28,278.24 16.22,278.24 Z M23.5,276.52 C24.32,276.52 25.12,276.24 25.54,275.68 L25.54,274.48 C25.12,273.92 24.32,273.62 23.5,273.62 C22.5,273.62 21.68,274.16 21.68,275.08 C21.68,276 22.5,276.52 23.5,276.52 Z M6.08,278.24 C3.5,278.24 1.66,277.38 0.4,276.12 L1.96,273.9 C2.9,274.88 4.36,275.72 6.2,275.72 C7.78,275.72 8.52,275.02 8.52,274.24 C8.52,271.92 0.84,273.54 0.84,268.52 C0.84,266.3 2.76,264.46 5.9,264.46 C8.02,264.46 9.78,265.1 11.1,266.32 L9.52,268.44 C8.44,267.44 7,266.98 5.64,266.98 C4.44,266.98 3.76,267.5 3.76,268.3 C3.76,270.4 11.42,268.98 11.42,273.96 C11.42,276.4 9.66,278.24 6.08,278.24 Z M30.6,278 L30.6,268.34 L33.14,268.34 L33.14,269.64 C33.84,268.8 35.02,268.1 36.22,268.1 L36.22,270.58 C36.04,270.54 35.82,270.52 35.52,270.52 C34.68,270.52 33.56,271 33.14,271.62 L33.14,278 Z M41.04,278.24 C39.26,278.24 38.32,277.32 38.32,275.58 L38.32,270.56 L36.72,270.56 L36.72,268.34 L38.32,268.34 L38.32,265.7 L40.86,265.7 L40.86,268.34 L42.82,268.34 L42.82,270.56 L40.86,270.56 L40.86,274.9 C40.86,275.52 41.18,275.98 41.74,275.98 C42.12,275.98 42.48,275.84 42.62,275.68 L43.16,277.62 C42.78,277.96 42.1,278.24 41.04,278.24 Z M51.08,278 L51.08,276.78 C50.42,277.5 49.26,278.24 47.68,278.24 C45.56,278.24 44.56,277.08 44.56,275.2 L44.56,268.34 L47.1,268.34 L47.1,274.2 C47.1,275.54 47.8,275.98 48.88,275.98 C49.86,275.98 50.64,275.44 51.08,274.88 L51.08,268.34 L53.62,268.34 L53.62,278 Z M61.66,278.24 C60.52,278.24 59.48,277.76 58.68,276.76 L58.68,281.68 L56.14,281.68 L56.14,268.34 L58.68,268.34 L58.68,269.56 C59.42,268.62 60.48,268.1 61.66,268.1 C64.14,268.1 65.94,269.94 65.94,273.16 C65.94,276.38 64.14,278.24 61.66,278.24 Z M60.86,275.98 C62.32,275.98 63.32,274.84 63.32,273.16 C63.32,271.5 62.32,270.36 60.86,270.36 C60.04,270.36 59.12,270.82 58.68,271.46 L58.68,274.86 C59.1,275.48 60.04,275.98 60.86,275.98 Z M71.28,278.24 C69.6,278.24 67.98,277.68 66.96,276.74 L68.06,274.9 C68.78,275.58 70.2,276.24 71.4,276.24 C72.5,276.24 73.02,275.82 73.02,275.22 C73.02,273.64 67.3,274.94 67.3,271.14 C67.3,269.52 68.7,268.1 71.26,268.1 C72.88,268.1 74.18,268.66 75.14,269.42 L74.12,271.22 C73.54,270.62 72.44,270.1 71.26,270.1 C70.34,270.1 69.74,270.5 69.74,271.04 C69.74,272.46 75.48,271.26 75.48,275.16 C75.48,276.94 73.96,278.24 71.28,278.24 Z M71.28,278.24" id="Startups" fill="#FFFFFF"></path>
            <path d="M142.92,278 L142.92,268.38 L139.16,278 L137.92,278 L134.16,268.38 L134.16,278 L131.32,278 L131.32,264.66 L135.3,264.66 L138.54,273 L141.78,264.66 L145.78,264.66 L145.78,278 Z M152.84,278.24 C149.66,278.24 147.74,275.9 147.74,273.16 C147.74,270.42 149.66,268.1 152.84,268.1 C156.04,268.1 157.96,270.42 157.96,273.16 C157.96,275.9 156.04,278.24 152.84,278.24 Z M152.84,275.98 C154.44,275.98 155.32,274.68 155.32,273.16 C155.32,271.66 154.44,270.36 152.84,270.36 C151.26,270.36 150.38,271.66 150.38,273.16 C150.38,274.68 151.26,275.98 152.84,275.98 Z M162.4,274.9 C162.84,275.52 163.76,275.98 164.6,275.98 C166.06,275.98 167.04,274.84 167.04,273.16 C167.04,271.5 166.06,270.36 164.6,270.36 C163.76,270.36 162.84,270.84 162.4,271.48 Z M159.86,278 L159.86,264.66 L162.4,264.66 L162.4,269.58 C163.16,268.58 164.24,268.1 165.38,268.1 C167.84,268.1 169.66,270.02 169.66,273.16 C169.66,276.4 167.82,278.24 165.38,278.24 C164.22,278.24 163.16,277.72 162.4,276.76 L162.4,278 Z M172.84,267.3 C172.02,267.3 171.34,266.62 171.34,265.78 C171.34,264.94 172.02,264.28 172.84,264.28 C173.68,264.28 174.36,264.94 174.36,265.78 C174.36,266.62 173.68,267.3 172.84,267.3 Z M171.58,278 L171.58,268.34 L174.12,268.34 L174.12,278 Z M176.64,278 L176.64,264.66 L179.18,264.66 L179.18,278 Z M186.24,278.24 C183.3,278.24 181.08,276.26 181.08,273.16 C181.08,270.36 183.16,268.1 186.08,268.1 C188.98,268.1 190.92,270.26 190.92,273.4 L190.92,274 L183.74,274 C183.92,275.18 184.88,276.16 186.52,276.16 C187.34,276.16 188.46,275.82 189.08,275.22 L190.22,276.9 C189.26,277.78 187.74,278.24 186.24,278.24 Z M188.48,272.24 C188.4,271.32 187.76,270.18 186.08,270.18 C184.5,270.18 183.82,271.28 183.72,272.24 Z M204.49,272.618333 C204.806667,273.012778 205.123333,273.393333 205.44,273.76 C206,272.88 206.42,271.94 206.66,271.16 L208.68,272.1 C208.2,273.16 207.6,274.3 206.82,275.3 C207.62,276.18 208.48,277.06 209.4,278 L206.16,278 C205.88,277.74 205.54,277.4 205.16,277 C204.16,277.76 202.94,278.24 201.52,278.24 C199.08,278.24 197.12,276.96 197.12,274.38 C197.12,272.36 198.46,271.3 200,270.52 C199.46,269.54 199.12,268.56 199.12,267.66 C199.12,265.86 200.7,264.46 202.92,264.46 C204.8,264.46 206.42,265.48 206.42,267.28 C206.42,269.32 204.8,270.18 203.16,270.94 C203.56,271.48 203.96,271.98 204.49,272.618333 Z M201.88,276.24 C202.56,276.24 203.22,275.98 203.8,275.56 C203.2,274.9 202.64,274.26 202.32,273.86 C201.88,273.32 201.4,272.72 200.98,272.1 C200.28,272.6 199.82,273.22 199.82,274.14 C199.82,275.44 200.78,276.24 201.88,276.24 Z M201.64,267.72 C201.64,268.26 201.86,268.88 202.22,269.52 C203.34,268.98 204.22,268.4 204.22,267.42 C204.22,266.72 203.7,266.3 203.04,266.3 C202.26,266.3 201.64,266.88 201.64,267.72 Z M226.24,278 L223.9,268.84 L221.58,278 L218.56,278 L214.74,264.66 L217.92,264.66 L220.26,274.3 L222.8,264.66 L225.02,264.66 L227.54,274.3 L229.88,264.66 L233.06,264.66 L229.26,278 Z M238.08,278.24 C235.14,278.24 232.92,276.26 232.92,273.16 C232.92,270.36 235,268.1 237.92,268.1 C240.82,268.1 242.76,270.26 242.76,273.4 L242.76,274 L235.58,274 C235.76,275.18 236.72,276.16 238.36,276.16 C239.18,276.16 240.3,275.82 240.92,275.22 L242.06,276.9 C241.1,277.78 239.58,278.24 238.08,278.24 Z M240.32,272.24 C240.24,271.32 239.6,270.18 237.92,270.18 C236.34,270.18 235.66,271.28 235.56,272.24 Z M247.14,274.9 C247.58,275.52 248.5,275.98 249.34,275.98 C250.8,275.98 251.78,274.84 251.78,273.16 C251.78,271.5 250.8,270.36 249.34,270.36 C248.5,270.36 247.58,270.84 247.14,271.48 Z M244.6,278 L244.6,264.66 L247.14,264.66 L247.14,269.58 C247.9,268.58 248.98,268.1 250.12,268.1 C252.58,268.1 254.4,270.02 254.4,273.16 C254.4,276.4 252.56,278.24 250.12,278.24 C248.96,278.24 247.9,277.72 247.14,276.76 L247.14,278 Z M244.6,278" id="Mobile &amp; Web" fill="#FFFFFF"></path>
            <path d="M439.76,278 L436.54,278 L435.7,275.74 L429.98,275.74 L429.14,278 L425.92,278 L431.06,264.66 L434.62,264.66 Z M434.92,273.24 L432.84,267.5 L430.76,273.24 Z M440.94,278 L440.94,264.66 L443.48,264.66 L443.48,278 Z M446,278 L446,264.66 L448.54,264.66 L448.54,278 Z M456.26,278 L456.26,264.66 L465.7,264.66 L465.7,267.16 L459.1,267.16 L459.1,269.96 L465.56,269.96 L465.56,272.46 L459.1,272.46 L459.1,278 Z M467.62,278 L467.62,268.34 L470.16,268.34 L470.16,269.64 C470.86,268.8 472.04,268.1 473.24,268.1 L473.24,270.58 C473.06,270.54 472.84,270.52 472.54,270.52 C471.7,270.52 470.58,271 470.16,271.62 L470.16,278 Z M479.36,278.24 C476.42,278.24 474.2,276.26 474.2,273.16 C474.2,270.36 476.28,268.1 479.2,268.1 C482.1,268.1 484.04,270.26 484.04,273.4 L484.04,274 L476.86,274 C477.04,275.18 478,276.16 479.64,276.16 C480.46,276.16 481.58,275.82 482.2,275.22 L483.34,276.9 C482.38,277.78 480.86,278.24 479.36,278.24 Z M481.6,272.24 C481.52,271.32 480.88,270.18 479.2,270.18 C477.62,270.18 476.94,271.28 476.84,272.24 Z M490.42,278.24 C487.48,278.24 485.26,276.26 485.26,273.16 C485.26,270.36 487.34,268.1 490.26,268.1 C493.16,268.1 495.1,270.26 495.1,273.4 L495.1,274 L487.92,274 C488.1,275.18 489.06,276.16 490.7,276.16 C491.52,276.16 492.64,275.82 493.26,275.22 L494.4,276.9 C493.44,277.78 491.92,278.24 490.42,278.24 Z M492.66,272.24 C492.58,271.32 491.94,270.18 490.26,270.18 C488.68,270.18 488,271.28 487.9,272.24 Z M496.94,278 L496.94,264.66 L499.48,264.66 L499.48,278 Z M507.8,278 L507.8,276.98 C507.14,277.78 506,278.24 504.74,278.24 C503.2,278.24 501.4,277.2 501.4,275.04 C501.4,272.76 503.2,271.92 504.74,271.92 C506.04,271.92 507.16,272.34 507.8,273.1 L507.8,271.88 C507.8,270.9 506.96,270.26 505.68,270.26 C504.66,270.26 503.7,270.66 502.9,271.4 L501.9,269.62 C503.08,268.56 504.6,268.1 506.12,268.1 C508.34,268.1 510.36,268.98 510.36,271.76 L510.36,278 Z M505.76,276.52 C506.58,276.52 507.38,276.24 507.8,275.68 L507.8,274.48 C507.38,273.92 506.58,273.62 505.76,273.62 C504.76,273.62 503.94,274.16 503.94,275.08 C503.94,276 504.76,276.52 505.76,276.52 Z M519.38,278 L519.38,272.16 C519.38,270.82 518.68,270.36 517.6,270.36 C516.6,270.36 515.84,270.92 515.4,271.48 L515.4,278 L512.86,278 L512.86,268.34 L515.4,268.34 L515.4,269.58 C516.02,268.86 517.22,268.1 518.78,268.1 C520.92,268.1 521.94,269.3 521.94,271.18 L521.94,278 Z M528.94,278.24 C525.98,278.24 523.82,276.14 523.82,273.16 C523.82,270.2 525.98,268.1 528.94,268.1 C530.92,268.1 532.12,268.96 532.76,269.84 L531.1,271.4 C530.64,270.72 529.94,270.36 529.06,270.36 C527.52,270.36 526.44,271.48 526.44,273.16 C526.44,274.84 527.52,275.98 529.06,275.98 C529.94,275.98 530.64,275.58 531.1,274.92 L532.76,276.48 C532.12,277.36 530.92,278.24 528.94,278.24 Z M538.96,278.24 C536.02,278.24 533.8,276.26 533.8,273.16 C533.8,270.36 535.88,268.1 538.8,268.1 C541.7,268.1 543.64,270.26 543.64,273.4 L543.64,274 L536.46,274 C536.64,275.18 537.6,276.16 539.24,276.16 C540.06,276.16 541.18,275.82 541.8,275.22 L542.94,276.9 C541.98,277.78 540.46,278.24 538.96,278.24 Z M541.2,272.24 C541.12,271.32 540.48,270.18 538.8,270.18 C537.22,270.18 536.54,271.28 536.44,272.24 Z M541.2,272.24" id="All Freelance" fill="#FFFFFF"></path>
        </g>
    </g>
</svg>