<?xml version="1.0" encoding="UTF-8" standalone="no"?>
<svg width="788px" height="505px" viewBox="0 0 788 505" version="1.1" xmlns="http://www.w3.org/2000/svg" xmlns:xlink="http://www.w3.org/1999/xlink" xmlns:sketch="http://www.bohemiancoding.com/sketch/ns">
    <title>Graph</title>
    <description>Created with Sketch (http://www.bohemiancoding.com/sketch)</description>
    <defs></defs>
    <g id="Page 1" stroke="none" stroke-width="1" fill="none" fill-rule="evenodd">
        <g id="Graph 3" transform="translate(3.000000, 7.000000)">
            <path d="M114,358 C176.960465,358 228,306.960465 228,244 C228,181.039535 176.960465,130 114,130 C51.0395354,130 0,181.039535 0,244 C0,306.960465 51.0395354,358 114,358 Z M114,358" id="Oval 1 copy" fill="#2FADD8"></path>
            <path d="M536,488 C670.757486,488 780,378.757486 780,244 C780,109.242514 670.757486,0 536,0 C401.242514,0 292,109.242514 292,244 C292,378.757486 401.242514,488 536,488 Z M536,488" id="Oval 1 copy 2" fill-opacity="0.2" fill="#2FADD8"></path>
            <path d="M446.506352,265 L446.506352,256.808756 C436.978221,255.989631 429.990926,252.349078 425,247.343318 L432.07804,237.240783 C435.435572,240.790323 440.426497,243.975806 446.506352,245.067972 L446.506352,230.960829 C437.15971,228.685484 426.99637,225.135945 426.99637,212.758065 C426.99637,203.565668 434.255898,195.738479 446.506352,194.464286 L446.506352,186 L455.036298,186 L455.036298,194.646313 C462.38657,195.465438 468.647913,198.195853 473.548094,202.746544 L466.37931,212.394009 C463.112523,209.390553 459.119782,207.479263 455.036298,206.478111 L455.036298,219.038018 C464.473684,221.404378 475,225.044931 475,237.513825 C475,247.616359 468.375681,255.443548 455.036298,256.808756 L455.036298,265 Z M462,238.641791 C462,235.686567 459.106667,234.253731 455,233 L455,245 C459.76,244.104478 462,241.507463 462,238.641791 Z M440,211.818182 C440,214.454545 442.434783,215.818182 446,217 L446,206 C442.173913,206.545455 440,208.727273 440,211.818182 Z M482.363636,256 L482.363636,245.742984 C507.181818,227.243722 514.454545,221.016248 514.454545,213.506647 C514.454545,208.103397 509.636364,205.539143 504.636364,205.539143 C497.727273,205.539143 492.454545,208.286558 488.363636,212.590842 L481,203.982275 C486.909091,197.113737 495.909091,194 504.363636,194 C517.363636,194 527.545455,201.32644 527.545455,213.506647 C527.545455,223.946824 519,233.013294 503.272727,244.552437 L528,244.552437 L528,256 Z M561,257 C543.699275,257 536,241.181422 536,225.454282 C536,209.727141 543.699275,194 561,194 C578.300725,194 586,209.727141 586,225.454282 C586,241.181422 578.300725,257 561,257 Z M561,246 C569.70229,246 573,237.212815 573,225.954233 C573,214.695652 569.793893,206 561,206 C552.29771,206 549,214.695652 549,225.954233 C549,237.212815 552.29771,246 561,246 Z M596,256 L596,195 L628.196043,195 C639.845324,195 645.807554,202.407796 645.807554,210.547226 C645.807554,218.137931 641.03777,223.350825 635.258993,224.53973 C641.863309,225.545727 647,231.856072 647,239.446777 C647,248.683658 640.946043,256 629.205036,256 Z M624.992188,220 C629.304688,220 632,217.492857 632,213.5 C632,209.692857 629.304688,207 624.992188,207 L609,207 L609,220 Z M626.100372,245 C631.026022,245 634,242.421053 634,238 C634,234.131579 631.211896,231 626.100372,231 L609,231 L609,245 Z M626.100372,245" id="$20B" fill="#FFFFFF"></path>
            <path d="M470.126684,300.430091 L469.027194,297.471942 L461.540197,297.471942 L460.440708,300.430091 L456.226,300.430091 L462.953826,282.969157 L467.613566,282.969157 L474.341392,300.430091 Z M468.00624,294.199653 L465.283696,286.686477 L462.561151,294.199653 Z M475.885912,300.430091 L475.885912,282.969157 L479.210558,282.969157 L479.210558,300.430091 Z M482.509025,300.430091 L482.509025,282.969157 L485.833671,282.969157 L485.833671,300.430091 Z M501.723906,300.744231 C497.561554,300.744231 495.048436,297.681368 495.048436,294.09494 C495.048436,290.508511 497.561554,287.471827 501.723906,287.471827 C505.912436,287.471827 508.425554,290.508511 508.425554,294.09494 C508.425554,297.681368 505.912436,300.744231 501.723906,300.744231 Z M501.723906,297.786082 C503.818171,297.786082 504.970017,296.084491 504.970017,294.09494 C504.970017,292.131566 503.818171,290.429976 501.723906,290.429976 C499.655819,290.429976 498.503974,292.131566 498.503974,294.09494 C498.503974,296.084491 499.655819,297.786082 501.723906,297.786082 Z M519.446623,300.430091 L519.446623,292.786024 C519.446623,291.032077 518.530382,290.429976 517.116753,290.429976 C515.807838,290.429976 514.813062,291.162969 514.237139,291.895961 L514.237139,300.430091 L510.912493,300.430091 L510.912493,287.785966 L514.237139,287.785966 L514.237139,289.409022 C515.048667,288.466603 516.619365,287.471827 518.661274,287.471827 C521.462353,287.471827 522.797447,289.042525 522.797447,291.503287 L522.797447,300.430091 Z M526.069736,300.430091 L526.069736,282.969157 L529.394382,282.969157 L529.394382,300.430091 Z M534.342082,286.424694 C533.268772,286.424694 532.378709,285.534632 532.378709,284.435143 C532.378709,283.335653 533.268772,282.471769 534.342082,282.471769 C535.441572,282.471769 536.331634,283.335653 536.331634,284.435143 C536.331634,285.534632 535.441572,286.424694 534.342082,286.424694 Z M532.692849,300.430091 L532.692849,287.785966 L536.017494,287.785966 L536.017494,300.430091 Z M547.850091,300.430091 L547.850091,292.786024 C547.850091,291.032077 546.93385,290.429976 545.520222,290.429976 C544.211306,290.429976 543.21653,291.162969 542.640607,291.895961 L542.640607,300.430091 L539.315962,300.430091 L539.315962,287.785966 L542.640607,287.785966 L542.640607,289.409022 C543.452135,288.466603 545.022834,287.471827 547.064742,287.471827 C549.865821,287.471827 551.200915,289.042525 551.200915,291.503287 L551.200915,300.430091 Z M560.415681,300.744231 C556.567469,300.744231 553.661677,298.152578 553.661677,294.09494 C553.661677,290.429976 556.384221,287.471827 560.206255,287.471827 C564.00211,287.471827 566.541406,290.299084 566.541406,294.409079 L566.541406,295.194429 L557.143392,295.194429 C557.378997,296.738949 558.635556,298.021686 560.782177,298.021686 C561.855488,298.021686 563.321474,297.576655 564.133001,296.791306 L565.625165,298.990284 C564.368606,300.14213 562.379054,300.744231 560.415681,300.744231 Z M563.347652,292.890737 C563.242939,291.686535 562.405233,290.194371 560.206255,290.194371 C558.138168,290.194371 557.248105,291.634178 557.117214,292.890737 Z M586.777241,300.430091 L584.107053,291.817426 L581.436865,300.430091 L577.876615,300.430091 L574.028403,287.785966 L577.48394,287.785966 L579.839988,296.293918 L582.614889,287.785966 L585.573039,287.785966 L588.34794,296.293918 L590.703988,287.785966 L594.185703,287.785966 L590.337491,300.430091 Z M601.698879,300.744231 C597.536527,300.744231 595.023409,297.681368 595.023409,294.09494 C595.023409,290.508511 597.536527,287.471827 601.698879,287.471827 C605.887409,287.471827 608.400527,290.508511 608.400527,294.09494 C608.400527,297.681368 605.887409,300.744231 601.698879,300.744231 Z M601.698879,297.786082 C603.793144,297.786082 604.944989,296.084491 604.944989,294.09494 C604.944989,292.131566 603.793144,290.429976 601.698879,290.429976 C599.630792,290.429976 598.478946,292.131566 598.478946,294.09494 C598.478946,296.084491 599.630792,297.786082 601.698879,297.786082 Z M610.887466,300.430091 L610.887466,287.785966 L614.212112,287.785966 L614.212112,289.487557 C615.128353,288.388068 616.672873,287.471827 618.243572,287.471827 L618.243572,290.717937 C618.007967,290.665581 617.720006,290.639402 617.327331,290.639402 C616.227842,290.639402 614.761856,291.267682 614.212112,292.07921 L614.212112,300.430091 Z M632.667822,300.430091 L628.50547,300.430091 L625.154646,295.560925 L623.636304,297.18398 L623.636304,300.430091 L620.311659,300.430091 L620.311659,282.969157 L623.636304,282.969157 L623.636304,293.414304 L628.426935,287.785966 L632.510752,287.785966 L627.510694,293.519017 Z M632.667822,300.430091" id="All online work" fill="#FFFFFF"></path>
            <path d="M89.0326679,243.578341 C85.030853,243.236175 82.0961887,241.715438 80,239.624424 L82.9727768,235.404378 C84.3829401,236.887097 86.4791289,238.217742 89.0326679,238.673963 L89.0326679,232.781106 C85.107078,231.830645 80.8384755,230.347926 80.8384755,225.177419 C80.8384755,221.337558 83.8874773,218.067972 89.0326679,217.535714 L89.0326679,214 L92.615245,214 L92.615245,217.611751 C95.7023593,217.953917 98.3321234,219.09447 100.3902,220.995392 L97.3793103,225.025346 C96.0072595,223.770737 94.3303085,222.97235 92.615245,222.554147 L92.615245,227.800691 C96.5789474,228.789171 101,230.309908 101,235.518433 C101,239.738479 98.2177858,243.008065 92.615245,243.578341 L92.615245,247 L89.0326679,247 Z M96,236.350746 C96,235.119403 94.76,234.522388 93,234 L93,239 C95.04,238.626866 96,237.544776 96,236.350746 Z M86,224.644628 C86,225.842975 87.2173913,226.46281 89,227 L89,222 C87.0869565,222.247934 86,223.239669 86,224.644628 Z M115.246801,243 L115.246801,237.827586 L103,237.827586 L103,233.629685 L113.173675,218 L120.698355,218 L120.698355,233.142429 L124,233.142429 L124,237.827586 L120.698355,237.827586 L120.698355,243 Z M116,223 L109,234 L116,234 Z M128,243 L128,218 L141.257194,218 C146.053957,218 148.508993,221.035982 148.508993,224.371814 C148.508993,227.482759 146.544964,229.61919 144.165468,230.106447 C146.884892,230.518741 149,233.104948 149,236.215892 C149,240.001499 146.507194,243 141.672662,243 Z M139.953125,228 C141.828125,228 143,227.035714 143,225.5 C143,224.035714 141.828125,223 139.953125,223 L133,223 L133,228 Z M139.840149,239 C141.810409,239 143,237.894737 143,236 C143,234.342105 141.884758,233 139.840149,233 L133,233 L133,239 Z M139.840149,239" id="$4B" fill="#FFFFFF"></path>
        </g>
        <path d="M67.234,282 L67.234,270.67 L62.746,282 L61.646,282 L57.136,270.67 L57.136,282 L54.562,282 L54.562,267.326 L58.192,267.326 L62.196,277.402 L66.178,267.326 L69.808,267.326 L69.808,282 Z M77.684,282.264 C74.296,282.264 72.228,279.712 72.228,276.676 C72.228,273.618 74.296,271.11 77.684,271.11 C81.072,271.11 83.14,273.618 83.14,276.676 C83.14,279.712 81.072,282.264 77.684,282.264 Z M77.684,280.218 C79.664,280.218 80.742,278.568 80.742,276.676 C80.742,274.806 79.664,273.156 77.684,273.156 C75.726,273.156 74.626,274.806 74.626,276.676 C74.626,278.568 75.726,280.218 77.684,280.218 Z M87.804,278.81 C88.332,279.602 89.454,280.218 90.554,280.218 C92.38,280.218 93.546,278.744 93.546,276.676 C93.546,274.63 92.38,273.156 90.554,273.156 C89.454,273.156 88.332,273.794 87.804,274.586 Z M85.494,282 L85.494,267.326 L87.804,267.326 L87.804,272.848 C88.662,271.704 89.894,271.11 91.214,271.11 C93.964,271.11 95.944,273.244 95.944,276.676 C95.944,280.196 93.942,282.264 91.214,282.264 C89.85,282.264 88.618,281.604 87.804,280.548 L87.804,282 Z M99.442,270.076 C98.65,270.076 98.012,269.438 98.012,268.646 C98.012,267.854 98.65,267.216 99.442,267.216 C100.234,267.216 100.872,267.854 100.872,268.646 C100.872,269.438 100.234,270.076 99.442,270.076 Z M98.276,282 L98.276,271.374 L100.586,271.374 L100.586,282 Z M103.578,282 L103.578,267.326 L105.888,267.326 L105.888,282 Z M113.808,282.264 C110.596,282.264 108.242,280.042 108.242,276.676 C108.242,273.596 110.486,271.11 113.632,271.11 C116.822,271.11 118.846,273.53 118.846,276.874 L118.846,277.446 L110.662,277.446 C110.838,279.03 112.026,280.372 114.028,280.372 C115.084,280.372 116.294,279.954 117.064,279.184 L118.12,280.702 C117.042,281.714 115.48,282.264 113.808,282.264 Z M116.624,275.796 C116.558,274.542 115.7,273.002 113.61,273.002 C111.652,273.002 110.728,274.52 110.64,275.796 Z M136.094,282 C135.742,281.67 135.28,281.23 134.796,280.724 C133.696,281.648 132.354,282.264 130.682,282.264 C128.086,282.264 125.974,280.856 125.974,278.084 C125.974,275.818 127.47,274.652 129.164,273.794 C128.548,272.694 128.13,271.572 128.13,270.56 C128.13,268.602 129.824,267.106 132.112,267.106 C134.092,267.106 135.72,268.184 135.72,270.098 C135.72,272.32 133.894,273.288 132.068,274.168 C132.574,274.872 133.102,275.51 133.52,275.994 C134.004,276.588 134.488,277.16 134.972,277.688 C135.676,276.632 136.16,275.466 136.424,274.608 L138.294,275.466 C137.788,276.654 137.128,277.952 136.27,279.118 C137.15,280.042 138.074,280.988 139.13,282 Z M130.99,280.416 C131.936,280.416 132.772,279.998 133.52,279.382 C132.772,278.59 132.09,277.82 131.716,277.336 C131.166,276.698 130.594,275.972 130.088,275.246 C129.12,275.884 128.416,276.654 128.416,277.886 C128.416,279.492 129.626,280.416 130.99,280.416 Z M130.44,270.626 C130.44,271.286 130.726,272.056 131.166,272.826 C132.552,272.166 133.674,271.462 133.674,270.23 C133.674,269.328 133.036,268.8 132.2,268.8 C131.232,268.8 130.44,269.548 130.44,270.626 Z M157.962,282 L155.124,271.154 L152.264,282 L149.514,282 L145.334,267.326 L148.194,267.326 L151.054,278.612 L154.09,267.326 L156.136,267.326 L159.172,278.612 L162.032,267.326 L164.914,267.326 L160.712,282 Z M170.59,282.264 C167.378,282.264 165.024,280.042 165.024,276.676 C165.024,273.596 167.268,271.11 170.414,271.11 C173.604,271.11 175.628,273.53 175.628,276.874 L175.628,277.446 L167.444,277.446 C167.62,279.03 168.808,280.372 170.81,280.372 C171.866,280.372 173.076,279.954 173.846,279.184 L174.902,280.702 C173.824,281.714 172.262,282.264 170.59,282.264 Z M173.406,275.796 C173.34,274.542 172.482,273.002 170.392,273.002 C168.434,273.002 167.51,274.52 167.422,275.796 Z M180.226,278.81 C180.754,279.602 181.876,280.218 182.976,280.218 C184.802,280.218 185.968,278.744 185.968,276.676 C185.968,274.63 184.802,273.156 182.976,273.156 C181.876,273.156 180.754,273.794 180.226,274.586 Z M177.916,282 L177.916,267.326 L180.226,267.326 L180.226,272.848 C181.084,271.704 182.316,271.11 183.636,271.11 C186.386,271.11 188.366,273.244 188.366,276.676 C188.366,280.196 186.364,282.264 183.636,282.264 C182.272,282.264 181.04,281.604 180.226,280.548 L180.226,282 Z M177.916,282" id="Mobile &amp; Web" fill="#FFFFFF"></path>
        <path d="M454.714,339 L454.714,333.33 C454.714,332.394 454.3,331.764 453.274,331.764 C452.428,331.764 451.636,332.34 451.258,332.916 L451.258,339 L449.368,339 L449.368,333.33 C449.368,332.394 448.972,331.764 447.946,331.764 C447.1,331.764 446.326,332.358 445.93,332.916 L445.93,339 L444.04,339 L444.04,330.306 L445.93,330.306 L445.93,331.476 C446.308,330.954 447.442,330.09 448.774,330.09 C450.07,330.09 450.862,330.738 451.15,331.674 C451.636,330.9 452.788,330.09 454.102,330.09 C455.686,330.09 456.604,330.954 456.604,332.718 L456.604,339 Z M442.51,341.682 L441.34,342.582 C439.63,340.512 438.604,337.524 438.604,334.626 C438.604,331.728 439.63,328.74 441.34,326.67 L442.51,327.552 C441.304,329.784 440.656,331.782 440.656,334.626 C440.656,337.434 441.304,339.468 442.51,341.682 Z M464.38,339 L464.38,338.046 C463.732,338.802 462.706,339.216 461.554,339.216 C460.15,339.216 458.548,338.244 458.548,336.336 C458.548,334.32 460.132,333.492 461.554,333.492 C462.742,333.492 463.732,333.87 464.38,334.608 L464.38,333.312 C464.38,332.304 463.534,331.692 462.346,331.692 C461.374,331.692 460.51,332.052 459.772,332.808 L458.98,331.494 C459.988,330.522 461.248,330.09 462.634,330.09 C464.578,330.09 466.27,330.9 466.27,333.222 L466.27,339 Z M462.31,337.92 C463.12,337.92 463.93,337.614 464.38,337.02 L464.38,335.688 C463.93,335.094 463.12,334.788 462.31,334.788 C461.248,334.788 460.438,335.418 460.438,336.354 C460.438,337.308 461.248,337.92 462.31,337.92 Z M474.604,339 L474.604,333.564 C474.604,332.196 473.902,331.764 472.84,331.764 C471.886,331.764 471.058,332.34 470.608,332.916 L470.608,339 L468.718,339 L468.718,330.306 L470.608,330.306 L470.608,331.476 C471.184,330.792 472.318,330.09 473.686,330.09 C475.558,330.09 476.494,331.098 476.494,332.88 L476.494,339 Z M484.81,339 L484.81,337.848 C484.198,338.532 483.118,339.216 481.75,339.216 C479.878,339.216 478.942,338.226 478.942,336.462 L478.942,330.306 L480.832,330.306 L480.832,335.76 C480.832,337.11 481.516,337.542 482.596,337.542 C483.55,337.542 484.378,336.984 484.81,336.408 L484.81,330.306 L486.7,330.306 L486.7,339 Z M489.616,339 L489.616,331.944 L488.176,331.944 L488.176,330.306 L489.616,330.306 L489.616,329.82 C489.616,327.93 490.714,326.814 492.352,326.814 C493.144,326.814 493.918,327.012 494.44,327.57 L493.702,328.74 C493.45,328.506 493.126,328.362 492.712,328.362 C491.956,328.362 491.506,328.848 491.506,329.82 L491.506,330.306 L493.27,330.306 L493.27,331.944 L491.506,331.944 L491.506,339 Z M500.038,339 L500.038,338.046 C499.39,338.802 498.364,339.216 497.212,339.216 C495.808,339.216 494.206,338.244 494.206,336.336 C494.206,334.32 495.79,333.492 497.212,333.492 C498.4,333.492 499.39,333.87 500.038,334.608 L500.038,333.312 C500.038,332.304 499.192,331.692 498.004,331.692 C497.032,331.692 496.168,332.052 495.43,332.808 L494.638,331.494 C495.646,330.522 496.906,330.09 498.292,330.09 C500.236,330.09 501.928,330.9 501.928,333.222 L501.928,339 Z M497.968,337.92 C498.778,337.92 499.588,337.614 500.038,337.02 L500.038,335.688 C499.588,335.094 498.778,334.788 497.968,334.788 C496.906,334.788 496.096,335.418 496.096,336.354 C496.096,337.308 496.906,337.92 497.968,337.92 Z M508.336,339.216 C505.708,339.216 503.854,337.272 503.854,334.644 C503.854,332.016 505.708,330.09 508.336,330.09 C510.046,330.09 511.054,330.81 511.666,331.638 L510.424,332.772 C509.938,332.088 509.272,331.764 508.426,331.764 C506.86,331.764 505.798,332.952 505.798,334.644 C505.798,336.336 506.86,337.542 508.426,337.542 C509.272,337.542 509.938,337.182 510.424,336.498 L511.666,337.668 C511.054,338.478 510.046,339.216 508.336,339.216 Z M515.968,339.216 C514.492,339.216 513.736,338.424 513.736,336.966 L513.736,331.944 L512.296,331.944 L512.296,330.306 L513.736,330.306 L513.736,327.93 L515.626,327.93 L515.626,330.306 L517.39,330.306 L517.39,331.944 L515.626,331.944 L515.626,336.498 C515.626,337.092 515.914,337.542 516.454,337.542 C516.814,337.542 517.138,337.38 517.282,337.218 L517.732,338.658 C517.39,338.964 516.832,339.216 515.968,339.216 Z M524.95,339 L524.95,337.848 C524.338,338.532 523.258,339.216 521.89,339.216 C520.018,339.216 519.082,338.226 519.082,336.462 L519.082,330.306 L520.972,330.306 L520.972,335.76 C520.972,337.11 521.656,337.542 522.736,337.542 C523.69,337.542 524.518,336.984 524.95,336.408 L524.95,330.306 L526.84,330.306 L526.84,339 Z M529.288,339 L529.288,330.306 L531.178,330.306 L531.178,331.566 C531.844,330.738 532.888,330.09 534.004,330.09 L534.004,331.962 C533.842,331.926 533.662,331.908 533.428,331.908 C532.618,331.908 531.556,332.448 531.178,333.078 L531.178,339 Z M536.488,329.244 C535.84,329.244 535.318,328.722 535.318,328.074 C535.318,327.426 535.84,326.904 536.488,326.904 C537.136,326.904 537.658,327.426 537.658,328.074 C537.658,328.722 537.136,329.244 536.488,329.244 Z M535.534,339 L535.534,330.306 L537.424,330.306 L537.424,339 Z M545.758,339 L545.758,333.564 C545.758,332.196 545.056,331.764 543.994,331.764 C543.04,331.764 542.212,332.34 541.762,332.916 L541.762,339 L539.872,339 L539.872,330.306 L541.762,330.306 L541.762,331.476 C542.338,330.792 543.472,330.09 544.84,330.09 C546.712,330.09 547.648,331.098 547.648,332.88 L547.648,339 Z M553.642,342.528 C552.166,342.528 551.068,342.204 549.988,341.232 L550.87,339.864 C551.59,340.674 552.49,340.98 553.642,340.98 C554.884,340.98 556.216,340.404 556.216,338.55 L556.216,337.56 C555.55,338.442 554.56,339.018 553.426,339.018 C551.212,339.018 549.574,337.416 549.574,334.554 C549.574,331.728 551.176,330.09 553.426,330.09 C554.524,330.09 555.514,330.576 556.216,331.512 L556.216,330.306 L558.106,330.306 L558.106,338.55 C558.106,341.682 555.766,342.528 553.642,342.528 Z M553.984,337.326 C554.866,337.326 555.784,336.804 556.216,336.174 L556.216,332.916 C555.784,332.286 554.866,331.764 553.984,331.764 C552.472,331.764 551.518,332.88 551.518,334.554 C551.518,336.228 552.472,337.326 553.984,337.326 Z M571.318,339 L571.318,337.812 C570.652,338.676 569.662,339.216 568.528,339.216 C566.314,339.216 564.676,337.524 564.676,334.644 C564.676,331.836 566.296,330.09 568.528,330.09 C569.626,330.09 570.634,330.576 571.318,331.512 L571.318,326.994 L573.208,326.994 L573.208,339 Z M569.086,337.542 C569.968,337.542 570.904,337.02 571.318,336.372 L571.318,332.934 C570.904,332.286 569.968,331.764 569.086,331.764 C567.574,331.764 566.62,332.97 566.62,334.644 C566.62,336.336 567.574,337.542 569.086,337.542 Z M579.688,339.216 C577.06,339.216 575.134,337.398 575.134,334.644 C575.134,332.124 576.97,330.09 579.544,330.09 C582.154,330.09 583.81,332.07 583.81,334.806 L583.81,335.274 L577.114,335.274 C577.258,336.57 578.23,337.668 579.868,337.668 C580.732,337.668 581.722,337.326 582.352,336.696 L583.216,337.938 C582.334,338.766 581.056,339.216 579.688,339.216 Z M581.992,333.924 C581.938,332.898 581.236,331.638 579.526,331.638 C577.924,331.638 577.168,332.88 577.096,333.924 Z M588.67,339.216 C587.176,339.216 585.844,338.73 584.944,337.848 L585.808,336.498 C586.42,337.128 587.626,337.704 588.742,337.704 C589.876,337.704 590.47,337.236 590.47,336.552 C590.47,334.842 585.214,336.066 585.214,332.718 C585.214,331.296 586.438,330.09 588.634,330.09 C590.11,330.09 591.226,330.612 592,331.296 L591.208,332.628 C590.686,332.052 589.732,331.584 588.634,331.584 C587.644,331.584 587.032,332.052 587.032,332.664 C587.032,334.194 592.288,333.042 592.288,336.498 C592.288,338.046 591.01,339.216 588.67,339.216 Z M595.132,329.244 C594.484,329.244 593.962,328.722 593.962,328.074 C593.962,327.426 594.484,326.904 595.132,326.904 C595.78,326.904 596.302,327.426 596.302,328.074 C596.302,328.722 595.78,329.244 595.132,329.244 Z M594.178,339 L594.178,330.306 L596.068,330.306 L596.068,339 Z M602.062,342.528 C600.586,342.528 599.488,342.204 598.408,341.232 L599.29,339.864 C600.01,340.674 600.91,340.98 602.062,340.98 C603.304,340.98 604.636,340.404 604.636,338.55 L604.636,337.56 C603.97,338.442 602.98,339.018 601.846,339.018 C599.632,339.018 597.994,337.416 597.994,334.554 C597.994,331.728 599.596,330.09 601.846,330.09 C602.944,330.09 603.934,330.576 604.636,331.512 L604.636,330.306 L606.526,330.306 L606.526,338.55 C606.526,341.682 604.186,342.528 602.062,342.528 Z M602.404,337.326 C603.286,337.326 604.204,336.804 604.636,336.174 L604.636,332.916 C604.204,332.286 603.286,331.764 602.404,331.764 C600.892,331.764 599.938,332.88 599.938,334.554 C599.938,336.228 600.892,337.326 602.404,337.326 Z M614.86,339 L614.86,333.564 C614.86,332.196 614.158,331.764 613.096,331.764 C612.142,331.764 611.314,332.34 610.864,332.916 L610.864,339 L608.974,339 L608.974,330.306 L610.864,330.306 L610.864,331.476 C611.44,330.792 612.574,330.09 613.942,330.09 C615.814,330.09 616.75,331.098 616.75,332.88 L616.75,339 Z M623.23,339.216 C620.602,339.216 618.676,337.398 618.676,334.644 C618.676,332.124 620.512,330.09 623.086,330.09 C625.696,330.09 627.352,332.07 627.352,334.806 L627.352,335.274 L620.656,335.274 C620.8,336.57 621.772,337.668 623.41,337.668 C624.274,337.668 625.264,337.326 625.894,336.696 L626.758,337.938 C625.876,338.766 624.598,339.216 623.23,339.216 Z M625.534,333.924 C625.48,332.898 624.778,331.638 623.068,331.638 C621.466,331.638 620.71,332.88 620.638,333.924 Z M629.224,339 L629.224,330.306 L631.114,330.306 L631.114,331.566 C631.78,330.738 632.824,330.09 633.94,330.09 L633.94,331.962 C633.778,331.926 633.598,331.908 633.364,331.908 C632.554,331.908 631.492,332.448 631.114,333.078 L631.114,339 Z M638.458,339.216 C636.964,339.216 635.632,338.73 634.732,337.848 L635.596,336.498 C636.208,337.128 637.414,337.704 638.53,337.704 C639.664,337.704 640.258,337.236 640.258,336.552 C640.258,334.842 635.002,336.066 635.002,332.718 C635.002,331.296 636.226,330.09 638.422,330.09 C639.898,330.09 641.014,330.612 641.788,331.296 L640.996,332.628 C640.474,332.052 639.52,331.584 638.422,331.584 C637.432,331.584 636.82,332.052 636.82,332.664 C636.82,334.194 642.076,333.042 642.076,336.498 C642.076,338.046 640.798,339.216 638.458,339.216 Z M646.306,338.316 C646.306,339.558 645.622,340.692 644.632,341.394 L643.768,340.692 C644.344,340.35 644.956,339.612 645.064,339 C645.028,339.018 644.884,339.054 644.758,339.054 C644.164,339.054 643.696,338.568 643.696,337.902 C643.696,337.236 644.236,336.678 644.92,336.678 C645.658,336.678 646.306,337.272 646.306,338.316 Z M465.064,361 L465.064,360.046 C464.416,360.802 463.39,361.216 462.238,361.216 C460.834,361.216 459.232,360.244 459.232,358.336 C459.232,356.32 460.816,355.492 462.238,355.492 C463.426,355.492 464.416,355.87 465.064,356.608 L465.064,355.312 C465.064,354.304 464.218,353.692 463.03,353.692 C462.058,353.692 461.194,354.052 460.456,354.808 L459.664,353.494 C460.672,352.522 461.932,352.09 463.318,352.09 C465.262,352.09 466.954,352.9 466.954,355.222 L466.954,361 Z M462.994,359.92 C463.804,359.92 464.614,359.614 465.064,359.02 L465.064,357.688 C464.614,357.094 463.804,356.788 462.994,356.788 C461.932,356.788 461.122,357.418 461.122,358.354 C461.122,359.308 461.932,359.92 462.994,359.92 Z M469.402,361 L469.402,352.306 L471.292,352.306 L471.292,353.566 C471.958,352.738 473.002,352.09 474.118,352.09 L474.118,353.962 C473.956,353.926 473.776,353.908 473.542,353.908 C472.732,353.908 471.67,354.448 471.292,355.078 L471.292,361 Z M479.608,361.216 C476.98,361.216 475.126,359.272 475.126,356.644 C475.126,354.016 476.98,352.09 479.608,352.09 C481.318,352.09 482.326,352.81 482.938,353.638 L481.696,354.772 C481.21,354.088 480.544,353.764 479.698,353.764 C478.132,353.764 477.07,354.952 477.07,356.644 C477.07,358.336 478.132,359.542 479.698,359.542 C480.544,359.542 481.21,359.182 481.696,358.498 L482.938,359.668 C482.326,360.478 481.318,361.216 479.608,361.216 Z M490.498,361 L490.498,355.528 C490.498,354.16 489.814,353.764 488.752,353.764 C487.78,353.764 486.952,354.34 486.52,354.916 L486.52,361 L484.63,361 L484.63,348.994 L486.52,348.994 L486.52,353.476 C487.096,352.792 488.212,352.09 489.58,352.09 C491.452,352.09 492.388,353.062 492.388,354.844 L492.388,361 Z M495.79,351.244 C495.142,351.244 494.62,350.722 494.62,350.074 C494.62,349.426 495.142,348.904 495.79,348.904 C496.438,348.904 496.96,349.426 496.96,350.074 C496.96,350.722 496.438,351.244 495.79,351.244 Z M494.836,361 L494.836,352.306 L496.726,352.306 L496.726,361 Z M501.802,361.216 C500.326,361.216 499.57,360.424 499.57,358.966 L499.57,353.944 L498.13,353.944 L498.13,352.306 L499.57,352.306 L499.57,349.93 L501.46,349.93 L501.46,352.306 L503.224,352.306 L503.224,353.944 L501.46,353.944 L501.46,358.498 C501.46,359.092 501.748,359.542 502.288,359.542 C502.648,359.542 502.972,359.38 503.116,359.218 L503.566,360.658 C503.224,360.964 502.666,361.216 501.802,361.216 Z M508.948,361.216 C506.32,361.216 504.394,359.398 504.394,356.644 C504.394,354.124 506.23,352.09 508.804,352.09 C511.414,352.09 513.07,354.07 513.07,356.806 L513.07,357.274 L506.374,357.274 C506.518,358.57 507.49,359.668 509.128,359.668 C509.992,359.668 510.982,359.326 511.612,358.696 L512.476,359.938 C511.594,360.766 510.316,361.216 508.948,361.216 Z M511.252,355.924 C511.198,354.898 510.496,353.638 508.786,353.638 C507.184,353.638 506.428,354.88 506.356,355.924 Z M518.902,361.216 C516.274,361.216 514.42,359.272 514.42,356.644 C514.42,354.016 516.274,352.09 518.902,352.09 C520.612,352.09 521.62,352.81 522.232,353.638 L520.99,354.772 C520.504,354.088 519.838,353.764 518.992,353.764 C517.426,353.764 516.364,354.952 516.364,356.644 C516.364,358.336 517.426,359.542 518.992,359.542 C519.838,359.542 520.504,359.182 520.99,358.498 L522.232,359.668 C521.62,360.478 520.612,361.216 518.902,361.216 Z M526.534,361.216 C525.058,361.216 524.302,360.424 524.302,358.966 L524.302,353.944 L522.862,353.944 L522.862,352.306 L524.302,352.306 L524.302,349.93 L526.192,349.93 L526.192,352.306 L527.956,352.306 L527.956,353.944 L526.192,353.944 L526.192,358.498 C526.192,359.092 526.48,359.542 527.02,359.542 C527.38,359.542 527.704,359.38 527.848,359.218 L528.298,360.658 C527.956,360.964 527.398,361.216 526.534,361.216 Z M532.636,361.216 C531.142,361.216 529.81,360.73 528.91,359.848 L529.774,358.498 C530.386,359.128 531.592,359.704 532.708,359.704 C533.842,359.704 534.436,359.236 534.436,358.552 C534.436,356.842 529.18,358.066 529.18,354.718 C529.18,353.296 530.404,352.09 532.6,352.09 C534.076,352.09 535.192,352.612 535.966,353.296 L535.174,354.628 C534.652,354.052 533.698,353.584 532.6,353.584 C531.61,353.584 530.998,354.052 530.998,354.664 C530.998,356.194 536.254,355.042 536.254,358.498 C536.254,360.046 534.976,361.216 532.636,361.216 Z M540.484,360.316 C540.484,361.558 539.8,362.692 538.81,363.394 L537.946,362.692 C538.522,362.35 539.134,361.612 539.242,361 C539.206,361.018 539.062,361.054 538.936,361.054 C538.342,361.054 537.874,360.568 537.874,359.902 C537.874,359.236 538.414,358.678 539.098,358.678 C539.836,358.678 540.484,359.272 540.484,360.316 Z M552.526,361 L552.526,360.046 C551.878,360.802 550.852,361.216 549.7,361.216 C548.296,361.216 546.694,360.244 546.694,358.336 C546.694,356.32 548.278,355.492 549.7,355.492 C550.888,355.492 551.878,355.87 552.526,356.608 L552.526,355.312 C552.526,354.304 551.68,353.692 550.492,353.692 C549.52,353.692 548.656,354.052 547.918,354.808 L547.126,353.494 C548.134,352.522 549.394,352.09 550.78,352.09 C552.724,352.09 554.416,352.9 554.416,355.222 L554.416,361 Z M550.456,359.92 C551.266,359.92 552.076,359.614 552.526,359.02 L552.526,357.688 C552.076,357.094 551.266,356.788 550.456,356.788 C549.394,356.788 548.584,357.418 548.584,358.354 C548.584,359.308 549.394,359.92 550.456,359.92 Z M559.492,361.216 C558.016,361.216 557.26,360.424 557.26,358.966 L557.26,353.944 L555.82,353.944 L555.82,352.306 L557.26,352.306 L557.26,349.93 L559.15,349.93 L559.15,352.306 L560.914,352.306 L560.914,353.944 L559.15,353.944 L559.15,358.498 C559.15,359.092 559.438,359.542 559.978,359.542 C560.338,359.542 560.662,359.38 560.806,359.218 L561.256,360.658 C560.914,360.964 560.356,361.216 559.492,361.216 Z M565.234,361.216 C563.758,361.216 563.002,360.424 563.002,358.966 L563.002,353.944 L561.562,353.944 L561.562,352.306 L563.002,352.306 L563.002,349.93 L564.892,349.93 L564.892,352.306 L566.656,352.306 L566.656,353.944 L564.892,353.944 L564.892,358.498 C564.892,359.092 565.18,359.542 565.72,359.542 C566.08,359.542 566.404,359.38 566.548,359.218 L566.998,360.658 C566.656,360.964 566.098,361.216 565.234,361.216 Z M572.29,361.216 C569.518,361.216 567.826,359.128 567.826,356.644 C567.826,354.142 569.518,352.09 572.29,352.09 C575.062,352.09 576.754,354.142 576.754,356.644 C576.754,359.128 575.062,361.216 572.29,361.216 Z M572.29,359.542 C573.91,359.542 574.792,358.192 574.792,356.644 C574.792,355.114 573.91,353.764 572.29,353.764 C570.688,353.764 569.788,355.114 569.788,356.644 C569.788,358.192 570.688,359.542 572.29,359.542 Z M578.68,361 L578.68,352.306 L580.57,352.306 L580.57,353.566 C581.236,352.738 582.28,352.09 583.396,352.09 L583.396,353.962 C583.234,353.926 583.054,353.908 582.82,353.908 C582.01,353.908 580.948,354.448 580.57,355.078 L580.57,361 Z M590.812,361 L590.812,355.564 C590.812,354.196 590.11,353.764 589.048,353.764 C588.094,353.764 587.266,354.34 586.816,354.916 L586.816,361 L584.926,361 L584.926,352.306 L586.816,352.306 L586.816,353.476 C587.392,352.792 588.526,352.09 589.894,352.09 C591.766,352.09 592.702,353.098 592.702,354.88 L592.702,361 Z M599.182,361.216 C596.554,361.216 594.628,359.398 594.628,356.644 C594.628,354.124 596.464,352.09 599.038,352.09 C601.648,352.09 603.304,354.07 603.304,356.806 L603.304,357.274 L596.608,357.274 C596.752,358.57 597.724,359.668 599.362,359.668 C600.226,359.668 601.216,359.326 601.846,358.696 L602.71,359.938 C601.828,360.766 600.55,361.216 599.182,361.216 Z M601.486,355.924 C601.432,354.898 600.73,353.638 599.02,353.638 C597.418,353.638 596.662,354.88 596.59,355.924 Z M605.086,362.71 C605.284,362.8 605.59,362.854 605.806,362.854 C606.418,362.854 606.814,362.674 607.066,362.098 L607.498,361.108 L603.916,352.306 L605.95,352.306 L608.488,358.822 L611.026,352.306 L613.042,352.306 L608.848,362.566 C608.254,364.042 607.228,364.51 605.878,364.528 C605.608,364.528 605.068,364.474 604.816,364.402 Z M617.218,361.216 C615.724,361.216 614.392,360.73 613.492,359.848 L614.356,358.498 C614.968,359.128 616.174,359.704 617.29,359.704 C618.424,359.704 619.018,359.236 619.018,358.552 C619.018,356.842 613.762,358.066 613.762,354.718 C613.762,353.296 614.986,352.09 617.182,352.09 C618.658,352.09 619.774,352.612 620.548,353.296 L619.756,354.628 C619.234,354.052 618.28,353.584 617.182,353.584 C616.192,353.584 615.58,354.052 615.58,354.664 C615.58,356.194 620.836,355.042 620.836,358.498 C620.836,360.046 619.558,361.216 617.218,361.216 Z M622.996,364.582 L621.826,363.682 C623.014,361.468 623.662,359.434 623.662,356.626 C623.662,353.782 623.014,351.784 621.826,349.552 L622.996,348.67 C624.688,350.74 625.714,353.728 625.714,356.626 C625.714,359.524 624.688,362.512 622.996,364.582 Z M622.996,364.582" id="(manufacturing desig" fill="#FFFFFF"></path>
    </g>
</svg>