<?xml version="1.0" encoding="UTF-8" standalone="no"?>
<svg width="660px" height="353px" viewBox="0 0 660 353" version="1.1" xmlns="http://www.w3.org/2000/svg" xmlns:xlink="http://www.w3.org/1999/xlink" xmlns:sketch="http://www.bohemiancoding.com/sketch/ns">
    <title>Graph</title>
    <description>Created with Sketch (http://www.bohemiancoding.com/sketch)</description>
    <defs></defs>
    <g id="Page 1" stroke="none" stroke-width="1" fill="none" fill-rule="evenodd">
        <g id="Graph 3" transform="translate(2.000000, 6.000000)">
            <path d="M38,197 C52.3594042,197 64,185.359404 64,171 C64,156.640596 52.3594042,145 38,145 C23.6405958,145 12,156.640596 12,171 C12,185.359404 23.6405958,197 38,197 Z M38,197" id="Oval 1" fill="#2FADD8"></path>
            <path d="M189,238 C226.00308,238 256,208.00308 256,171 C256,133.99692 226.00308,104 189,104 C151.99692,104 122,133.99692 122,171 C122,208.00308 151.99692,238 189,238 Z M189,238" id="Oval 1 copy" fill-opacity="0.5" fill="#2FADD8"></path>
            <path d="M485,342 C579.440697,342 656,265.440697 656,171 C656,76.5593031 579.440697,0 485,0 C390.559303,0 314,76.5593031 314,171 C314,265.440697 390.559303,342 485,342 Z M485,342" id="Oval 1 copy 2" fill-opacity="0.2" fill="#2FADD8"></path>
            <text id="$1B" fill="#FFFFFF" font-family="Proxima Nova" font-size="18" font-weight="bold" x="23" y="179.000036">
                <tspan>$1B</tspan>
            </text>
            <text id="Startups" fill="#FFFFFF" font-family="Proxima Nova" font-size="20" font-weight="bold" x="0" y="278.000041">
                <tspan>Startups</tspan>
            </text>
            <text id="Mobile &amp; Web" fill="#FFFFFF" font-family="Proxima Nova" font-size="20" font-weight="bold" x="130" y="278.000041">
                <tspan>Mobile &amp; Web</tspan>
            </text>
            <text id="All Freelance" fill="#FFFFFF" font-family="Proxima Nova" font-size="20" font-weight="bold" x="426" y="278.000041">
                <tspan>All Freelance</tspan>
            </text>
            <text id="$4B" fill="#FFFFFF" font-family="Proxima Nova" font-size="40" font-weight="bold" sketch:alignment="middle" x="151.5" y="187.000081">
                <tspan>$4B</tspan>
            </text>
            <text id="$20B" fill="#FFFFFF" font-family="Proxima Nova" font-size="72" font-weight="bold" sketch:alignment="middle" x="395" y="197">
                <tspan>$20B</tspan>
            </text>
        </g>
    </g>
</svg>