<?xml version="1.0" encoding="UTF-8" standalone="no"?>
<svg width="290px" height="665px" viewBox="0 0 290 665" version="1.1" xmlns="http://www.w3.org/2000/svg" xmlns:xlink="http://www.w3.org/1999/xlink" xmlns:sketch="http://www.bohemiancoding.com/sketch/ns">
    <title>Slice 3</title>
    <description>Created with Sketch (http://www.bohemiancoding.com/sketch)</description>
    <defs></defs>
    <g id="Page 1" stroke="none" stroke-width="1" fill="none" fill-rule="evenodd">
        <path d="M58,514 L58,570 L129,570 L129,514 L58,514 Z M58,514" id="Rectangle 4" stroke="#979797" fill="#FFFFFF"></path>
        <path d="M153,42 L153,570 L224,570 L224,42 L153,42 Z M153,42" id="Rectangle 3" stroke="#979797" fill="#2FADD8"></path>
        <path d="M22.472,653 L19.014,653 L17.74,649.646 L9.784,649.646 L8.51,653 L5.052,653 L11.864,635.658 L15.66,635.658 Z M16.882,646.968 L13.762,638.7 L10.642,646.968 Z M27.048,653 L21.926,640.442 L24.864,640.442 L28.53,649.854 L32.196,640.442 L35.108,640.442 L29.986,653 Z M42.648,653.312 C38.852,653.312 36.07,650.686 36.07,646.708 C36.07,643.068 38.722,640.13 42.44,640.13 C46.21,640.13 48.602,642.99 48.602,646.942 L48.602,647.618 L38.93,647.618 C39.138,649.49 40.542,651.076 42.908,651.076 C44.156,651.076 45.586,650.582 46.496,649.672 L47.744,651.466 C46.47,652.662 44.624,653.312 42.648,653.312 Z M45.976,645.668 C45.898,644.186 44.884,642.366 42.414,642.366 C40.1,642.366 39.008,644.16 38.904,645.668 Z M51.306,653 L51.306,640.442 L54.036,640.442 L54.036,642.262 C54.998,641.066 56.506,640.13 58.118,640.13 L58.118,642.834 C57.884,642.782 57.624,642.756 57.286,642.756 C56.116,642.756 54.582,643.536 54.036,644.446 L54.036,653 Z M68.024,653 L68.024,651.622 C67.088,652.714 65.606,653.312 63.942,653.312 C61.914,653.312 59.6,651.908 59.6,649.152 C59.6,646.24 61.888,645.044 63.942,645.044 C65.658,645.044 67.088,645.59 68.024,646.656 L68.024,644.784 C68.024,643.328 66.802,642.444 65.086,642.444 C63.682,642.444 62.434,642.964 61.368,644.056 L60.224,642.158 C61.68,640.754 63.5,640.13 65.502,640.13 C68.31,640.13 70.754,641.3 70.754,644.654 L70.754,653 Z M65.034,651.44 C66.204,651.44 67.374,650.998 68.024,650.14 L68.024,648.216 C67.374,647.358 66.204,646.916 65.034,646.916 C63.5,646.916 62.33,647.826 62.33,649.178 C62.33,650.556 63.5,651.44 65.034,651.44 Z M79.412,658.096 C77.28,658.096 75.694,657.628 74.134,656.224 L75.408,654.248 C76.448,655.418 77.748,655.86 79.412,655.86 C81.206,655.86 83.13,655.028 83.13,652.35 L83.13,650.92 C82.168,652.194 80.738,653.026 79.1,653.026 C75.902,653.026 73.536,650.712 73.536,646.578 C73.536,642.496 75.85,640.13 79.1,640.13 C80.686,640.13 82.116,640.832 83.13,642.184 L83.13,640.442 L85.86,640.442 L85.86,652.35 C85.86,656.874 82.48,658.096 79.412,658.096 Z M79.906,650.582 C81.18,650.582 82.506,649.828 83.13,648.918 L83.13,644.212 C82.506,643.302 81.18,642.548 79.906,642.548 C77.722,642.548 76.344,644.16 76.344,646.578 C76.344,648.996 77.722,650.582 79.906,650.582 Z M95.22,653.312 C91.424,653.312 88.642,650.686 88.642,646.708 C88.642,643.068 91.294,640.13 95.012,640.13 C98.782,640.13 101.174,642.99 101.174,646.942 L101.174,647.618 L91.502,647.618 C91.71,649.49 93.114,651.076 95.48,651.076 C96.728,651.076 98.158,650.582 99.068,649.672 L100.316,651.466 C99.042,652.662 97.196,653.312 95.22,653.312 Z M98.548,645.668 C98.47,644.186 97.456,642.366 94.986,642.366 C92.672,642.366 91.58,644.16 91.476,645.668 Z M110.664,653 L110.664,635.658 L118.308,635.658 C121.948,635.658 123.95,638.128 123.95,641.092 C123.95,644.03 121.922,646.5 118.308,646.5 L113.706,646.5 L113.706,653 Z M117.892,643.822 C119.608,643.822 120.83,642.73 120.83,641.092 C120.83,639.428 119.608,638.336 117.892,638.336 L113.706,638.336 L113.706,643.822 Z M126.42,653 L126.42,640.442 L129.15,640.442 L129.15,642.262 C130.112,641.066 131.62,640.13 133.232,640.13 L133.232,642.834 C132.998,642.782 132.738,642.756 132.4,642.756 C131.23,642.756 129.696,643.536 129.15,644.446 L129.15,653 Z M141.136,653.312 C137.132,653.312 134.688,650.296 134.688,646.708 C134.688,643.094 137.132,640.13 141.136,640.13 C145.14,640.13 147.584,643.094 147.584,646.708 C147.584,650.296 145.14,653.312 141.136,653.312 Z M141.136,650.894 C143.476,650.894 144.75,648.944 144.75,646.708 C144.75,644.498 143.476,642.548 141.136,642.548 C138.822,642.548 137.522,644.498 137.522,646.708 C137.522,648.944 138.822,650.894 141.136,650.894 Z M151.744,638.908 C150.808,638.908 150.054,638.154 150.054,637.218 C150.054,636.282 150.808,635.528 151.744,635.528 C152.68,635.528 153.434,636.282 153.434,637.218 C153.434,638.154 152.68,638.908 151.744,638.908 Z M148.936,658.096 C147.48,658.096 146.83,657.81 145.972,657.186 L146.778,655.158 C147.246,655.574 147.74,655.86 148.52,655.86 C149.612,655.86 150.366,655.21 150.366,653.728 L150.366,640.442 L153.096,640.442 L153.096,653.728 C153.096,656.406 151.718,658.096 148.936,658.096 Z M162.456,653.312 C158.66,653.312 155.878,650.686 155.878,646.708 C155.878,643.068 158.53,640.13 162.248,640.13 C166.018,640.13 168.41,642.99 168.41,646.942 L168.41,647.618 L158.738,647.618 C158.946,649.49 160.35,651.076 162.716,651.076 C163.964,651.076 165.394,650.582 166.304,649.672 L167.552,651.466 C166.278,652.662 164.432,653.312 162.456,653.312 Z M165.784,645.668 C165.706,644.186 164.692,642.366 162.222,642.366 C159.908,642.366 158.816,644.16 158.712,645.668 Z M176.834,653.312 C173.038,653.312 170.36,650.504 170.36,646.708 C170.36,642.912 173.038,640.13 176.834,640.13 C179.304,640.13 180.76,641.17 181.644,642.366 L179.85,644.004 C179.148,643.016 178.186,642.548 176.964,642.548 C174.702,642.548 173.168,644.264 173.168,646.708 C173.168,649.152 174.702,650.894 176.964,650.894 C178.186,650.894 179.148,650.374 179.85,649.386 L181.644,651.076 C180.76,652.246 179.304,653.312 176.834,653.312 Z M187.858,653.312 C185.726,653.312 184.634,652.168 184.634,650.062 L184.634,642.808 L182.554,642.808 L182.554,640.442 L184.634,640.442 L184.634,637.01 L187.364,637.01 L187.364,640.442 L189.912,640.442 L189.912,642.808 L187.364,642.808 L187.364,649.386 C187.364,650.244 187.78,650.894 188.56,650.894 C189.08,650.894 189.548,650.66 189.756,650.426 L190.406,652.506 C189.912,652.948 189.106,653.312 187.858,653.312 Z M199.142,653 L199.142,635.658 L207.67,635.658 C210.868,635.658 212.61,637.634 212.61,640.078 C212.61,642.236 211.206,643.718 209.594,644.056 C211.466,644.342 212.948,646.188 212.948,648.294 C212.948,650.998 211.18,653 207.904,653 Z M207.072,642.808 C208.606,642.808 209.49,641.898 209.49,640.572 C209.49,639.298 208.606,638.336 207.072,638.336 L202.184,638.336 L202.184,642.808 Z M207.202,650.322 C208.84,650.322 209.828,649.412 209.828,647.904 C209.828,646.604 208.918,645.486 207.202,645.486 L202.184,645.486 L202.184,650.322 Z M224.414,653 L224.414,651.336 C223.53,652.324 221.97,653.312 219.994,653.312 C217.29,653.312 215.938,651.882 215.938,649.334 L215.938,640.442 L218.668,640.442 L218.668,648.32 C218.668,650.27 219.656,650.894 221.216,650.894 C222.594,650.894 223.79,650.088 224.414,649.256 L224.414,640.442 L227.144,640.442 L227.144,653 Z M239.52,653 L239.52,651.284 C238.558,652.532 237.128,653.312 235.49,653.312 C232.292,653.312 229.926,650.868 229.926,646.708 C229.926,642.652 232.266,640.13 235.49,640.13 C237.076,640.13 238.532,640.832 239.52,642.184 L239.52,635.658 L242.25,635.658 L242.25,653 Z M236.296,650.894 C237.57,650.894 238.922,650.14 239.52,649.204 L239.52,644.238 C238.922,643.302 237.57,642.548 236.296,642.548 C234.112,642.548 232.734,644.29 232.734,646.708 C232.734,649.152 234.112,650.894 236.296,650.894 Z M250.908,658.096 C248.776,658.096 247.19,657.628 245.63,656.224 L246.904,654.248 C247.944,655.418 249.244,655.86 250.908,655.86 C252.702,655.86 254.626,655.028 254.626,652.35 L254.626,650.92 C253.664,652.194 252.234,653.026 250.596,653.026 C247.398,653.026 245.032,650.712 245.032,646.578 C245.032,642.496 247.346,640.13 250.596,640.13 C252.182,640.13 253.612,640.832 254.626,642.184 L254.626,640.442 L257.356,640.442 L257.356,652.35 C257.356,656.874 253.976,658.096 250.908,658.096 Z M251.402,650.582 C252.676,650.582 254.002,649.828 254.626,648.918 L254.626,644.212 C254.002,643.302 252.676,642.548 251.402,642.548 C249.218,642.548 247.84,644.16 247.84,646.578 C247.84,648.996 249.218,650.582 251.402,650.582 Z M266.716,653.312 C262.92,653.312 260.138,650.686 260.138,646.708 C260.138,643.068 262.79,640.13 266.508,640.13 C270.278,640.13 272.67,642.99 272.67,646.942 L272.67,647.618 L262.998,647.618 C263.206,649.49 264.61,651.076 266.976,651.076 C268.224,651.076 269.654,650.582 270.564,649.672 L271.812,651.466 C270.538,652.662 268.692,653.312 266.716,653.312 Z M270.044,645.668 C269.966,644.186 268.952,642.366 266.482,642.366 C264.168,642.366 263.076,644.16 262.972,645.668 Z M279.17,653.312 C277.038,653.312 275.946,652.168 275.946,650.062 L275.946,642.808 L273.866,642.808 L273.866,640.442 L275.946,640.442 L275.946,637.01 L278.676,637.01 L278.676,640.442 L281.224,640.442 L281.224,642.808 L278.676,642.808 L278.676,649.386 C278.676,650.244 279.092,650.894 279.872,650.894 C280.392,650.894 280.86,650.66 281.068,650.426 L281.718,652.506 C281.224,652.948 280.418,653.312 279.17,653.312 Z M279.17,653.312" id="Average Project Budg" fill="#FFFFFF"></path>
        <path d="M73.34,499 L73.34,497.2 C71.24,497.02 69.7,496.22 68.6,495.12 L70.16,492.9 C70.9,493.68 72,494.38 73.34,494.62 L73.34,491.52 C71.28,491.02 69.04,490.24 69.04,487.52 C69.04,485.5 70.64,483.78 73.34,483.5 L73.34,481.64 L75.22,481.64 L75.22,483.54 C76.84,483.72 78.22,484.32 79.3,485.32 L77.72,487.44 C77,486.78 76.12,486.36 75.22,486.14 L75.22,488.9 C77.3,489.42 79.62,490.22 79.62,492.96 C79.62,495.18 78.16,496.9 75.22,497.2 L75.22,499 Z M76.72,493.24 C76.72,492.58 76.1,492.26 75.22,491.98 L75.22,494.66 C76.24,494.46 76.72,493.88 76.72,493.24 Z M71.96,487.3 C71.96,487.88 72.52,488.18 73.34,488.44 L73.34,486.02 C72.46,486.14 71.96,486.62 71.96,487.3 Z M86.4,497.24 C84.08,497.24 82.4,496.48 81.26,495.24 L82.84,493.26 C83.74,494.2 84.98,494.72 86.38,494.72 C87.96,494.72 88.86,493.82 88.86,492.74 C88.86,491.56 87.98,490.76 86.46,490.76 C85.36,490.76 84.46,491.08 83.66,491.84 L81.68,491.3 L81.68,483.66 L90.84,483.66 L90.84,486.16 L84.52,486.16 L84.52,489.42 C85.16,488.78 86.24,488.3 87.46,488.3 C89.72,488.3 91.74,489.92 91.74,492.62 C91.74,495.44 89.62,497.24 86.4,497.24 Z M98.64,497.24 C94.82,497.24 93.12,493.78 93.12,490.34 C93.12,486.9 94.82,483.46 98.64,483.46 C102.46,483.46 104.16,486.9 104.16,490.34 C104.16,493.78 102.46,497.24 98.64,497.24 Z M98.64,494.72 C100.54,494.72 101.26,492.8 101.26,490.34 C101.26,487.88 100.56,485.98 98.64,485.98 C96.74,485.98 96.02,487.88 96.02,490.34 C96.02,492.8 96.74,494.72 98.64,494.72 Z M111.04,497.24 C107.22,497.24 105.52,493.78 105.52,490.34 C105.52,486.9 107.22,483.46 111.04,483.46 C114.86,483.46 116.56,486.9 116.56,490.34 C116.56,493.78 114.86,497.24 111.04,497.24 Z M111.04,494.72 C112.94,494.72 113.66,492.8 113.66,490.34 C113.66,487.88 112.96,485.98 111.04,485.98 C109.14,485.98 108.42,487.88 108.42,490.34 C108.42,492.8 109.14,494.72 111.04,494.72 Z M111.04,494.72" id="$500" fill="#FFFFFF"></path>
        <path d="M51.056,600.216 C47.51,600.216 44.756,597.696 44.756,594.006 C44.756,590.298 47.51,587.796 51.056,587.796 C53.468,587.796 54.98,589.038 55.862,590.478 L54.08,591.414 C53.504,590.406 52.334,589.668 51.056,589.668 C48.68,589.668 46.916,591.468 46.916,594.006 C46.916,596.508 48.68,598.344 51.056,598.344 C52.334,598.344 53.504,597.588 54.08,596.598 L55.88,597.498 C54.962,598.938 53.468,600.216 51.056,600.216 Z M61.442,600.216 C58.67,600.216 56.978,598.128 56.978,595.644 C56.978,593.142 58.67,591.09 61.442,591.09 C64.214,591.09 65.906,593.142 65.906,595.644 C65.906,598.128 64.214,600.216 61.442,600.216 Z M61.442,598.542 C63.062,598.542 63.944,597.192 63.944,595.644 C63.944,594.114 63.062,592.764 61.442,592.764 C59.84,592.764 58.94,594.114 58.94,595.644 C58.94,597.192 59.84,598.542 61.442,598.542 Z M78.506,600 L78.506,594.33 C78.506,593.394 78.092,592.764 77.066,592.764 C76.22,592.764 75.428,593.34 75.05,593.916 L75.05,600 L73.16,600 L73.16,594.33 C73.16,593.394 72.764,592.764 71.738,592.764 C70.892,592.764 70.118,593.358 69.722,593.916 L69.722,600 L67.832,600 L67.832,591.306 L69.722,591.306 L69.722,592.476 C70.1,591.954 71.234,591.09 72.566,591.09 C73.862,591.09 74.654,591.738 74.942,592.674 C75.428,591.9 76.58,591.09 77.894,591.09 C79.478,591.09 80.396,591.954 80.396,593.718 L80.396,600 Z M87.524,600.216 C86.426,600.216 85.454,599.712 84.734,598.794 L84.734,603.312 L82.844,603.312 L82.844,591.306 L84.734,591.306 L84.734,592.494 C85.382,591.63 86.39,591.09 87.524,591.09 C89.774,591.09 91.376,592.782 91.376,595.644 C91.376,598.506 89.774,600.216 87.524,600.216 Z M86.966,598.542 C88.46,598.542 89.432,597.336 89.432,595.644 C89.432,593.952 88.46,592.764 86.966,592.764 C86.084,592.764 85.166,593.268 84.734,593.916 L84.734,597.354 C85.148,598.002 86.084,598.542 86.966,598.542 Z M97.298,600.216 C94.67,600.216 92.744,598.398 92.744,595.644 C92.744,593.124 94.58,591.09 97.154,591.09 C99.764,591.09 101.42,593.07 101.42,595.806 L101.42,596.274 L94.724,596.274 C94.868,597.57 95.84,598.668 97.478,598.668 C98.342,598.668 99.332,598.326 99.962,597.696 L100.826,598.938 C99.944,599.766 98.666,600.216 97.298,600.216 Z M99.602,594.924 C99.548,593.898 98.846,592.638 97.136,592.638 C95.534,592.638 94.778,593.88 94.706,594.924 Z M105.92,600.216 C104.444,600.216 103.688,599.424 103.688,597.966 L103.688,592.944 L102.248,592.944 L102.248,591.306 L103.688,591.306 L103.688,588.93 L105.578,588.93 L105.578,591.306 L107.342,591.306 L107.342,592.944 L105.578,592.944 L105.578,597.498 C105.578,598.092 105.866,598.542 106.406,598.542 C106.766,598.542 107.09,598.38 107.234,598.218 L107.684,599.658 C107.342,599.964 106.784,600.216 105.92,600.216 Z M109.988,590.244 C109.34,590.244 108.818,589.722 108.818,589.074 C108.818,588.426 109.34,587.904 109.988,587.904 C110.636,587.904 111.158,588.426 111.158,589.074 C111.158,589.722 110.636,590.244 109.988,590.244 Z M109.034,600 L109.034,591.306 L110.924,591.306 L110.924,600 Z M116,600.216 C114.524,600.216 113.768,599.424 113.768,597.966 L113.768,592.944 L112.328,592.944 L112.328,591.306 L113.768,591.306 L113.768,588.93 L115.658,588.93 L115.658,591.306 L117.422,591.306 L117.422,592.944 L115.658,592.944 L115.658,597.498 C115.658,598.092 115.946,598.542 116.486,598.542 C116.846,598.542 117.17,598.38 117.314,598.218 L117.764,599.658 C117.422,599.964 116.864,600.216 116,600.216 Z M123.056,600.216 C120.284,600.216 118.592,598.128 118.592,595.644 C118.592,593.142 120.284,591.09 123.056,591.09 C125.828,591.09 127.52,593.142 127.52,595.644 C127.52,598.128 125.828,600.216 123.056,600.216 Z M123.056,598.542 C124.676,598.542 125.558,597.192 125.558,595.644 C125.558,594.114 124.676,592.764 123.056,592.764 C121.454,592.764 120.554,594.114 120.554,595.644 C120.554,597.192 121.454,598.542 123.056,598.542 Z M129.446,600 L129.446,591.306 L131.336,591.306 L131.336,592.566 C132.002,591.738 133.046,591.09 134.162,591.09 L134.162,592.962 C134,592.926 133.82,592.908 133.586,592.908 C132.776,592.908 131.714,593.448 131.336,594.078 L131.336,600 Z M138.68,600.216 C137.186,600.216 135.854,599.73 134.954,598.848 L135.818,597.498 C136.43,598.128 137.636,598.704 138.752,598.704 C139.886,598.704 140.48,598.236 140.48,597.552 C140.48,595.842 135.224,597.066 135.224,593.718 C135.224,592.296 136.448,591.09 138.644,591.09 C140.12,591.09 141.236,591.612 142.01,592.296 L141.218,593.628 C140.696,593.052 139.742,592.584 138.644,592.584 C137.654,592.584 137.042,593.052 137.042,593.664 C137.042,595.194 142.298,594.042 142.298,597.498 C142.298,599.046 141.02,600.216 138.68,600.216 Z M138.68,600.216" id="Competitors" fill="#FFFFFF"></path>
        <path d="M168.166,600.216 C165.394,600.216 163.702,598.128 163.702,595.644 C163.702,593.142 165.394,591.09 168.166,591.09 C170.938,591.09 172.63,593.142 172.63,595.644 C172.63,598.128 170.938,600.216 168.166,600.216 Z M188.83,600.216 C186.058,600.216 184.366,598.128 184.366,595.644 C184.366,593.142 186.058,591.09 188.83,591.09 C191.602,591.09 193.294,593.142 193.294,595.644 C193.294,598.128 191.602,600.216 188.83,600.216 Z M178.498,600.216 C175.726,600.216 174.034,598.128 174.034,595.644 C174.034,593.142 175.726,591.09 178.498,591.09 C181.27,591.09 182.962,593.142 182.962,595.644 C182.962,598.128 181.27,600.216 178.498,600.216 Z M188.83,598.542 C190.45,598.542 191.332,597.192 191.332,595.644 C191.332,594.114 190.45,592.764 188.83,592.764 C187.228,592.764 186.328,594.114 186.328,595.644 C186.328,597.192 187.228,598.542 188.83,598.542 Z M168.166,598.542 C169.786,598.542 170.668,597.192 170.668,595.644 C170.668,594.114 169.786,592.764 168.166,592.764 C166.564,592.764 165.664,594.114 165.664,595.644 C165.664,597.192 166.564,598.542 168.166,598.542 Z M205.894,600 L205.894,594.33 C205.894,593.394 205.48,592.764 204.454,592.764 C203.608,592.764 202.816,593.34 202.438,593.916 L202.438,600 L200.548,600 L200.548,594.33 C200.548,593.394 200.152,592.764 199.126,592.764 C198.28,592.764 197.506,593.358 197.11,593.916 L197.11,600 L195.22,600 L195.22,591.306 L197.11,591.306 L197.11,592.476 C197.488,591.954 198.622,591.09 199.954,591.09 C201.25,591.09 202.042,591.738 202.33,592.674 C202.816,591.9 203.968,591.09 205.282,591.09 C206.866,591.09 207.784,591.954 207.784,593.718 L207.784,600 Z M178.498,598.542 C180.118,598.542 181,597.192 181,595.644 C181,594.114 180.118,592.764 178.498,592.764 C176.896,592.764 175.996,594.114 175.996,595.644 C175.996,597.192 176.896,598.542 178.498,598.542 Z M210.7,600 L210.7,592.944 L209.26,592.944 L209.26,591.306 L210.7,591.306 L210.7,590.82 C210.7,588.93 211.798,587.814 213.436,587.814 C214.228,587.814 215.002,588.012 215.524,588.57 L214.786,589.74 C214.534,589.506 214.21,589.362 213.796,589.362 C213.04,589.362 212.59,589.848 212.59,590.82 L212.59,591.306 L214.354,591.306 L214.354,592.944 L212.59,592.944 L212.59,600 Z M210.7,600" id="ooomf" fill="#FFFFFF"></path>
        <path d="M174.872,306 L174.872,294.384 L172.208,297.096 L170.264,295.056 L175.304,289.992 L178.28,289.992 L178.28,306 Z M187.304,306.288 C182.72,306.288 180.68,302.136 180.68,298.008 C180.68,293.88 182.72,289.752 187.304,289.752 C191.888,289.752 193.928,293.88 193.928,298.008 C193.928,302.136 191.888,306.288 187.304,306.288 Z M187.304,303.264 C189.584,303.264 190.448,300.96 190.448,298.008 C190.448,295.056 189.608,292.776 187.304,292.776 C185.024,292.776 184.16,295.056 184.16,298.008 C184.16,300.96 185.024,303.264 187.304,303.264 Z M206.84,306 L203.432,306 L200.792,302.088 L198.128,306 L194.744,306 L198.872,300.048 L194.984,294.408 L198.392,294.408 L200.792,297.96 L203.168,294.408 L206.576,294.408 L202.712,300.048 Z M206.84,306" id="10x" fill="#FFFFFF"></path>
        <path d="M162.34,27 L162.34,25.2 C160.24,25.02 158.7,24.22 157.6,23.12 L159.16,20.9 C159.9,21.68 161,22.38 162.34,22.62 L162.34,19.52 C160.28,19.02 158.04,18.24 158.04,15.52 C158.04,13.5 159.64,11.78 162.34,11.5 L162.34,9.64 L164.22,9.64 L164.22,11.54 C165.84,11.72 167.22,12.32 168.3,13.32 L166.72,15.44 C166,14.78 165.12,14.36 164.22,14.14 L164.22,16.9 C166.3,17.42 168.62,18.22 168.62,20.96 C168.62,23.18 167.16,24.9 164.22,25.2 L164.22,27 Z M165.72,21.24 C165.72,20.58 165.1,20.26 164.22,19.98 L164.22,22.66 C165.24,22.46 165.72,21.88 165.72,21.24 Z M160.96,15.3 C160.96,15.88 161.52,16.18 162.34,16.44 L162.34,14.02 C161.46,14.14 160.96,14.62 160.96,15.3 Z M175.4,25.24 C173.08,25.24 171.4,24.48 170.26,23.24 L171.84,21.26 C172.74,22.2 173.98,22.72 175.38,22.72 C176.96,22.72 177.86,21.82 177.86,20.74 C177.86,19.56 176.98,18.76 175.46,18.76 C174.36,18.76 173.46,19.08 172.66,19.84 L170.68,19.3 L170.68,11.66 L179.84,11.66 L179.84,14.16 L173.52,14.16 L173.52,17.42 C174.16,16.78 175.24,16.3 176.46,16.3 C178.72,16.3 180.74,17.92 180.74,20.62 C180.74,23.44 178.62,25.24 175.4,25.24 Z M187.64,25.24 C183.82,25.24 182.12,21.78 182.12,18.34 C182.12,14.9 183.82,11.46 187.64,11.46 C191.46,11.46 193.16,14.9 193.16,18.34 C193.16,21.78 191.46,25.24 187.64,25.24 Z M187.64,22.72 C189.54,22.72 190.26,20.8 190.26,18.34 C190.26,15.88 189.56,13.98 187.64,13.98 C185.74,13.98 185.02,15.88 185.02,18.34 C185.02,20.8 185.74,22.72 187.64,22.72 Z M200.04,25.24 C196.22,25.24 194.52,21.78 194.52,18.34 C194.52,14.9 196.22,11.46 200.04,11.46 C203.86,11.46 205.56,14.9 205.56,18.34 C205.56,21.78 203.86,25.24 200.04,25.24 Z M200.04,22.72 C201.94,22.72 202.66,20.8 202.66,18.34 C202.66,15.88 201.96,13.98 200.04,13.98 C198.14,13.98 197.42,15.88 197.42,18.34 C197.42,20.8 198.14,22.72 200.04,22.72 Z M212.44,25.24 C208.62,25.24 206.92,21.78 206.92,18.34 C206.92,14.9 208.62,11.46 212.44,11.46 C216.26,11.46 217.96,14.9 217.96,18.34 C217.96,21.78 216.26,25.24 212.44,25.24 Z M212.44,22.72 C214.34,22.72 215.06,20.8 215.06,18.34 C215.06,15.88 214.36,13.98 212.44,13.98 C210.54,13.98 209.82,15.88 209.82,18.34 C209.82,20.8 210.54,22.72 212.44,22.72 Z M212.44,22.72" id="$5000" fill="#FFFFFF"></path>
    </g>
</svg>