<?xml version="1.0" encoding="UTF-8" standalone="no"?>
<svg width="723px" height="353px" viewBox="0 0 723 353" version="1.1" xmlns="http://www.w3.org/2000/svg" xmlns:xlink="http://www.w3.org/1999/xlink" xmlns:sketch="http://www.bohemiancoding.com/sketch/ns">
    <title>Graph</title>
    <description>Created with Sketch (http://www.bohemiancoding.com/sketch)</description>
    <defs></defs>
    <g id="Page 1" stroke="none" stroke-width="1" fill="none" fill-rule="evenodd">
        <g id="Graph 3" transform="translate(48.000000, 6.000000)">
            <path d="M55,197 C69.3594042,197 81,185.359404 81,171 C81,156.640596 69.3594042,145 55,145 C40.6405958,145 29,156.640596 29,171 C29,185.359404 40.6405958,197 55,197 Z M55,197" id="Oval 1" fill="#2FADD8"></path>
            <path d="M206,251 C250.182782,251 286,215.182782 286,171 C286,126.817218 250.182782,91 206,91 C161.817218,91 126,126.817218 126,171 C126,215.182782 161.817218,251 206,251 Z M206,251" id="Oval 1 copy" fill-opacity="0.5" fill="#2FADD8"></path>
            <path d="M502,342 C596.440697,342 673,265.440697 673,171 C673,76.5593031 596.440697,0 502,0 C407.559303,0 331,76.5593031 331,171 C331,265.440697 407.559303,342 502,342 Z M502,342" id="Oval 1 copy 2" fill-opacity="0.2" fill="#2FADD8"></path>
            <path d="M425.552,246.499968 L425.552,241.619968 C425.552,240.899968 425.232,240.387968 424.4,240.387968 C423.68,240.387968 423.088,240.867968 422.8,241.283968 L422.8,246.499968 L420.752,246.499968 L420.752,241.619968 C420.752,240.899968 420.432,240.387968 419.6,240.387968 C418.896,240.387968 418.304,240.867968 418,241.283968 L418,246.499968 L415.968,246.499968 L415.968,238.771968 L418,238.771968 L418,239.763968 C418.336,239.315968 419.344,238.579968 420.528,238.579968 C421.664,238.579968 422.4,239.107968 422.672,239.971968 C423.12,239.283968 424.144,238.579968 425.328,238.579968 C426.752,238.579968 427.6,239.331968 427.6,240.915968 L427.6,246.499968 Z M414.672,248.691968 L413.408,249.683968 C411.84,247.939968 410.864,245.187968 410.864,242.611968 C410.864,240.035968 411.84,237.283968 413.408,235.539968 L414.672,236.499968 C413.6,238.451968 413.056,240.211968 413.056,242.611968 C413.056,244.995968 413.6,246.771968 414.672,248.691968 Z M434.256,246.499968 L434.256,245.683968 C433.728,246.323968 432.816,246.691968 431.808,246.691968 C430.576,246.691968 429.136,245.859968 429.136,244.131968 C429.136,242.307968 430.576,241.635968 431.808,241.635968 C432.848,241.635968 433.744,241.971968 434.256,242.579968 L434.256,241.603968 C434.256,240.819968 433.584,240.307968 432.56,240.307968 C431.744,240.307968 430.976,240.627968 430.336,241.219968 L429.536,239.795968 C430.48,238.947968 431.696,238.579968 432.912,238.579968 C434.688,238.579968 436.304,239.283968 436.304,241.507968 L436.304,246.499968 Z M432.624,245.315968 C433.28,245.315968 433.92,245.091968 434.256,244.643968 L434.256,243.683968 C433.92,243.235968 433.28,242.995968 432.624,242.995968 C431.824,242.995968 431.168,243.427968 431.168,244.163968 C431.168,244.899968 431.824,245.315968 432.624,245.315968 Z M443.52,246.499968 L443.52,241.827968 C443.52,240.755968 442.96,240.387968 442.096,240.387968 C441.296,240.387968 440.688,240.835968 440.336,241.283968 L440.336,246.499968 L438.304,246.499968 L438.304,238.771968 L440.336,238.771968 L440.336,239.763968 C440.832,239.187968 441.792,238.579968 443.04,238.579968 C444.752,238.579968 445.568,239.539968 445.568,241.043968 L445.568,246.499968 Z M452.784,246.499968 L452.784,245.523968 C452.256,246.099968 451.328,246.691968 450.064,246.691968 C448.368,246.691968 447.568,245.763968 447.568,244.259968 L447.568,238.771968 L449.6,238.771968 L449.6,243.459968 C449.6,244.531968 450.16,244.883968 451.024,244.883968 C451.808,244.883968 452.432,244.451968 452.784,244.003968 L452.784,238.771968 L454.816,238.771968 L454.816,246.499968 Z M457.296,246.499968 L457.296,240.547968 L456.016,240.547968 L456.016,238.771968 L457.296,238.771968 L457.296,238.451968 C457.296,236.707968 458.336,235.667968 459.888,235.667968 C460.64,235.667968 461.44,235.875968 461.904,236.403968 L461.136,237.635968 C460.928,237.443968 460.656,237.331968 460.288,237.331968 C459.712,237.331968 459.328,237.699968 459.328,238.451968 L459.328,238.771968 L460.896,238.771968 L460.896,240.547968 L459.328,240.547968 L459.328,246.499968 Z M466.704,246.499968 L466.704,245.683968 C466.176,246.323968 465.264,246.691968 464.256,246.691968 C463.024,246.691968 461.584,245.859968 461.584,244.131968 C461.584,242.307968 463.024,241.635968 464.256,241.635968 C465.296,241.635968 466.192,241.971968 466.704,242.579968 L466.704,241.603968 C466.704,240.819968 466.032,240.307968 465.008,240.307968 C464.192,240.307968 463.424,240.627968 462.784,241.219968 L461.984,239.795968 C462.928,238.947968 464.144,238.579968 465.36,238.579968 C467.136,238.579968 468.752,239.283968 468.752,241.507968 L468.752,246.499968 Z M465.072,245.315968 C465.728,245.315968 466.368,245.091968 466.704,244.643968 L466.704,243.683968 C466.368,243.235968 465.728,242.995968 465.072,242.995968 C464.272,242.995968 463.616,243.427968 463.616,244.163968 C463.616,244.899968 464.272,245.315968 465.072,245.315968 Z M474.352,246.691968 C471.984,246.691968 470.256,245.011968 470.256,242.627968 C470.256,240.259968 471.984,238.579968 474.352,238.579968 C475.936,238.579968 476.896,239.267968 477.408,239.971968 L476.08,241.219968 C475.712,240.675968 475.152,240.387968 474.448,240.387968 C473.216,240.387968 472.352,241.283968 472.352,242.627968 C472.352,243.971968 473.216,244.883968 474.448,244.883968 C475.152,244.883968 475.712,244.563968 476.08,244.035968 L477.408,245.283968 C476.896,245.987968 475.936,246.691968 474.352,246.691968 Z M481.328,246.691968 C479.904,246.691968 479.152,245.955968 479.152,244.563968 L479.152,240.547968 L477.872,240.547968 L477.872,238.771968 L479.152,238.771968 L479.152,236.659968 L481.184,236.659968 L481.184,238.771968 L482.752,238.771968 L482.752,240.547968 L481.184,240.547968 L481.184,244.019968 C481.184,244.515968 481.44,244.883968 481.888,244.883968 C482.192,244.883968 482.48,244.771968 482.592,244.643968 L483.024,246.195968 C482.72,246.467968 482.176,246.691968 481.328,246.691968 Z M489.36,246.499968 L489.36,245.523968 C488.832,246.099968 487.904,246.691968 486.64,246.691968 C484.944,246.691968 484.144,245.763968 484.144,244.259968 L484.144,238.771968 L486.176,238.771968 L486.176,243.459968 C486.176,244.531968 486.736,244.883968 487.6,244.883968 C488.384,244.883968 489.008,244.451968 489.36,244.003968 L489.36,238.771968 L491.392,238.771968 L491.392,246.499968 Z M493.408,246.499968 L493.408,238.771968 L495.44,238.771968 L495.44,239.811968 C496,239.139968 496.944,238.579968 497.904,238.579968 L497.904,240.563968 C497.76,240.531968 497.584,240.515968 497.344,240.515968 C496.672,240.515968 495.776,240.899968 495.44,241.395968 L495.44,246.499968 Z M500.176,237.939968 C499.52,237.939968 498.976,237.395968 498.976,236.723968 C498.976,236.051968 499.52,235.523968 500.176,235.523968 C500.848,235.523968 501.392,236.051968 501.392,236.723968 C501.392,237.395968 500.848,237.939968 500.176,237.939968 Z M499.168,246.499968 L499.168,238.771968 L501.2,238.771968 L501.2,246.499968 Z M508.432,246.499968 L508.432,241.827968 C508.432,240.755968 507.872,240.387968 507.008,240.387968 C506.208,240.387968 505.6,240.835968 505.248,241.283968 L505.248,246.499968 L503.216,246.499968 L503.216,238.771968 L505.248,238.771968 L505.248,239.763968 C505.744,239.187968 506.704,238.579968 507.952,238.579968 C509.664,238.579968 510.48,239.539968 510.48,241.043968 L510.48,246.499968 Z M515.648,249.635968 C514.336,249.635968 513.296,249.331968 512.32,248.483968 L513.232,247.027968 C513.856,247.699968 514.688,247.971968 515.648,247.971968 C516.624,247.971968 517.792,247.555968 517.792,245.987968 L517.792,245.235968 C517.184,246.003968 516.352,246.435968 515.392,246.435968 C513.472,246.435968 511.984,245.091968 511.984,242.515968 C511.984,239.987968 513.44,238.579968 515.392,238.579968 C516.32,238.579968 517.168,238.963968 517.792,239.763968 L517.792,238.771968 L519.824,238.771968 L519.824,245.987968 C519.824,248.915968 517.552,249.635968 515.648,249.635968 Z M516.048,244.643968 C516.704,244.643968 517.44,244.259968 517.792,243.763968 L517.792,241.251968 C517.44,240.755968 516.704,240.387968 516.048,240.387968 C514.88,240.387968 514.08,241.187968 514.08,242.515968 C514.08,243.843968 514.88,244.643968 516.048,244.643968 Z M531.264,246.499968 L531.264,245.507968 C530.656,246.275968 529.824,246.691968 528.88,246.691968 C526.944,246.691968 525.456,245.219968 525.456,242.627968 C525.456,240.115968 526.912,238.579968 528.88,238.579968 C529.792,238.579968 530.656,238.963968 531.264,239.763968 L531.264,235.827968 L533.312,235.827968 L533.312,246.499968 Z M529.52,244.883968 C530.192,244.883968 530.928,244.515968 531.264,244.003968 L531.264,241.267968 C530.928,240.755968 530.192,240.387968 529.52,240.387968 C528.352,240.387968 527.552,241.299968 527.552,242.627968 C527.552,243.971968 528.352,244.883968 529.52,244.883968 Z M538.96,246.691968 C536.608,246.691968 534.832,245.107968 534.832,242.627968 C534.832,240.387968 536.496,238.579968 538.832,238.579968 C541.152,238.579968 542.704,240.307968 542.704,242.819968 L542.704,243.299968 L536.96,243.299968 C537.104,244.243968 537.872,245.027968 539.184,245.027968 C539.84,245.027968 540.736,244.755968 541.232,244.275968 L542.144,245.619968 C541.376,246.323968 540.16,246.691968 538.96,246.691968 Z M540.752,241.891968 C540.688,241.155968 540.176,240.243968 538.832,240.243968 C537.568,240.243968 537.024,241.123968 536.944,241.891968 Z M546.96,246.691968 C545.616,246.691968 544.32,246.243968 543.504,245.491968 L544.384,244.019968 C544.96,244.563968 546.096,245.091968 547.056,245.091968 C547.936,245.091968 548.352,244.755968 548.352,244.275968 C548.352,243.011968 543.776,244.051968 543.776,241.011968 C543.776,239.715968 544.896,238.579968 546.944,238.579968 C548.24,238.579968 549.28,239.027968 550.048,239.635968 L549.232,241.075968 C548.768,240.595968 547.888,240.179968 546.944,240.179968 C546.208,240.179968 545.728,240.499968 545.728,240.931968 C545.728,242.067968 550.32,241.107968 550.32,244.227968 C550.32,245.651968 549.104,246.691968 546.96,246.691968 Z M552.816,237.939968 C552.16,237.939968 551.616,237.395968 551.616,236.723968 C551.616,236.051968 552.16,235.523968 552.816,235.523968 C553.488,235.523968 554.032,236.051968 554.032,236.723968 C554.032,237.395968 553.488,237.939968 552.816,237.939968 Z M551.808,246.499968 L551.808,238.771968 L553.84,238.771968 L553.84,246.499968 Z M559.024,249.635968 C557.712,249.635968 556.672,249.331968 555.696,248.483968 L556.608,247.027968 C557.232,247.699968 558.064,247.971968 559.024,247.971968 C560,247.971968 561.168,247.555968 561.168,245.987968 L561.168,245.235968 C560.56,246.003968 559.728,246.435968 558.768,246.435968 C556.848,246.435968 555.36,245.091968 555.36,242.515968 C555.36,239.987968 556.816,238.579968 558.768,238.579968 C559.696,238.579968 560.544,238.963968 561.168,239.763968 L561.168,238.771968 L563.2,238.771968 L563.2,245.987968 C563.2,248.915968 560.928,249.635968 559.024,249.635968 Z M559.424,244.643968 C560.08,244.643968 560.816,244.259968 561.168,243.763968 L561.168,241.251968 C560.816,240.755968 560.08,240.387968 559.424,240.387968 C558.256,240.387968 557.456,241.187968 557.456,242.515968 C557.456,243.843968 558.256,244.643968 559.424,244.643968 Z M570.432,246.499968 L570.432,241.827968 C570.432,240.755968 569.872,240.387968 569.008,240.387968 C568.208,240.387968 567.6,240.835968 567.248,241.283968 L567.248,246.499968 L565.216,246.499968 L565.216,238.771968 L567.248,238.771968 L567.248,239.763968 C567.744,239.187968 568.704,238.579968 569.952,238.579968 C571.664,238.579968 572.48,239.539968 572.48,241.043968 L572.48,246.499968 Z M578.112,246.691968 C575.76,246.691968 573.984,245.107968 573.984,242.627968 C573.984,240.387968 575.648,238.579968 577.984,238.579968 C580.304,238.579968 581.856,240.307968 581.856,242.819968 L581.856,243.299968 L576.112,243.299968 C576.256,244.243968 577.024,245.027968 578.336,245.027968 C578.992,245.027968 579.888,244.755968 580.384,244.275968 L581.296,245.619968 C580.528,246.323968 579.312,246.691968 578.112,246.691968 Z M579.904,241.891968 C579.84,241.155968 579.328,240.243968 577.984,240.243968 C576.72,240.243968 576.176,241.123968 576.096,241.891968 Z M583.328,246.499968 L583.328,238.771968 L585.36,238.771968 L585.36,239.811968 C585.92,239.139968 586.864,238.579968 587.824,238.579968 L587.824,240.563968 C587.68,240.531968 587.504,240.515968 587.264,240.515968 C586.592,240.515968 585.696,240.899968 585.36,241.395968 L585.36,246.499968 Z M591.872,246.691968 C590.528,246.691968 589.232,246.243968 588.416,245.491968 L589.296,244.019968 C589.872,244.563968 591.008,245.091968 591.968,245.091968 C592.848,245.091968 593.264,244.755968 593.264,244.275968 C593.264,243.011968 588.688,244.051968 588.688,241.011968 C588.688,239.715968 589.808,238.579968 591.856,238.579968 C593.152,238.579968 594.192,239.027968 594.96,239.635968 L594.144,241.075968 C593.68,240.595968 592.8,240.179968 591.856,240.179968 C591.12,240.179968 590.64,240.499968 590.64,240.931968 C590.64,242.067968 595.232,241.107968 595.232,244.227968 C595.232,245.651968 594.016,246.691968 591.872,246.691968 Z M599.152,245.715968 C599.152,246.915968 598.496,247.987968 597.504,248.691968 L596.624,247.971968 C597.136,247.699968 597.728,247.027968 597.856,246.467968 C597.808,246.483968 597.68,246.515968 597.552,246.515968 C596.944,246.515968 596.464,246.035968 596.464,245.363968 C596.464,244.659968 597.04,244.083968 597.728,244.083968 C598.48,244.083968 599.152,244.675968 599.152,245.715968 Z M434.44,265.499968 L434.44,264.683968 C433.912,265.323968 433,265.691968 431.992,265.691968 C430.76,265.691968 429.32,264.859968 429.32,263.131968 C429.32,261.307968 430.76,260.635968 431.992,260.635968 C433.032,260.635968 433.928,260.971968 434.44,261.579968 L434.44,260.603968 C434.44,259.819968 433.768,259.307968 432.744,259.307968 C431.928,259.307968 431.16,259.627968 430.52,260.219968 L429.72,258.795968 C430.664,257.947968 431.88,257.579968 433.096,257.579968 C434.872,257.579968 436.488,258.283968 436.488,260.507968 L436.488,265.499968 Z M432.808,264.315968 C433.464,264.315968 434.104,264.091968 434.44,263.643968 L434.44,262.683968 C434.104,262.235968 433.464,261.995968 432.808,261.995968 C432.008,261.995968 431.352,262.427968 431.352,263.163968 C431.352,263.899968 432.008,264.315968 432.808,264.315968 Z M438.488,265.499968 L438.488,257.771968 L440.52,257.771968 L440.52,258.811968 C441.08,258.139968 442.024,257.579968 442.984,257.579968 L442.984,259.563968 C442.84,259.531968 442.664,259.515968 442.424,259.515968 C441.752,259.515968 440.856,259.899968 440.52,260.395968 L440.52,265.499968 Z M447.848,265.691968 C445.48,265.691968 443.752,264.011968 443.752,261.627968 C443.752,259.259968 445.48,257.579968 447.848,257.579968 C449.432,257.579968 450.392,258.267968 450.904,258.971968 L449.576,260.219968 C449.208,259.675968 448.648,259.387968 447.944,259.387968 C446.712,259.387968 445.848,260.283968 445.848,261.627968 C445.848,262.971968 446.712,263.883968 447.944,263.883968 C448.648,263.883968 449.208,263.563968 449.576,263.035968 L450.904,264.283968 C450.392,264.987968 449.432,265.691968 447.848,265.691968 Z M457.464,265.499968 L457.464,260.795968 C457.464,259.723968 456.904,259.387968 456.04,259.387968 C455.24,259.387968 454.616,259.835968 454.28,260.283968 L454.28,265.499968 L452.232,265.499968 L452.232,254.827968 L454.28,254.827968 L454.28,258.763968 C454.776,258.187968 455.72,257.579968 456.984,257.579968 C458.68,257.579968 459.496,258.507968 459.496,260.011968 L459.496,265.499968 Z M462.52,256.939968 C461.864,256.939968 461.32,256.395968 461.32,255.723968 C461.32,255.051968 461.864,254.523968 462.52,254.523968 C463.192,254.523968 463.736,255.051968 463.736,255.723968 C463.736,256.395968 463.192,256.939968 462.52,256.939968 Z M461.512,265.499968 L461.512,257.771968 L463.544,257.771968 L463.544,265.499968 Z M468.152,265.691968 C466.728,265.691968 465.976,264.955968 465.976,263.563968 L465.976,259.547968 L464.696,259.547968 L464.696,257.771968 L465.976,257.771968 L465.976,255.659968 L468.008,255.659968 L468.008,257.771968 L469.576,257.771968 L469.576,259.547968 L468.008,259.547968 L468.008,263.019968 C468.008,263.515968 468.264,263.883968 468.712,263.883968 C469.016,263.883968 469.304,263.771968 469.416,263.643968 L469.848,265.195968 C469.544,265.467968 469,265.691968 468.152,265.691968 Z M474.6,265.691968 C472.248,265.691968 470.472,264.107968 470.472,261.627968 C470.472,259.387968 472.136,257.579968 474.472,257.579968 C476.792,257.579968 478.344,259.307968 478.344,261.819968 L478.344,262.299968 L472.6,262.299968 C472.744,263.243968 473.512,264.027968 474.824,264.027968 C475.48,264.027968 476.376,263.755968 476.872,263.275968 L477.784,264.619968 C477.016,265.323968 475.8,265.691968 474.6,265.691968 Z M476.392,260.891968 C476.328,260.155968 475.816,259.243968 474.472,259.243968 C473.208,259.243968 472.664,260.123968 472.584,260.891968 Z M483.416,265.691968 C481.048,265.691968 479.32,264.011968 479.32,261.627968 C479.32,259.259968 481.048,257.579968 483.416,257.579968 C485,257.579968 485.96,258.267968 486.472,258.971968 L485.144,260.219968 C484.776,259.675968 484.216,259.387968 483.512,259.387968 C482.28,259.387968 481.416,260.283968 481.416,261.627968 C481.416,262.971968 482.28,263.883968 483.512,263.883968 C484.216,263.883968 484.776,263.563968 485.144,263.035968 L486.472,264.283968 C485.96,264.987968 485,265.691968 483.416,265.691968 Z M490.392,265.691968 C488.968,265.691968 488.216,264.955968 488.216,263.563968 L488.216,259.547968 L486.936,259.547968 L486.936,257.771968 L488.216,257.771968 L488.216,255.659968 L490.248,255.659968 L490.248,257.771968 L491.816,257.771968 L491.816,259.547968 L490.248,259.547968 L490.248,263.019968 C490.248,263.515968 490.504,263.883968 490.952,263.883968 C491.256,263.883968 491.544,263.771968 491.656,263.643968 L492.088,265.195968 C491.784,265.467968 491.24,265.691968 490.392,265.691968 Z M495.992,265.691968 C494.648,265.691968 493.352,265.243968 492.536,264.491968 L493.416,263.019968 C493.992,263.563968 495.128,264.091968 496.088,264.091968 C496.968,264.091968 497.384,263.755968 497.384,263.275968 C497.384,262.011968 492.808,263.051968 492.808,260.011968 C492.808,258.715968 493.928,257.579968 495.976,257.579968 C497.272,257.579968 498.312,258.027968 499.08,258.635968 L498.264,260.075968 C497.8,259.595968 496.92,259.179968 495.976,259.179968 C495.24,259.179968 494.76,259.499968 494.76,259.931968 C494.76,261.067968 499.352,260.107968 499.352,263.227968 C499.352,264.651968 498.136,265.691968 495.992,265.691968 Z M503.272,264.715968 C503.272,265.915968 502.616,266.987968 501.624,267.691968 L500.744,266.971968 C501.256,266.699968 501.848,266.027968 501.976,265.467968 C501.928,265.483968 501.8,265.515968 501.672,265.515968 C501.064,265.515968 500.584,265.035968 500.584,264.363968 C500.584,263.659968 501.16,263.083968 501.848,263.083968 C502.6,263.083968 503.272,263.675968 503.272,264.715968 Z M513.672,265.499968 L513.672,264.683968 C513.144,265.323968 512.232,265.691968 511.224,265.691968 C509.992,265.691968 508.552,264.859968 508.552,263.131968 C508.552,261.307968 509.992,260.635968 511.224,260.635968 C512.264,260.635968 513.16,260.971968 513.672,261.579968 L513.672,260.603968 C513.672,259.819968 513,259.307968 511.976,259.307968 C511.16,259.307968 510.392,259.627968 509.752,260.219968 L508.952,258.795968 C509.896,257.947968 511.112,257.579968 512.328,257.579968 C514.104,257.579968 515.72,258.283968 515.72,260.507968 L515.72,265.499968 Z M512.04,264.315968 C512.696,264.315968 513.336,264.091968 513.672,263.643968 L513.672,262.683968 C513.336,262.235968 512.696,261.995968 512.04,261.995968 C511.24,261.995968 510.584,262.427968 510.584,263.163968 C510.584,263.899968 511.24,264.315968 512.04,264.315968 Z M520.312,265.691968 C518.888,265.691968 518.136,264.955968 518.136,263.563968 L518.136,259.547968 L516.856,259.547968 L516.856,257.771968 L518.136,257.771968 L518.136,255.659968 L520.168,255.659968 L520.168,257.771968 L521.736,257.771968 L521.736,259.547968 L520.168,259.547968 L520.168,263.019968 C520.168,263.515968 520.424,263.883968 520.872,263.883968 C521.176,263.883968 521.464,263.771968 521.576,263.643968 L522.008,265.195968 C521.704,265.467968 521.16,265.691968 520.312,265.691968 Z M525.72,265.691968 C524.296,265.691968 523.544,264.955968 523.544,263.563968 L523.544,259.547968 L522.264,259.547968 L522.264,257.771968 L523.544,257.771968 L523.544,255.659968 L525.576,255.659968 L525.576,257.771968 L527.144,257.771968 L527.144,259.547968 L525.576,259.547968 L525.576,263.019968 C525.576,263.515968 525.832,263.883968 526.28,263.883968 C526.584,263.883968 526.872,263.771968 526.984,263.643968 L527.416,265.195968 C527.112,265.467968 526.568,265.691968 525.72,265.691968 Z M532.12,265.691968 C529.576,265.691968 528.04,263.819968 528.04,261.627968 C528.04,259.435968 529.576,257.579968 532.12,257.579968 C534.68,257.579968 536.216,259.435968 536.216,261.627968 C536.216,263.819968 534.68,265.691968 532.12,265.691968 Z M532.12,263.883968 C533.4,263.883968 534.104,262.843968 534.104,261.627968 C534.104,260.427968 533.4,259.387968 532.12,259.387968 C530.856,259.387968 530.152,260.427968 530.152,261.627968 C530.152,262.843968 530.856,263.883968 532.12,263.883968 Z M537.736,265.499968 L537.736,257.771968 L539.768,257.771968 L539.768,258.811968 C540.328,258.139968 541.272,257.579968 542.232,257.579968 L542.232,259.563968 C542.088,259.531968 541.912,259.515968 541.672,259.515968 C541,259.515968 540.104,259.899968 539.768,260.395968 L539.768,265.499968 Z M548.712,265.499968 L548.712,260.827968 C548.712,259.755968 548.152,259.387968 547.288,259.387968 C546.488,259.387968 545.88,259.835968 545.528,260.283968 L545.528,265.499968 L543.496,265.499968 L543.496,257.771968 L545.528,257.771968 L545.528,258.763968 C546.024,258.187968 546.984,257.579968 548.232,257.579968 C549.944,257.579968 550.76,258.539968 550.76,260.043968 L550.76,265.499968 Z M556.392,265.691968 C554.04,265.691968 552.264,264.107968 552.264,261.627968 C552.264,259.387968 553.928,257.579968 556.264,257.579968 C558.584,257.579968 560.136,259.307968 560.136,261.819968 L560.136,262.299968 L554.392,262.299968 C554.536,263.243968 555.304,264.027968 556.616,264.027968 C557.272,264.027968 558.168,263.755968 558.664,263.275968 L559.576,264.619968 C558.808,265.323968 557.592,265.691968 556.392,265.691968 Z M558.184,260.891968 C558.12,260.155968 557.608,259.243968 556.264,259.243968 C555,259.243968 554.456,260.123968 554.376,260.891968 Z M561.352,268.507968 L561.64,266.699968 C561.816,266.779968 562.088,266.827968 562.28,266.827968 C562.808,266.827968 563.16,266.683968 563.352,266.267968 L563.64,265.595968 L560.504,257.771968 L562.68,257.771968 L564.696,263.147968 L566.728,257.771968 L568.904,257.771968 L565.272,266.763968 C564.696,268.219968 563.672,268.603968 562.344,268.635968 C562.12,268.635968 561.592,268.587968 561.352,268.507968 Z M572.6,265.691968 C571.256,265.691968 569.96,265.243968 569.144,264.491968 L570.024,263.019968 C570.6,263.563968 571.736,264.091968 572.696,264.091968 C573.576,264.091968 573.992,263.755968 573.992,263.275968 C573.992,262.011968 569.416,263.051968 569.416,260.011968 C569.416,258.715968 570.536,257.579968 572.584,257.579968 C573.88,257.579968 574.92,258.027968 575.688,258.635968 L574.872,260.075968 C574.408,259.595968 573.528,259.179968 572.584,259.179968 C571.848,259.179968 571.368,259.499968 571.368,259.931968 C571.368,261.067968 575.96,260.107968 575.96,263.227968 C575.96,264.651968 574.744,265.691968 572.6,265.691968 Z M577.992,268.683968 L576.728,267.691968 C577.816,265.771968 578.344,263.995968 578.344,261.611968 C578.344,259.211968 577.816,257.451968 576.728,255.499968 L577.992,254.539968 C579.56,256.283968 580.552,259.035968 580.552,261.611968 C580.552,264.187968 579.56,266.939968 577.992,268.683968 Z M577.992,268.683968" id="All independent work" fill="#FFFFFF"></path>
            <path d="M436.512,196.999968 L433.936,196.999968 L433.264,195.191968 L428.688,195.191968 L428.016,196.999968 L425.44,196.999968 L429.552,186.327968 L432.4,186.327968 Z M432.64,193.191968 L430.976,188.599968 L429.312,193.191968 Z M437.456,196.999968 L437.456,186.327968 L439.488,186.327968 L439.488,196.999968 Z M441.504,196.999968 L441.504,186.327968 L443.536,186.327968 L443.536,196.999968 Z M450.672,188.439968 C450.016,188.439968 449.472,187.895968 449.472,187.223968 C449.472,186.551968 450.016,186.023968 450.672,186.023968 C451.344,186.023968 451.888,186.551968 451.888,187.223968 C451.888,187.895968 451.344,188.439968 450.672,188.439968 Z M449.664,196.999968 L449.664,189.271968 L451.696,189.271968 L451.696,196.999968 Z M458.928,196.999968 L458.928,192.327968 C458.928,191.255968 458.368,190.887968 457.504,190.887968 C456.704,190.887968 456.096,191.335968 455.744,191.783968 L455.744,196.999968 L453.712,196.999968 L453.712,189.271968 L455.744,189.271968 L455.744,190.263968 C456.24,189.687968 457.2,189.079968 458.448,189.079968 C460.16,189.079968 460.976,190.039968 460.976,191.543968 L460.976,196.999968 Z M468.288,196.999968 L468.288,196.007968 C467.68,196.775968 466.848,197.191968 465.904,197.191968 C463.968,197.191968 462.48,195.719968 462.48,193.127968 C462.48,190.615968 463.936,189.079968 465.904,189.079968 C466.816,189.079968 467.68,189.463968 468.288,190.263968 L468.288,186.327968 L470.336,186.327968 L470.336,196.999968 Z M466.544,195.383968 C467.216,195.383968 467.952,195.015968 468.288,194.503968 L468.288,191.767968 C467.952,191.255968 467.216,190.887968 466.544,190.887968 C465.376,190.887968 464.576,191.799968 464.576,193.127968 C464.576,194.471968 465.376,195.383968 466.544,195.383968 Z M475.984,197.191968 C473.632,197.191968 471.856,195.607968 471.856,193.127968 C471.856,190.887968 473.52,189.079968 475.856,189.079968 C478.176,189.079968 479.728,190.807968 479.728,193.319968 L479.728,193.799968 L473.984,193.799968 C474.128,194.743968 474.896,195.527968 476.208,195.527968 C476.864,195.527968 477.76,195.255968 478.256,194.775968 L479.168,196.119968 C478.4,196.823968 477.184,197.191968 475.984,197.191968 Z M477.776,192.391968 C477.712,191.655968 477.2,190.743968 475.856,190.743968 C474.592,190.743968 474.048,191.623968 473.968,192.391968 Z M485.616,197.191968 C484.704,197.191968 483.872,196.807968 483.232,196.007968 L483.232,199.943968 L481.2,199.943968 L481.2,189.271968 L483.232,189.271968 L483.232,190.247968 C483.824,189.495968 484.672,189.079968 485.616,189.079968 C487.6,189.079968 489.04,190.551968 489.04,193.127968 C489.04,195.703968 487.6,197.191968 485.616,197.191968 Z M484.976,195.383968 C486.144,195.383968 486.944,194.471968 486.944,193.127968 C486.944,191.799968 486.144,190.887968 484.976,190.887968 C484.32,190.887968 483.584,191.255968 483.232,191.767968 L483.232,194.487968 C483.568,194.983968 484.32,195.383968 484.976,195.383968 Z M494.16,197.191968 C491.808,197.191968 490.032,195.607968 490.032,193.127968 C490.032,190.887968 491.696,189.079968 494.032,189.079968 C496.352,189.079968 497.904,190.807968 497.904,193.319968 L497.904,193.799968 L492.16,193.799968 C492.304,194.743968 493.072,195.527968 494.384,195.527968 C495.04,195.527968 495.936,195.255968 496.432,194.775968 L497.344,196.119968 C496.576,196.823968 495.36,197.191968 494.16,197.191968 Z M495.952,192.391968 C495.888,191.655968 495.376,190.743968 494.032,190.743968 C492.768,190.743968 492.224,191.623968 492.144,192.391968 Z M504.592,196.999968 L504.592,192.327968 C504.592,191.255968 504.032,190.887968 503.168,190.887968 C502.368,190.887968 501.76,191.335968 501.408,191.783968 L501.408,196.999968 L499.376,196.999968 L499.376,189.271968 L501.408,189.271968 L501.408,190.263968 C501.904,189.687968 502.864,189.079968 504.112,189.079968 C505.824,189.079968 506.64,190.039968 506.64,191.543968 L506.64,196.999968 Z M513.952,196.999968 L513.952,196.007968 C513.344,196.775968 512.512,197.191968 511.568,197.191968 C509.632,197.191968 508.144,195.719968 508.144,193.127968 C508.144,190.615968 509.6,189.079968 511.568,189.079968 C512.48,189.079968 513.344,189.463968 513.952,190.263968 L513.952,186.327968 L516,186.327968 L516,196.999968 Z M512.208,195.383968 C512.88,195.383968 513.616,195.015968 513.952,194.503968 L513.952,191.767968 C513.616,191.255968 512.88,190.887968 512.208,190.887968 C511.04,190.887968 510.24,191.799968 510.24,193.127968 C510.24,194.471968 511.04,195.383968 512.208,195.383968 Z M521.648,197.191968 C519.296,197.191968 517.52,195.607968 517.52,193.127968 C517.52,190.887968 519.184,189.079968 521.52,189.079968 C523.84,189.079968 525.392,190.807968 525.392,193.319968 L525.392,193.799968 L519.648,193.799968 C519.792,194.743968 520.56,195.527968 521.872,195.527968 C522.528,195.527968 523.424,195.255968 523.92,194.775968 L524.832,196.119968 C524.064,196.823968 522.848,197.191968 521.648,197.191968 Z M523.44,192.391968 C523.376,191.655968 522.864,190.743968 521.52,190.743968 C520.256,190.743968 519.712,191.623968 519.632,192.391968 Z M532.08,196.999968 L532.08,192.327968 C532.08,191.255968 531.52,190.887968 530.656,190.887968 C529.856,190.887968 529.248,191.335968 528.896,191.783968 L528.896,196.999968 L526.864,196.999968 L526.864,189.271968 L528.896,189.271968 L528.896,190.263968 C529.392,189.687968 530.352,189.079968 531.6,189.079968 C533.312,189.079968 534.128,190.039968 534.128,191.543968 L534.128,196.999968 Z M538.72,197.191968 C537.296,197.191968 536.544,196.455968 536.544,195.063968 L536.544,191.047968 L535.264,191.047968 L535.264,189.271968 L536.544,189.271968 L536.544,187.159968 L538.576,187.159968 L538.576,189.271968 L540.144,189.271968 L540.144,191.047968 L538.576,191.047968 L538.576,194.519968 C538.576,195.015968 538.832,195.383968 539.28,195.383968 C539.584,195.383968 539.872,195.271968 539.984,195.143968 L540.416,196.695968 C540.112,196.967968 539.568,197.191968 538.72,197.191968 Z M552.432,196.999968 L550.8,191.735968 L549.168,196.999968 L546.992,196.999968 L544.64,189.271968 L546.752,189.271968 L548.192,194.471968 L549.888,189.271968 L551.696,189.271968 L553.392,194.471968 L554.832,189.271968 L556.96,189.271968 L554.608,196.999968 Z M561.552,197.191968 C559.008,197.191968 557.472,195.319968 557.472,193.127968 C557.472,190.935968 559.008,189.079968 561.552,189.079968 C564.112,189.079968 565.648,190.935968 565.648,193.127968 C565.648,195.319968 564.112,197.191968 561.552,197.191968 Z M561.552,195.383968 C562.832,195.383968 563.536,194.343968 563.536,193.127968 C563.536,191.927968 562.832,190.887968 561.552,190.887968 C560.288,190.887968 559.584,191.927968 559.584,193.127968 C559.584,194.343968 560.288,195.383968 561.552,195.383968 Z M567.168,196.999968 L567.168,189.271968 L569.2,189.271968 L569.2,190.311968 C569.76,189.639968 570.704,189.079968 571.664,189.079968 L571.664,191.063968 C571.52,191.031968 571.344,191.015968 571.104,191.015968 C570.432,191.015968 569.536,191.399968 569.2,191.895968 L569.2,196.999968 Z M580.48,196.999968 L577.936,196.999968 L575.888,194.023968 L574.96,195.015968 L574.96,196.999968 L572.928,196.999968 L572.928,186.327968 L574.96,186.327968 L574.96,192.711968 L577.888,189.271968 L580.384,189.271968 L577.328,192.775968 Z M485.256,216.191968 C482.712,216.191968 481.176,214.319968 481.176,212.127968 C481.176,209.935968 482.712,208.079968 485.256,208.079968 C487.816,208.079968 489.352,209.935968 489.352,212.127968 C489.352,214.319968 487.816,216.191968 485.256,216.191968 Z M485.256,214.383968 C486.536,214.383968 487.24,213.343968 487.24,212.127968 C487.24,210.927968 486.536,209.887968 485.256,209.887968 C483.992,209.887968 483.288,210.927968 483.288,212.127968 C483.288,213.343968 483.992,214.383968 485.256,214.383968 Z M496.088,215.999968 L496.088,211.327968 C496.088,210.255968 495.528,209.887968 494.664,209.887968 C493.864,209.887968 493.256,210.335968 492.904,210.783968 L492.904,215.999968 L490.872,215.999968 L490.872,208.271968 L492.904,208.271968 L492.904,209.263968 C493.4,208.687968 494.36,208.079968 495.608,208.079968 C497.32,208.079968 498.136,209.039968 498.136,210.543968 L498.136,215.999968 Z M500.136,215.999968 L500.136,205.327968 L502.168,205.327968 L502.168,215.999968 Z M505.192,207.439968 C504.536,207.439968 503.992,206.895968 503.992,206.223968 C503.992,205.551968 504.536,205.023968 505.192,205.023968 C505.864,205.023968 506.408,205.551968 506.408,206.223968 C506.408,206.895968 505.864,207.439968 505.192,207.439968 Z M504.184,215.999968 L504.184,208.271968 L506.216,208.271968 L506.216,215.999968 Z M513.448,215.999968 L513.448,211.327968 C513.448,210.255968 512.888,209.887968 512.024,209.887968 C511.224,209.887968 510.616,210.335968 510.264,210.783968 L510.264,215.999968 L508.232,215.999968 L508.232,208.271968 L510.264,208.271968 L510.264,209.263968 C510.76,208.687968 511.72,208.079968 512.968,208.079968 C514.68,208.079968 515.496,209.039968 515.496,210.543968 L515.496,215.999968 Z M521.128,216.191968 C518.776,216.191968 517,214.607968 517,212.127968 C517,209.887968 518.664,208.079968 521,208.079968 C523.32,208.079968 524.872,209.807968 524.872,212.319968 L524.872,212.799968 L519.128,212.799968 C519.272,213.743968 520.04,214.527968 521.352,214.527968 C522.008,214.527968 522.904,214.255968 523.4,213.775968 L524.312,215.119968 C523.544,215.823968 522.328,216.191968 521.128,216.191968 Z M522.92,211.391968 C522.856,210.655968 522.344,209.743968 521,209.743968 C519.736,209.743968 519.192,210.623968 519.112,211.391968 Z M522.92,211.391968" id="All independent work" fill="#FFFFFF"></path>
            <path d="M441.088,168.4 L441.088,162.64 C434.368,162.064 429.44,159.504 425.92,155.984 L430.912,148.88 C433.28,151.376 436.8,153.616 441.088,154.384 L441.088,144.464 C434.496,142.864 427.328,140.368 427.328,131.664 C427.328,125.2 432.448,119.696 441.088,118.8 L441.088,112.848 L447.104,112.848 L447.104,118.928 C452.288,119.504 456.704,121.424 460.16,124.624 L455.104,131.408 C452.8,129.296 449.984,127.952 447.104,127.248 L447.104,136.08 C453.76,137.744 461.184,140.304 461.184,149.072 C461.184,156.176 456.512,161.68 447.104,162.64 L447.104,168.4 Z M451.904,149.968 C451.904,147.856 449.92,146.832 447.104,145.936 L447.104,154.512 C450.368,153.872 451.904,152.016 451.904,149.968 Z M436.672,130.96 C436.672,132.816 438.464,133.776 441.088,134.608 L441.088,126.864 C438.272,127.248 436.672,128.784 436.672,130.96 Z M466.304,162 L466.304,154.832 C483.776,141.904 488.896,137.552 488.896,132.304 C488.896,128.528 485.504,126.736 481.984,126.736 C477.12,126.736 473.408,128.656 470.528,131.664 L465.344,125.648 C469.504,120.848 475.84,118.672 481.792,118.672 C490.944,118.672 498.112,123.792 498.112,132.304 C498.112,139.6 492.096,145.936 481.024,154 L498.432,154 L498.432,162 Z M521.536,162.768 C509.312,162.768 503.872,151.696 503.872,140.688 C503.872,129.68 509.312,118.672 521.536,118.672 C533.76,118.672 539.2,129.68 539.2,140.688 C539.2,151.696 533.76,162.768 521.536,162.768 Z M521.536,154.704 C527.616,154.704 529.92,148.56 529.92,140.688 C529.92,132.816 527.68,126.736 521.536,126.736 C515.456,126.736 513.152,132.816 513.152,140.688 C513.152,148.56 515.456,154.704 521.536,154.704 Z M545.6,162 L545.6,119.312 L568.064,119.312 C576.192,119.312 580.352,124.496 580.352,130.192 C580.352,135.504 577.024,139.152 572.992,139.984 C577.6,140.688 581.184,145.104 581.184,150.416 C581.184,156.88 576.96,162 568.768,162 Z M566.08,136.272 C569.152,136.272 571.072,134.544 571.072,131.792 C571.072,129.168 569.152,127.312 566.08,127.312 L554.688,127.312 L554.688,136.272 Z M566.464,154 C569.856,154 571.904,152.208 571.904,149.136 C571.904,146.448 569.984,144.272 566.464,144.272 L554.688,144.272 L554.688,154 Z M566.464,154" id="$20B" fill="#FFFFFF"></path>
            <path d="M166.824,181.999996 L166.824,173.759996 L163.56,181.999996 L162.76,181.999996 L159.48,173.759996 L159.48,181.999996 L157.608,181.999996 L157.608,171.327996 L160.248,171.327996 L163.16,178.655996 L166.056,171.327996 L168.696,171.327996 L168.696,181.999996 Z M174.424,182.191996 C171.96,182.191996 170.456,180.335996 170.456,178.127996 C170.456,175.903996 171.96,174.079996 174.424,174.079996 C176.888,174.079996 178.392,175.903996 178.392,178.127996 C178.392,180.335996 176.888,182.191996 174.424,182.191996 Z M174.424,180.703996 C175.864,180.703996 176.648,179.503996 176.648,178.127996 C176.648,176.767996 175.864,175.567996 174.424,175.567996 C173,175.567996 172.2,176.767996 172.2,178.127996 C172.2,179.503996 173,180.703996 174.424,180.703996 Z M181.784,179.679996 C182.168,180.255996 182.984,180.703996 183.784,180.703996 C185.112,180.703996 185.96,179.631996 185.96,178.127996 C185.96,176.639996 185.112,175.567996 183.784,175.567996 C182.984,175.567996 182.168,176.031996 181.784,176.607996 Z M180.104,181.999996 L180.104,171.327996 L181.784,171.327996 L181.784,175.343996 C182.408,174.511996 183.304,174.079996 184.264,174.079996 C186.264,174.079996 187.704,175.631996 187.704,178.127996 C187.704,180.687996 186.248,182.191996 184.264,182.191996 C183.272,182.191996 182.376,181.711996 181.784,180.943996 L181.784,181.999996 Z M190.248,173.327996 C189.672,173.327996 189.208,172.863996 189.208,172.287996 C189.208,171.711996 189.672,171.247996 190.248,171.247996 C190.824,171.247996 191.288,171.711996 191.288,172.287996 C191.288,172.863996 190.824,173.327996 190.248,173.327996 Z M189.4,181.999996 L189.4,174.271996 L191.08,174.271996 L191.08,181.999996 Z M193.256,181.999996 L193.256,171.327996 L194.936,171.327996 L194.936,181.999996 Z M200.696,182.191996 C198.36,182.191996 196.648,180.575996 196.648,178.127996 C196.648,175.887996 198.28,174.079996 200.568,174.079996 C202.888,174.079996 204.36,175.839996 204.36,178.271996 L204.36,178.687996 L198.408,178.687996 C198.536,179.839996 199.4,180.815996 200.856,180.815996 C201.624,180.815996 202.504,180.511996 203.064,179.951996 L203.832,181.055996 C203.048,181.791996 201.912,182.191996 200.696,182.191996 Z M202.744,177.487996 C202.696,176.575996 202.072,175.455996 200.552,175.455996 C199.128,175.455996 198.456,176.559996 198.392,177.487996 Z M216.904,181.999996 C216.648,181.759996 216.312,181.439996 215.96,181.071996 C215.16,181.743996 214.184,182.191996 212.968,182.191996 C211.08,182.191996 209.544,181.167996 209.544,179.151996 C209.544,177.503996 210.632,176.655996 211.864,176.031996 C211.416,175.231996 211.112,174.415996 211.112,173.679996 C211.112,172.255996 212.344,171.167996 214.008,171.167996 C215.448,171.167996 216.632,171.951996 216.632,173.343996 C216.632,174.959996 215.304,175.663996 213.976,176.303996 C214.344,176.815996 214.728,177.279996 215.032,177.631996 C215.384,178.063996 215.736,178.479996 216.088,178.863996 C216.6,178.095996 216.952,177.247996 217.144,176.623996 L218.504,177.247996 C218.136,178.111996 217.656,179.055996 217.032,179.903996 C217.672,180.575996 218.344,181.263996 219.112,181.999996 Z M213.192,180.847996 C213.88,180.847996 214.488,180.543996 215.032,180.095996 C214.488,179.519996 213.992,178.959996 213.72,178.607996 C213.32,178.143996 212.904,177.615996 212.536,177.087996 C211.832,177.551996 211.32,178.111996 211.32,179.007996 C211.32,180.175996 212.2,180.847996 213.192,180.847996 Z M212.792,173.727996 C212.792,174.207996 213,174.767996 213.32,175.327996 C214.328,174.847996 215.144,174.335996 215.144,173.439996 C215.144,172.783996 214.68,172.399996 214.072,172.399996 C213.368,172.399996 212.792,172.943996 212.792,173.727996 Z M232.808,181.999996 L230.744,174.111996 L228.664,181.999996 L226.664,181.999996 L223.624,171.327996 L225.704,171.327996 L227.784,179.535996 L229.992,171.327996 L231.48,171.327996 L233.688,179.535996 L235.768,171.327996 L237.864,171.327996 L234.808,181.999996 Z M241.992,182.191996 C239.656,182.191996 237.944,180.575996 237.944,178.127996 C237.944,175.887996 239.576,174.079996 241.864,174.079996 C244.184,174.079996 245.656,175.839996 245.656,178.271996 L245.656,178.687996 L239.704,178.687996 C239.832,179.839996 240.696,180.815996 242.152,180.815996 C242.92,180.815996 243.8,180.511996 244.36,179.951996 L245.128,181.055996 C244.344,181.791996 243.208,182.191996 241.992,182.191996 Z M244.04,177.487996 C243.992,176.575996 243.368,175.455996 241.848,175.455996 C240.424,175.455996 239.752,176.559996 239.688,177.487996 Z M249,179.679996 C249.384,180.255996 250.2,180.703996 251,180.703996 C252.328,180.703996 253.176,179.631996 253.176,178.127996 C253.176,176.639996 252.328,175.567996 251,175.567996 C250.2,175.567996 249.384,176.031996 249,176.607996 Z M247.32,181.999996 L247.32,171.327996 L249,171.327996 L249,175.343996 C249.624,174.511996 250.52,174.079996 251.48,174.079996 C253.48,174.079996 254.92,175.631996 254.92,178.127996 C254.92,180.687996 253.464,182.191996 251.48,182.191996 C250.488,182.191996 249.592,181.711996 249,180.943996 L249,181.999996 Z M161.64,201.191996 C159.304,201.191996 157.656,199.463996 157.656,197.127996 C157.656,194.791996 159.304,193.079996 161.64,193.079996 C163.16,193.079996 164.056,193.719996 164.6,194.455996 L163.496,195.463996 C163.064,194.855996 162.472,194.567996 161.72,194.567996 C160.328,194.567996 159.384,195.623996 159.384,197.127996 C159.384,198.631996 160.328,199.703996 161.72,199.703996 C162.472,199.703996 163.064,199.383996 163.496,198.775996 L164.6,199.815996 C164.056,200.535996 163.16,201.191996 161.64,201.191996 Z M169.592,201.191996 C167.128,201.191996 165.624,199.335996 165.624,197.127996 C165.624,194.903996 167.128,193.079996 169.592,193.079996 C172.056,193.079996 173.56,194.903996 173.56,197.127996 C173.56,199.335996 172.056,201.191996 169.592,201.191996 Z M169.592,199.703996 C171.032,199.703996 171.816,198.503996 171.816,197.127996 C171.816,195.767996 171.032,194.567996 169.592,194.567996 C168.168,194.567996 167.368,195.767996 167.368,197.127996 C167.368,198.503996 168.168,199.703996 169.592,199.703996 Z M180.504,200.999996 L180.504,196.167996 C180.504,194.951996 179.88,194.567996 178.936,194.567996 C178.088,194.567996 177.352,195.079996 176.952,195.591996 L176.952,200.999996 L175.272,200.999996 L175.272,193.271996 L176.952,193.271996 L176.952,194.311996 C177.464,193.703996 178.472,193.079996 179.688,193.079996 C181.352,193.079996 182.184,193.975996 182.184,195.559996 L182.184,200.999996 Z M186.696,201.191996 C185.384,201.191996 184.712,200.487996 184.712,199.191996 L184.712,194.727996 L183.432,194.727996 L183.432,193.271996 L184.712,193.271996 L184.712,191.159996 L186.392,191.159996 L186.392,193.271996 L187.96,193.271996 L187.96,194.727996 L186.392,194.727996 L186.392,198.775996 C186.392,199.303996 186.648,199.703996 187.128,199.703996 C187.448,199.703996 187.736,199.559996 187.864,199.415996 L188.264,200.695996 C187.96,200.967996 187.464,201.191996 186.696,201.191996 Z M189.464,200.999996 L189.464,193.271996 L191.144,193.271996 L191.144,194.391996 C191.736,193.655996 192.664,193.079996 193.656,193.079996 L193.656,194.743996 C193.512,194.711996 193.352,194.695996 193.144,194.695996 C192.424,194.695996 191.48,195.175996 191.144,195.735996 L191.144,200.999996 Z M199.752,200.999996 L199.752,200.151996 C199.176,200.823996 198.264,201.191996 197.24,201.191996 C195.992,201.191996 194.568,200.327996 194.568,198.631996 C194.568,196.839996 195.976,196.103996 197.24,196.103996 C198.296,196.103996 199.176,196.439996 199.752,197.095996 L199.752,195.943996 C199.752,195.047996 199,194.503996 197.944,194.503996 C197.08,194.503996 196.312,194.823996 195.656,195.495996 L194.952,194.327996 C195.848,193.463996 196.968,193.079996 198.2,193.079996 C199.928,193.079996 201.432,193.799996 201.432,195.863996 L201.432,200.999996 Z M197.912,200.039996 C198.632,200.039996 199.352,199.767996 199.752,199.239996 L199.752,198.055996 C199.352,197.527996 198.632,197.255996 197.912,197.255996 C196.968,197.255996 196.248,197.815996 196.248,198.647996 C196.248,199.495996 196.968,200.039996 197.912,200.039996 Z M207.128,201.191996 C204.792,201.191996 203.144,199.463996 203.144,197.127996 C203.144,194.791996 204.792,193.079996 207.128,193.079996 C208.648,193.079996 209.544,193.719996 210.088,194.455996 L208.984,195.463996 C208.552,194.855996 207.96,194.567996 207.208,194.567996 C205.816,194.567996 204.872,195.623996 204.872,197.127996 C204.872,198.631996 205.816,199.703996 207.208,199.703996 C207.96,199.703996 208.552,199.383996 208.984,198.775996 L210.088,199.815996 C209.544,200.535996 208.648,201.191996 207.128,201.191996 Z M213.912,201.191996 C212.6,201.191996 211.928,200.487996 211.928,199.191996 L211.928,194.727996 L210.648,194.727996 L210.648,193.271996 L211.928,193.271996 L211.928,191.159996 L213.608,191.159996 L213.608,193.271996 L215.176,193.271996 L215.176,194.727996 L213.608,194.727996 L213.608,198.775996 C213.608,199.303996 213.864,199.703996 214.344,199.703996 C214.664,199.703996 214.952,199.559996 215.08,199.415996 L215.48,200.695996 C215.176,200.967996 214.68,201.191996 213.912,201.191996 Z M227.56,200.999996 L225.752,195.335996 L223.96,200.999996 L222.2,200.999996 L219.8,193.271996 L221.544,193.271996 L223.176,198.887996 L225.016,193.271996 L226.504,193.271996 L228.328,198.887996 L229.96,193.271996 L231.72,193.271996 L229.32,200.999996 Z M236.392,201.191996 C233.928,201.191996 232.424,199.335996 232.424,197.127996 C232.424,194.903996 233.928,193.079996 236.392,193.079996 C238.856,193.079996 240.36,194.903996 240.36,197.127996 C240.36,199.335996 238.856,201.191996 236.392,201.191996 Z M236.392,199.703996 C237.832,199.703996 238.616,198.503996 238.616,197.127996 C238.616,195.767996 237.832,194.567996 236.392,194.567996 C234.968,194.567996 234.168,195.767996 234.168,197.127996 C234.168,198.503996 234.968,199.703996 236.392,199.703996 Z M242.072,200.999996 L242.072,193.271996 L243.752,193.271996 L243.752,194.391996 C244.344,193.655996 245.272,193.079996 246.264,193.079996 L246.264,194.743996 C246.12,194.711996 245.96,194.695996 245.752,194.695996 C245.032,194.695996 244.088,195.175996 243.752,195.735996 L243.752,200.999996 Z M254.856,200.999996 L252.744,200.999996 L250.392,197.799996 L249.304,198.919996 L249.304,200.999996 L247.624,200.999996 L247.624,190.327996 L249.304,190.327996 L249.304,196.999996 L252.712,193.271996 L254.792,193.271996 L251.592,196.775996 Z M254.856,200.999996" id="Mobile &amp; Web" fill="#FFFFFF"></path>
            <path d="M188.209,161.7 L188.209,159.27 C185.374,159.027 183.295,157.947 181.81,156.462 L183.916,153.465 C184.915,154.518 186.4,155.463 188.209,155.787 L188.209,151.602 C185.428,150.927 182.404,149.874 182.404,146.202 C182.404,143.475 184.564,141.153 188.209,140.775 L188.209,138.264 L190.747,138.264 L190.747,140.829 C192.934,141.072 194.797,141.882 196.255,143.232 L194.122,146.094 C193.15,145.203 191.962,144.636 190.747,144.339 L190.747,148.065 C193.555,148.767 196.687,149.847 196.687,153.546 C196.687,156.543 194.716,158.865 190.747,159.27 L190.747,161.7 Z M192.772,153.924 C192.772,153.033 191.935,152.601 190.747,152.223 L190.747,155.841 C192.124,155.571 192.772,154.788 192.772,153.924 Z M186.346,145.905 C186.346,146.688 187.102,147.093 188.209,147.444 L188.209,144.177 C187.021,144.339 186.346,144.987 186.346,145.905 Z M206.866,159 L206.866,155.274 L198.253,155.274 L198.253,152.25 L205.408,140.991 L210.7,140.991 L210.7,151.899 L213.022,151.899 L213.022,155.274 L210.7,155.274 L210.7,159 Z M206.866,151.899 L206.866,144.393 L202.006,151.899 Z M215.479,159 L215.479,140.991 L224.956,140.991 C228.385,140.991 230.14,143.178 230.14,145.581 C230.14,147.822 228.736,149.361 227.035,149.712 C228.979,150.009 230.491,151.872 230.491,154.113 C230.491,156.84 228.709,159 225.253,159 Z M224.119,148.146 C225.415,148.146 226.225,147.417 226.225,146.256 C226.225,145.149 225.415,144.366 224.119,144.366 L219.313,144.366 L219.313,148.146 Z M224.281,155.625 C225.712,155.625 226.576,154.869 226.576,153.573 C226.576,152.439 225.766,151.521 224.281,151.521 L219.313,151.521 L219.313,155.625 Z M224.281,155.625" id="$4B" fill="#FFFFFF"></path>
            <path d="M14.096,220.704 C15.536,220.704 16.32,219.504 16.32,218.128 C16.32,216.768 15.536,215.568 14.096,215.568 C12.672,215.568 11.872,216.768 11.872,218.128 C11.872,219.504 12.672,220.704 14.096,220.704 Z M4.912,222.192 C2.448,222.192 0.944,220.336 0.944,218.128 C0.944,215.904 2.448,214.08 4.912,214.08 C7.376,214.08 8.88,215.904 8.88,218.128 C8.88,220.336 7.376,222.192 4.912,222.192 Z M23.28,222.192 C20.816,222.192 19.312,220.336 19.312,218.128 C19.312,215.904 20.816,214.08 23.28,214.08 C25.744,214.08 27.248,215.904 27.248,218.128 C27.248,220.336 25.744,222.192 23.28,222.192 Z M14.096,222.192 C11.632,222.192 10.128,220.336 10.128,218.128 C10.128,215.904 11.632,214.08 14.096,214.08 C16.56,214.08 18.064,215.904 18.064,218.128 C18.064,220.336 16.56,222.192 14.096,222.192 Z M23.28,220.704 C24.72,220.704 25.504,219.504 25.504,218.128 C25.504,216.768 24.72,215.568 23.28,215.568 C21.856,215.568 21.056,216.768 21.056,218.128 C21.056,219.504 21.856,220.704 23.28,220.704 Z M4.912,220.704 C6.352,220.704 7.136,219.504 7.136,218.128 C7.136,216.768 6.352,215.568 4.912,215.568 C3.488,215.568 2.688,216.768 2.688,218.128 C2.688,219.504 3.488,220.704 4.912,220.704 Z M38.448,222 L38.448,216.96 C38.448,216.128 38.08,215.568 37.168,215.568 C36.416,215.568 35.712,216.08 35.376,216.592 L35.376,222 L33.696,222 L33.696,216.96 C33.696,216.128 33.344,215.568 32.432,215.568 C31.68,215.568 30.992,216.096 30.64,216.592 L30.64,222 L28.96,222 L28.96,214.272 L30.64,214.272 L30.64,215.312 C30.976,214.848 31.984,214.08 33.168,214.08 C34.32,214.08 35.024,214.656 35.28,215.488 C35.712,214.8 36.736,214.08 37.904,214.08 C39.312,214.08 40.128,214.848 40.128,216.416 L40.128,222 Z M42.72,222 L42.72,215.728 L41.44,215.728 L41.44,214.272 L42.72,214.272 L42.72,213.84 C42.72,212.16 43.696,211.168 45.152,211.168 C45.856,211.168 46.544,211.344 47.008,211.84 L46.352,212.88 C46.128,212.672 45.84,212.544 45.472,212.544 C44.8,212.544 44.4,212.976 44.4,213.84 L44.4,214.272 L45.968,214.272 L45.968,215.728 L44.4,215.728 L44.4,222 Z M55.536,222.192 C54.56,222.192 53.696,221.744 53.056,220.928 L53.056,224.944 L51.376,224.944 L51.376,214.272 L53.056,214.272 L53.056,215.328 C53.632,214.56 54.528,214.08 55.536,214.08 C57.536,214.08 58.96,215.584 58.96,218.128 C58.96,220.672 57.536,222.192 55.536,222.192 Z M55.04,220.704 C56.368,220.704 57.232,219.632 57.232,218.128 C57.232,216.624 56.368,215.568 55.04,215.568 C54.256,215.568 53.44,216.016 53.056,216.592 L53.056,219.648 C53.424,220.224 54.256,220.704 55.04,220.704 Z M60.64,222 L60.64,214.272 L62.32,214.272 L62.32,215.392 C62.912,214.656 63.84,214.08 64.832,214.08 L64.832,215.744 C64.688,215.712 64.528,215.696 64.32,215.696 C63.6,215.696 62.656,216.176 62.32,216.736 L62.32,222 Z M69.696,222.192 C67.232,222.192 65.728,220.336 65.728,218.128 C65.728,215.904 67.232,214.08 69.696,214.08 C72.16,214.08 73.664,215.904 73.664,218.128 C73.664,220.336 72.16,222.192 69.696,222.192 Z M69.696,220.704 C71.136,220.704 71.92,219.504 71.92,218.128 C71.92,216.768 71.136,215.568 69.696,215.568 C68.272,215.568 67.472,216.768 67.472,218.128 C67.472,219.504 68.272,220.704 69.696,220.704 Z M76.224,213.328 C75.648,213.328 75.184,212.864 75.184,212.288 C75.184,211.712 75.648,211.248 76.224,211.248 C76.8,211.248 77.264,211.712 77.264,212.288 C77.264,212.864 76.8,213.328 76.224,213.328 Z M74.496,225.136 C73.6,225.136 73.2,224.96 72.672,224.576 L73.168,223.328 C73.456,223.584 73.76,223.76 74.24,223.76 C74.912,223.76 75.376,223.36 75.376,222.448 L75.376,214.272 L77.056,214.272 L77.056,222.448 C77.056,224.096 76.208,225.136 74.496,225.136 Z M82.816,222.192 C80.48,222.192 78.768,220.576 78.768,218.128 C78.768,215.888 80.4,214.08 82.688,214.08 C85.008,214.08 86.48,215.84 86.48,218.272 L86.48,218.688 L80.528,218.688 C80.656,219.84 81.52,220.816 82.976,220.816 C83.744,220.816 84.624,220.512 85.184,219.952 L85.952,221.056 C85.168,221.792 84.032,222.192 82.816,222.192 Z M84.864,217.488 C84.816,216.576 84.192,215.456 82.672,215.456 C81.248,215.456 80.576,216.56 80.512,217.488 Z M91.664,222.192 C89.328,222.192 87.68,220.464 87.68,218.128 C87.68,215.792 89.328,214.08 91.664,214.08 C93.184,214.08 94.08,214.72 94.624,215.456 L93.52,216.464 C93.088,215.856 92.496,215.568 91.744,215.568 C90.352,215.568 89.408,216.624 89.408,218.128 C89.408,219.632 90.352,220.704 91.744,220.704 C92.496,220.704 93.088,220.384 93.52,219.776 L94.624,220.816 C94.08,221.536 93.184,222.192 91.664,222.192 Z M98.448,222.192 C97.136,222.192 96.464,221.488 96.464,220.192 L96.464,215.728 L95.184,215.728 L95.184,214.272 L96.464,214.272 L96.464,212.16 L98.144,212.16 L98.144,214.272 L99.712,214.272 L99.712,215.728 L98.144,215.728 L98.144,219.776 C98.144,220.304 98.4,220.704 98.88,220.704 C99.2,220.704 99.488,220.56 99.616,220.416 L100.016,221.696 C99.712,221.968 99.216,222.192 98.448,222.192 Z M103.872,222.192 C102.544,222.192 101.36,221.76 100.56,220.976 L101.328,219.776 C101.872,220.336 102.944,220.848 103.936,220.848 C104.944,220.848 105.472,220.432 105.472,219.824 C105.472,218.304 100.8,219.392 100.8,216.416 C100.8,215.152 101.888,214.08 103.84,214.08 C105.152,214.08 106.144,214.544 106.832,215.152 L106.128,216.336 C105.664,215.824 104.816,215.408 103.84,215.408 C102.96,215.408 102.416,215.824 102.416,216.368 C102.416,217.728 107.088,216.704 107.088,219.776 C107.088,221.152 105.952,222.192 103.872,222.192 Z M32.992,243.384 L31.952,244.184 C30.432,242.344 29.52,239.688 29.52,237.112 C29.52,234.536 30.432,231.88 31.952,230.04 L32.992,230.824 C31.92,232.808 31.344,234.584 31.344,237.112 C31.344,239.608 31.92,241.416 32.992,243.384 Z M37.44,241 L37.44,236.568 L33.296,230.328 L35.44,230.328 L38.368,234.888 L41.296,230.328 L43.44,230.328 L39.312,236.568 L39.312,241 Z M46.128,241.192 C43.792,241.192 42.08,239.576 42.08,237.128 C42.08,234.888 43.712,233.08 46,233.08 C48.32,233.08 49.792,234.84 49.792,237.272 L49.792,237.688 L43.84,237.688 C43.968,238.84 44.832,239.816 46.288,239.816 C47.056,239.816 47.936,239.512 48.496,238.952 L49.264,240.056 C48.48,240.792 47.344,241.192 46.128,241.192 Z M48.176,236.488 C48.128,235.576 47.504,234.456 45.984,234.456 C44.56,234.456 43.888,235.56 43.824,236.488 Z M56.192,241 L56.192,240.152 C55.616,240.824 54.704,241.192 53.68,241.192 C52.432,241.192 51.008,240.328 51.008,238.632 C51.008,236.84 52.416,236.104 53.68,236.104 C54.736,236.104 55.616,236.44 56.192,237.096 L56.192,235.944 C56.192,235.048 55.44,234.504 54.384,234.504 C53.52,234.504 52.752,234.824 52.096,235.496 L51.392,234.328 C52.288,233.464 53.408,233.08 54.64,233.08 C56.368,233.08 57.872,233.8 57.872,235.864 L57.872,241 Z M54.352,240.04 C55.072,240.04 55.792,239.768 56.192,239.24 L56.192,238.056 C55.792,237.528 55.072,237.256 54.352,237.256 C53.408,237.256 52.688,237.816 52.688,238.648 C52.688,239.496 53.408,240.04 54.352,240.04 Z M60.048,241 L60.048,233.272 L61.728,233.272 L61.728,234.392 C62.32,233.656 63.248,233.08 64.24,233.08 L64.24,234.744 C64.096,234.712 63.936,234.696 63.728,234.696 C63.008,234.696 62.064,235.176 61.728,235.736 L61.728,241 Z M71.712,241 L71.712,232.744 L69.968,234.568 L68.88,233.432 L71.952,230.328 L73.584,230.328 L73.584,241 Z M75.008,243.384 C76.064,241.416 76.64,239.608 76.64,237.112 C76.64,234.584 76.064,232.808 75.008,230.824 L76.048,230.04 C77.552,231.88 78.464,234.536 78.464,237.112 C78.464,239.688 77.552,242.344 76.048,244.184 Z M75.008,243.384" id="ooomf projects" fill="#FFFFFF"></path>
            <path d="M37.738,179.4 L37.738,178.14 C36.268,178.014 35.19,177.454 34.42,176.684 L35.512,175.13 C36.03,175.676 36.8,176.166 37.738,176.334 L37.738,174.164 C36.296,173.814 34.728,173.268 34.728,171.364 C34.728,169.95 35.848,168.746 37.738,168.55 L37.738,167.248 L39.054,167.248 L39.054,168.578 C40.188,168.704 41.154,169.124 41.91,169.824 L40.804,171.308 C40.3,170.846 39.684,170.552 39.054,170.398 L39.054,172.33 C40.51,172.694 42.134,173.254 42.134,175.172 C42.134,176.726 41.112,177.93 39.054,178.14 L39.054,179.4 Z M40.104,175.368 C40.104,174.906 39.67,174.682 39.054,174.486 L39.054,176.362 C39.768,176.222 40.104,175.816 40.104,175.368 Z M47.412,178 L47.412,176.068 L42.946,176.068 L42.946,174.5 L46.656,168.662 L49.4,168.662 L49.4,174.318 L50.604,174.318 L50.604,176.068 L49.4,176.068 L49.4,178 Z M47.412,174.318 L47.412,170.426 L44.892,174.318 Z M59.998,178 L59.998,171.266 L57.366,178 L56.498,178 L53.866,171.266 L53.866,178 L51.878,178 L51.878,168.662 L54.664,168.662 L56.932,174.5 L59.2,168.662 L62,168.662 L62,178 Z M71.968,178 L71.968,171.266 L69.336,178 L68.468,178 L65.836,171.266 L65.836,178 L63.848,178 L63.848,168.662 L66.634,168.662 L68.902,174.5 L71.17,168.662 L73.97,168.662 L73.97,178 Z M71.968,178" id="$4MM" fill="#FFFFFF"></path>
        </g>
    </g>
</svg>