<?xml version="1.0" encoding="UTF-8" standalone="no"?>
<svg width="640px" height="99px" viewBox="0 0 640 99" version="1.1" xmlns="http://www.w3.org/2000/svg" xmlns:xlink="http://www.w3.org/1999/xlink" xmlns:sketch="http://www.bohemiancoding.com/sketch/ns">
    <title>Graph</title>
    <description>Created with Sketch (http://www.bohemiancoding.com/sketch)</description>
    <defs></defs>
    <g id="Page 1" stroke="none" stroke-width="1" fill="none" fill-rule="evenodd">
        <g id="Bar 1">
            <path d="M0,0 L0,45 L230,45 L230,0 L0,0 Z M0,0" id="Rectangle 1" fill="#2FADD8"></path>
            <path d="M141.06,29 L141.06,19.32 L138.84,21.58 L137.22,19.88 L141.42,15.66 L143.9,15.66 L143.9,29 Z M151.42,29.24 C147.6,29.24 145.9,25.78 145.9,22.34 C145.9,18.9 147.6,15.46 151.42,15.46 C155.24,15.46 156.94,18.9 156.94,22.34 C156.94,25.78 155.24,29.24 151.42,29.24 Z M151.42,26.72 C153.32,26.72 154.04,24.8 154.04,22.34 C154.04,19.88 153.34,17.98 151.42,17.98 C149.52,17.98 148.8,19.88 148.8,22.34 C148.8,24.8 149.52,26.72 151.42,26.72 Z M163.82,29.24 C160,29.24 158.3,25.78 158.3,22.34 C158.3,18.9 160,15.46 163.82,15.46 C167.64,15.46 169.34,18.9 169.34,22.34 C169.34,25.78 167.64,29.24 163.82,29.24 Z M163.82,26.72 C165.72,26.72 166.44,24.8 166.44,22.34 C166.44,19.88 165.74,17.98 163.82,17.98 C161.92,17.98 161.2,19.88 161.2,22.34 C161.2,24.8 161.92,26.72 163.82,26.72 Z M176.22,29.24 C172.4,29.24 170.7,25.78 170.7,22.34 C170.7,18.9 172.4,15.46 176.22,15.46 C180.04,15.46 181.74,18.9 181.74,22.34 C181.74,25.78 180.04,29.24 176.22,29.24 Z M176.22,26.72 C178.12,26.72 178.84,24.8 178.84,22.34 C178.84,19.88 178.14,17.98 176.22,17.98 C174.32,17.98 173.6,19.88 173.6,22.34 C173.6,24.8 174.32,26.72 176.22,26.72 Z M188.34,23.04 L188.34,27.1 L186.6,27.1 L186.6,23.04 L183,23.04 L183,21.46 L186.6,21.46 L186.6,17.54 L188.34,17.54 L188.34,21.46 L191.92,21.46 L191.92,23.04 Z M200.16,18.3 C199.34,18.3 198.66,17.62 198.66,16.78 C198.66,15.94 199.34,15.28 200.16,15.28 C201,15.28 201.68,15.94 201.68,16.78 C201.68,17.62 201,18.3 200.16,18.3 Z M198.9,29 L198.9,19.34 L201.44,19.34 L201.44,29 Z M210.48,29 L210.48,23.16 C210.48,21.82 209.78,21.36 208.7,21.36 C207.7,21.36 206.94,21.92 206.5,22.48 L206.5,29 L203.96,29 L203.96,19.34 L206.5,19.34 L206.5,20.58 C207.12,19.86 208.32,19.1 209.88,19.1 C212.02,19.1 213.04,20.3 213.04,22.18 L213.04,29 Z M210.48,29" id="1000+ in" fill="#FFFFFF"></path>
        </g>
        <g id="Bar 2" transform="translate(0.000000, 54.000000)">
            <path d="M0,0 L0,45 L640,45 L640,0 L0,0 Z M0,0" id="Rectangle 1" fill="#1A3F4F"></path>
            <path d="M415.94,29.24 C412.12,29.24 410.42,25.78 410.42,22.34 C410.42,18.9 412.12,15.46 415.94,15.46 C419.76,15.46 421.46,18.9 421.46,22.34 C421.46,25.78 419.76,29.24 415.94,29.24 Z M403.66,29.24 C401.22,29.24 399.38,28.3 398.4,27.1 L399.9,25.2 C400.8,26.16 402.26,26.72 403.56,26.72 C405.18,26.72 406.08,26.02 406.08,25.02 C406.08,23.96 405.26,23.48 403.4,23.48 C402.84,23.48 401.94,23.5 401.74,23.52 L401.74,20.96 C401.98,20.98 402.9,20.98 403.4,20.98 C404.88,20.98 405.88,20.54 405.88,19.56 C405.88,18.5 404.78,17.98 403.4,17.98 C402.1,17.98 400.94,18.46 400,19.36 L398.58,17.58 C399.66,16.36 401.34,15.46 403.68,15.46 C406.8,15.46 408.72,16.86 408.72,19.08 C408.72,20.76 407.28,21.86 405.8,22.12 C407.16,22.26 408.92,23.32 408.92,25.32 C408.92,27.62 406.86,29.24 403.66,29.24 Z M415.94,26.72 C417.84,26.72 418.56,24.8 418.56,22.34 C418.56,19.88 417.86,17.98 415.94,17.98 C414.04,17.98 413.32,19.88 413.32,22.34 C413.32,24.8 414.04,26.72 415.94,26.72 Z M428.34,29.24 C424.52,29.24 422.82,25.78 422.82,22.34 C422.82,18.9 424.52,15.46 428.34,15.46 C432.16,15.46 433.86,18.9 433.86,22.34 C433.86,25.78 432.16,29.24 428.34,29.24 Z M428.34,26.72 C430.24,26.72 430.96,24.8 430.96,22.34 C430.96,19.88 430.26,17.98 428.34,17.98 C426.44,17.98 425.72,19.88 425.72,22.34 C425.72,24.8 426.44,26.72 428.34,26.72 Z M440.74,29.24 C436.92,29.24 435.22,25.78 435.22,22.34 C435.22,18.9 436.92,15.46 440.74,15.46 C444.56,15.46 446.26,18.9 446.26,22.34 C446.26,25.78 444.56,29.24 440.74,29.24 Z M440.74,26.72 C442.64,26.72 443.36,24.8 443.36,22.34 C443.36,19.88 442.66,17.98 440.74,17.98 C438.84,17.98 438.12,19.88 438.12,22.34 C438.12,24.8 438.84,26.72 440.74,26.72 Z M452.86,23.04 L452.86,27.1 L451.12,27.1 L451.12,23.04 L447.52,23.04 L447.52,21.46 L451.12,21.46 L451.12,17.54 L452.86,17.54 L452.86,21.46 L456.44,21.46 L456.44,23.04 Z M467.9,29.24 C464.72,29.24 462.8,26.9 462.8,24.16 C462.8,21.42 464.72,19.1 467.9,19.1 C471.1,19.1 473.02,21.42 473.02,24.16 C473.02,26.9 471.1,29.24 467.9,29.24 Z M467.9,26.98 C469.5,26.98 470.38,25.68 470.38,24.16 C470.38,22.66 469.5,21.36 467.9,21.36 C466.32,21.36 465.44,22.66 465.44,24.16 C465.44,25.68 466.32,26.98 467.9,26.98 Z M481.44,29 L481.44,23.16 C481.44,21.82 480.74,21.36 479.66,21.36 C478.66,21.36 477.9,21.92 477.46,22.48 L477.46,29 L474.92,29 L474.92,19.34 L477.46,19.34 L477.46,20.58 C478.08,19.86 479.28,19.1 480.84,19.1 C482.98,19.1 484,20.3 484,22.18 L484,29 Z M494.88,29.24 C493.1,29.24 492.16,28.32 492.16,26.58 L492.16,21.56 L490.56,21.56 L490.56,19.34 L492.16,19.34 L492.16,16.7 L494.7,16.7 L494.7,19.34 L496.66,19.34 L496.66,21.56 L494.7,21.56 L494.7,25.9 C494.7,26.52 495.02,26.98 495.58,26.98 C495.96,26.98 496.32,26.84 496.46,26.68 L497,28.62 C496.62,28.96 495.94,29.24 494.88,29.24 Z M504.94,29 L504.94,23.12 C504.94,21.78 504.24,21.36 503.16,21.36 C502.16,21.36 501.38,21.92 500.96,22.48 L500.96,29 L498.4,29 L498.4,15.66 L500.96,15.66 L500.96,20.58 C501.58,19.86 502.76,19.1 504.34,19.1 C506.46,19.1 507.48,20.26 507.48,22.14 L507.48,29 Z M514.54,29.24 C511.6,29.24 509.38,27.26 509.38,24.16 C509.38,21.36 511.46,19.1 514.38,19.1 C517.28,19.1 519.22,21.26 519.22,24.4 L519.22,25 L512.04,25 C512.22,26.18 513.18,27.16 514.82,27.16 C515.64,27.16 516.76,26.82 517.38,26.22 L518.52,27.9 C517.56,28.78 516.04,29.24 514.54,29.24 Z M516.78,23.24 C516.7,22.32 516.06,21.18 514.38,21.18 C512.8,21.18 512.12,22.28 512.02,23.24 Z M534.68,29 L532.64,22.42 L530.6,29 L527.88,29 L524.94,19.34 L527.58,19.34 L529.38,25.84 L531.5,19.34 L533.76,19.34 L535.88,25.84 L537.68,19.34 L540.34,19.34 L537.4,29 Z M547.4,29 L547.4,27.98 C546.74,28.78 545.6,29.24 544.34,29.24 C542.8,29.24 541,28.2 541,26.04 C541,23.76 542.8,22.92 544.34,22.92 C545.64,22.92 546.76,23.34 547.4,24.1 L547.4,22.88 C547.4,21.9 546.56,21.26 545.28,21.26 C544.26,21.26 543.3,21.66 542.5,22.4 L541.5,20.62 C542.68,19.56 544.2,19.1 545.72,19.1 C547.94,19.1 549.96,19.98 549.96,22.76 L549.96,29 Z M545.36,27.52 C546.18,27.52 546.98,27.24 547.4,26.68 L547.4,25.48 C546.98,24.92 546.18,24.62 545.36,24.62 C544.36,24.62 543.54,25.16 543.54,26.08 C543.54,27 544.36,27.52 545.36,27.52 Z M553.72,18.3 C552.9,18.3 552.22,17.62 552.22,16.78 C552.22,15.94 552.9,15.28 553.72,15.28 C554.56,15.28 555.24,15.94 555.24,16.78 C555.24,17.62 554.56,18.3 553.72,18.3 Z M552.46,29 L552.46,19.34 L555,19.34 L555,29 Z M560.76,29.24 C558.98,29.24 558.04,28.32 558.04,26.58 L558.04,21.56 L556.44,21.56 L556.44,19.34 L558.04,19.34 L558.04,16.7 L560.58,16.7 L560.58,19.34 L562.54,19.34 L562.54,21.56 L560.58,21.56 L560.58,25.9 C560.58,26.52 560.9,26.98 561.46,26.98 C561.84,26.98 562.2,26.84 562.34,26.68 L562.88,28.62 C562.5,28.96 561.82,29.24 560.76,29.24 Z M565.54,18.3 C564.72,18.3 564.04,17.62 564.04,16.78 C564.04,15.94 564.72,15.28 565.54,15.28 C566.38,15.28 567.06,15.94 567.06,16.78 C567.06,17.62 566.38,18.3 565.54,18.3 Z M564.28,29 L564.28,19.34 L566.82,19.34 L566.82,29 Z M575.86,29 L575.86,23.16 C575.86,21.82 575.16,21.36 574.08,21.36 C573.08,21.36 572.32,21.92 571.88,22.48 L571.88,29 L569.34,29 L569.34,19.34 L571.88,19.34 L571.88,20.58 C572.5,19.86 573.7,19.1 575.26,19.1 C577.4,19.1 578.42,20.3 578.42,22.18 L578.42,29 Z M584.88,32.92 C583.24,32.92 581.94,32.54 580.72,31.48 L581.86,29.66 C582.64,30.5 583.68,30.84 584.88,30.84 C586.1,30.84 587.56,30.32 587.56,28.36 L587.56,27.42 C586.8,28.38 585.76,28.92 584.56,28.92 C582.16,28.92 580.3,27.24 580.3,24.02 C580.3,20.86 582.12,19.1 584.56,19.1 C585.72,19.1 586.78,19.58 587.56,20.58 L587.56,19.34 L590.1,19.34 L590.1,28.36 C590.1,32.02 587.26,32.92 584.88,32.92 Z M585.38,26.68 C586.2,26.68 587.12,26.2 587.56,25.58 L587.56,22.44 C587.12,21.82 586.2,21.36 585.38,21.36 C583.92,21.36 582.92,22.36 582.92,24.02 C582.92,25.68 583.92,26.68 585.38,26.68 Z M597.76,29 L597.76,15.66 L600.3,15.66 L600.3,29 Z M604.08,18.3 C603.26,18.3 602.58,17.62 602.58,16.78 C602.58,15.94 603.26,15.28 604.08,15.28 C604.92,15.28 605.6,15.94 605.6,16.78 C605.6,17.62 604.92,18.3 604.08,18.3 Z M602.82,29 L602.82,19.34 L605.36,19.34 L605.36,29 Z M611.36,29.24 C609.68,29.24 608.06,28.68 607.04,27.74 L608.14,25.9 C608.86,26.58 610.28,27.24 611.48,27.24 C612.58,27.24 613.1,26.82 613.1,26.22 C613.1,24.64 607.38,25.94 607.38,22.14 C607.38,20.52 608.78,19.1 611.34,19.1 C612.96,19.1 614.26,19.66 615.22,20.42 L614.2,22.22 C613.62,21.62 612.52,21.1 611.34,21.1 C610.42,21.1 609.82,21.5 609.82,22.04 C609.82,23.46 615.56,22.26 615.56,26.16 C615.56,27.94 614.04,29.24 611.36,29.24 Z M620.66,29.24 C618.88,29.24 617.94,28.32 617.94,26.58 L617.94,21.56 L616.34,21.56 L616.34,19.34 L617.94,19.34 L617.94,16.7 L620.48,16.7 L620.48,19.34 L622.44,19.34 L622.44,21.56 L620.48,21.56 L620.48,25.9 C620.48,26.52 620.8,26.98 621.36,26.98 C621.74,26.98 622.1,26.84 622.24,26.68 L622.78,28.62 C622.4,28.96 621.72,29.24 620.66,29.24 Z M620.66,29.24" id="3000+ on the waiting" fill="#FFFFFF"></path>
        </g>
    </g>
</svg>