<?xml version="1.0" encoding="UTF-8" standalone="no"?>
<svg width="619px" height="373px" viewBox="0 0 619 373" version="1.1" xmlns="http://www.w3.org/2000/svg" xmlns:xlink="http://www.w3.org/1999/xlink" xmlns:sketch="http://www.bohemiancoding.com/sketch/ns">
    <title>Graph</title>
    <description>Created with Sketch (http://www.bohemiancoding.com/sketch)</description>
    <defs></defs>
    <g id="Page 1" stroke="none" stroke-width="1" fill="none" fill-rule="evenodd">
        <g id="Graph 1" transform="translate(20.000000, 22.000000)">
            <g id="Axii" transform="translate(67.000000, 0.000000)">
                <path d="M12.5,281.5 L349.5,281.5" id="X-axis" stroke="#FFFFFF" stroke-width="7" stroke-linecap="square"></path>
                <path d="M-118,152.5 L141,152.5" id="Y-axis" stroke="#FFFFFF" stroke-width="7" stroke-linecap="square" transform="translate(11.500000, 152.000000) rotate(-90.000000) translate(-11.500000, -152.000000) "></path>
                <path d="M12,0 L24,24 L0,24 L12,0 Z M12,0" id="Triangle 1" fill="#FFFFFF"></path>
                <path d="M349,294 L349,270 L373,282 L349,294 Z M349,294" id="Triangle 1 copy" fill="#FFFFFF"></path>
            </g>
            <g id="Labels" transform="translate(0.000000, 36.000000)" fill="#FFFFFF">
                <path d="M6.48,3.244 L0.432,3.244 L0.432,0.994 L9.45,0.994 L9.45,2.776 L4.986,13 L2.178,13 L6.48,3.244 Z M10.422,7.006 C10.422,3.91 11.952,0.814 15.39,0.814 C18.828,0.814 20.358,3.91 20.358,7.006 C20.358,10.102 18.828,13.216 15.39,13.216 C11.952,13.216 10.422,10.102 10.422,7.006 Z M17.748,7.006 C17.748,4.792 17.118,3.082 15.39,3.082 C13.68,3.082 13.032,4.792 13.032,7.006 C13.032,9.22 13.68,10.948 15.39,10.948 C17.1,10.948 17.748,9.22 17.748,7.006 Z M32.598,4.342 L29.214,13 L28.098,13 L24.714,4.342 L24.714,13 L22.158,13 L22.158,0.994 L25.74,0.994 L28.656,8.5 L31.572,0.994 L35.172,0.994 L35.172,13 L32.598,13 L32.598,4.342 Z M47.988,4.342 L44.604,13 L43.488,13 L40.104,4.342 L40.104,13 L37.548,13 L37.548,0.994 L41.13,0.994 L44.046,8.5 L46.962,0.994 L50.562,0.994 L50.562,13 L47.988,13 L47.988,4.342 Z M3.654,186.288 L1.656,188.322 L0.198,186.792 L3.978,182.994 L6.21,182.994 L6.21,195 L3.654,195 L3.654,186.288 Z M8.01,189.024 C8.01,185.388 10.062,182.814 13.608,182.814 C15.066,182.814 16.29,183.3 17.154,184.056 L16.002,186.018 C15.354,185.406 14.67,185.082 13.608,185.082 C11.844,185.082 10.602,186.576 10.602,188.484 C10.602,188.574 10.602,188.646 10.62,188.736 C11.178,187.926 12.384,187.188 13.698,187.188 C15.858,187.188 17.802,188.538 17.802,191.094 C17.802,193.434 15.93,195.216 13.194,195.216 C9.54,195.216 8.01,192.408 8.01,189.024 Z M15.192,191.184 C15.192,189.924 14.112,189.384 12.978,189.384 C12.078,189.384 11.196,189.798 10.62,190.518 C10.728,191.67 11.376,192.948 13.05,192.948 C14.436,192.948 15.192,192.012 15.192,191.184 Z M29.97,186.342 L26.586,195 L25.47,195 L22.086,186.342 L22.086,195 L19.53,195 L19.53,182.994 L23.112,182.994 L26.028,190.5 L28.944,182.994 L32.544,182.994 L32.544,195 L29.97,195 L29.97,186.342 Z M45.36,186.342 L41.976,195 L40.86,195 L37.476,186.342 L37.476,195 L34.92,195 L34.92,182.994 L38.502,182.994 L41.418,190.5 L44.334,182.994 L47.934,182.994 L47.934,195 L45.36,195 L45.36,186.342 Z M105.846,284.984 C110.76,281.348 112.2,280.124 112.2,278.648 C112.2,277.586 111.246,277.082 110.256,277.082 C108.888,277.082 107.844,277.622 107.034,278.468 L105.576,276.776 C106.746,275.426 108.528,274.814 110.202,274.814 C112.776,274.814 114.792,276.254 114.792,278.648 C114.792,280.7 113.1,282.482 109.986,284.75 L114.882,284.75 L114.882,287 L105.846,287 L105.846,284.984 Z M116.412,281.006 C116.412,277.91 117.942,274.814 121.38,274.814 C124.818,274.814 126.348,277.91 126.348,281.006 C126.348,284.102 124.818,287.216 121.38,287.216 C117.942,287.216 116.412,284.102 116.412,281.006 Z M123.738,281.006 C123.738,278.792 123.108,277.082 121.38,277.082 C119.67,277.082 119.022,278.792 119.022,281.006 C119.022,283.22 119.67,284.948 121.38,284.948 C123.09,284.948 123.738,283.22 123.738,281.006 Z M130.614,278.288 L128.616,280.322 L127.158,278.792 L130.938,274.994 L133.17,274.994 L133.17,287 L130.614,287 L130.614,278.288 Z M138.012,278.288 L136.014,280.322 L134.556,278.792 L138.336,274.994 L140.568,274.994 L140.568,287 L138.012,287 L138.012,278.288 Z M369.846,284.984 C374.76,281.348 376.2,280.124 376.2,278.648 C376.2,277.586 375.246,277.082 374.256,277.082 C372.888,277.082 371.844,277.622 371.034,278.468 L369.576,276.776 C370.746,275.426 372.528,274.814 374.202,274.814 C376.776,274.814 378.792,276.254 378.792,278.648 C378.792,280.7 377.1,282.482 373.986,284.75 L378.882,284.75 L378.882,287 L369.846,287 L369.846,284.984 Z M380.412,281.006 C380.412,277.91 381.942,274.814 385.38,274.814 C388.818,274.814 390.348,277.91 390.348,281.006 C390.348,284.102 388.818,287.216 385.38,287.216 C381.942,287.216 380.412,284.102 380.412,281.006 Z M387.738,281.006 C387.738,278.792 387.108,277.082 385.38,277.082 C383.67,277.082 383.022,278.792 383.022,281.006 C383.022,283.22 383.67,284.948 385.38,284.948 C387.09,284.948 387.738,283.22 387.738,281.006 Z M394.614,278.288 L392.616,280.322 L391.158,278.792 L394.938,274.994 L397.17,274.994 L397.17,287 L394.614,287 L394.614,278.288 Z M398.718,285.29 L400.068,283.58 C400.878,284.444 402.192,284.948 403.362,284.948 C404.82,284.948 405.63,284.318 405.63,283.418 C405.63,282.464 404.892,282.032 403.218,282.032 C402.714,282.032 401.904,282.05 401.724,282.068 L401.724,279.764 C401.94,279.782 402.768,279.782 403.218,279.782 C404.55,279.782 405.45,279.386 405.45,278.504 C405.45,277.55 404.46,277.082 403.218,277.082 C402.048,277.082 401.004,277.514 400.158,278.324 L398.88,276.722 C399.852,275.624 401.364,274.814 403.47,274.814 C406.278,274.814 408.006,276.074 408.006,278.072 C408.006,279.584 406.71,280.574 405.378,280.808 C406.602,280.934 408.186,281.888 408.186,283.688 C408.186,285.758 406.332,287.216 403.452,287.216 C401.256,287.216 399.6,286.37 398.718,285.29 Z M398.718,285.29" id="70MM"></path>
            </g>
            <path d="M382.518467,157.18667 C362.380491,155.136327 338.383729,148.10699 303.382697,135.185051 C296.41477,132.61258 261.020897,119.192473 250.872238,115.473854 C230.001362,107.826457 212.897374,102.144403 196.487795,97.607458 C172.859929,91.0747907 151.652447,87.2623828 131.994076,86.3762995 C130.370953,89.7058911 126.953385,92 123,92 C117.477152,92 113,87.5228478 113,82 C113,76.4771522 117.477152,72 123,72 C127.981942,72 132.112987,75.6431158 132.874387,80.4105967 C152.853717,81.3687632 174.297795,85.2472306 198.086697,91.8244215 C214.677122,96.4113668 231.925402,102.141355 252.936515,109.840138 C263.125174,113.573414 298.528251,126.99701 305.460726,129.556393 C339.600377,142.16032 363.045431,149.054289 382.41495,151.140045 C383.645205,147.010792 387.470998,144 392,144 C397.522848,144 402,148.477152 402,154 C402,159.522848 397.522848,164 392,164 C387.591325,164 383.848989,161.147065 382.518467,157.18667 Z M382.518467,157.18667" id="full-time" fill-opacity="0.4" fill="#FFFFFF"></path>
            <path d="M391.09441,43.9595485 C377.688191,85.7368038 338.916728,130.417401 286.815597,167.011602 C234.439297,203.799073 175.945473,227.047335 132.4485,227.283342 C131.089927,231.193408 127.372721,234 123,234 C117.477152,234 113,229.522848 113,224 C113,218.477152 117.477152,214 123,214 C127.580777,214 131.442175,217.080023 132.626197,221.282113 C174.704581,220.979883 231.990675,198.186815 283.367022,162.10168 C334.710263,126.039798 372.75406,82.0894345 385.538728,41.6325721 C383.374048,39.798252 382,37.0595892 382,34 C382,28.4771522 386.477152,24 392,24 C397.522848,24 402,28.4771522 402,34 C402,39.5228478 397.522848,44 392,44 C391.694749,44 391.392693,43.986323 391.09441,43.9595485 Z M391.09441,43.9595485" id="independent" fill="#2FADD8"></path>
            <path d="M430.392,153 L431.436,149.94 L429.726,149.94 L428.7,153 L427.008,153 L428.034,149.94 L426.306,149.94 L426.774,148.482 L428.538,148.482 L429.51,145.512 L427.764,145.512 L428.214,144.072 L430.014,144.072 L431.022,140.994 L432.714,140.994 L431.706,144.072 L433.398,144.072 L434.406,140.994 L436.116,140.994 L435.072,144.072 L436.818,144.072 L436.404,145.512 L434.586,145.512 L433.596,148.482 L435.414,148.482 L434.964,149.94 L433.11,149.94 L432.102,153 Z M432.894,145.512 L431.202,145.512 L430.23,148.482 L431.904,148.482 Z M446.916,153.216 C444.054,153.216 442.326,151.11 442.326,148.644 C442.326,146.178 444.054,144.09 446.916,144.09 C449.796,144.09 451.524,146.178 451.524,148.644 C451.524,151.11 449.796,153.216 446.916,153.216 Z M446.916,151.182 C448.356,151.182 449.148,150.012 449.148,148.644 C449.148,147.294 448.356,146.124 446.916,146.124 C445.494,146.124 444.702,147.294 444.702,148.644 C444.702,150.012 445.494,151.182 446.916,151.182 Z M453.756,153 L453.756,146.304 L452.316,146.304 L452.316,144.306 L453.756,144.306 L453.756,143.946 C453.756,141.984 454.926,140.814 456.672,140.814 C457.518,140.814 458.418,141.048 458.94,141.642 L458.076,143.028 C457.842,142.812 457.536,142.686 457.122,142.686 C456.474,142.686 456.042,143.1 456.042,143.946 L456.042,144.306 L457.806,144.306 L457.806,146.304 L456.042,146.304 L456.042,153 Z M464.268,153 L464.268,146.304 L462.828,146.304 L462.828,144.306 L464.268,144.306 L464.268,143.946 C464.268,141.984 465.438,140.814 467.184,140.814 C468.03,140.814 468.93,141.048 469.452,141.642 L468.588,143.028 C468.354,142.812 468.048,142.686 467.634,142.686 C466.986,142.686 466.554,143.1 466.554,143.946 L466.554,144.306 L468.318,144.306 L468.318,146.304 L466.554,146.304 L466.554,153 Z M475.5,153 L475.5,151.902 C474.906,152.55 473.862,153.216 472.44,153.216 C470.532,153.216 469.632,152.172 469.632,150.48 L469.632,144.306 L471.918,144.306 L471.918,149.58 C471.918,150.786 472.548,151.182 473.52,151.182 C474.402,151.182 475.104,150.696 475.5,150.192 L475.5,144.306 L477.786,144.306 L477.786,153 Z M480.054,153 L480.054,140.994 L482.34,140.994 L482.34,153 Z M484.608,153 L484.608,140.994 L486.894,140.994 L486.894,153 Z M488.568,149.616 L488.568,147.672 L492.888,147.672 L492.888,149.616 Z M497.478,153.216 C495.876,153.216 495.03,152.388 495.03,150.822 L495.03,146.304 L493.59,146.304 L493.59,144.306 L495.03,144.306 L495.03,141.93 L497.316,141.93 L497.316,144.306 L499.08,144.306 L499.08,146.304 L497.316,146.304 L497.316,150.21 C497.316,150.768 497.604,151.182 498.108,151.182 C498.45,151.182 498.774,151.056 498.9,150.912 L499.386,152.658 C499.044,152.964 498.432,153.216 497.478,153.216 Z M501.78,143.37 C501.042,143.37 500.43,142.758 500.43,142.002 C500.43,141.246 501.042,140.652 501.78,140.652 C502.536,140.652 503.148,141.246 503.148,142.002 C503.148,142.758 502.536,143.37 501.78,143.37 Z M500.646,153 L500.646,144.306 L502.932,144.306 L502.932,153 Z M515.982,153 L515.982,147.51 C515.982,146.7 515.622,146.124 514.686,146.124 C513.876,146.124 513.21,146.664 512.886,147.132 L512.886,153 L510.582,153 L510.582,147.51 C510.582,146.7 510.222,146.124 509.286,146.124 C508.494,146.124 507.828,146.664 507.486,147.132 L507.486,153 L505.2,153 L505.2,144.306 L507.486,144.306 L507.486,145.422 C507.864,144.918 508.998,144.09 510.33,144.09 C511.608,144.09 512.436,144.684 512.742,145.656 C513.246,144.882 514.398,144.09 515.73,144.09 C517.332,144.09 518.286,144.936 518.286,146.718 L518.286,153 Z M524.64,153.216 C521.994,153.216 519.996,151.434 519.996,148.644 C519.996,146.124 521.868,144.09 524.496,144.09 C527.106,144.09 528.852,146.034 528.852,148.86 L528.852,149.4 L522.39,149.4 C522.552,150.462 523.416,151.344 524.892,151.344 C525.63,151.344 526.638,151.038 527.196,150.498 L528.222,152.01 C527.358,152.802 525.99,153.216 524.64,153.216 Z M526.656,147.816 C526.584,146.988 526.008,145.962 524.496,145.962 C523.074,145.962 522.462,146.952 522.372,147.816 Z M432.102,175.216 C431.076,175.216 430.14,174.784 429.42,173.884 L429.42,178.312 L427.134,178.312 L427.134,166.306 L429.42,166.306 L429.42,167.404 C430.086,166.558 431.04,166.09 432.102,166.09 C434.334,166.09 435.954,167.746 435.954,170.644 C435.954,173.542 434.334,175.216 432.102,175.216 Z M431.382,173.182 C432.696,173.182 433.596,172.156 433.596,170.644 C433.596,169.15 432.696,168.124 431.382,168.124 C430.644,168.124 429.816,168.538 429.42,169.114 L429.42,172.174 C429.798,172.732 430.644,173.182 431.382,173.182 Z M437.628,175 L437.628,166.306 L439.914,166.306 L439.914,167.476 C440.544,166.72 441.606,166.09 442.686,166.09 L442.686,168.322 C442.524,168.286 442.326,168.268 442.056,168.268 C441.3,168.268 440.292,168.7 439.914,169.258 L439.914,175 Z M448.14,175.216 C445.278,175.216 443.55,173.11 443.55,170.644 C443.55,168.178 445.278,166.09 448.14,166.09 C451.02,166.09 452.748,168.178 452.748,170.644 C452.748,173.11 451.02,175.216 448.14,175.216 Z M448.14,173.182 C449.58,173.182 450.372,172.012 450.372,170.644 C450.372,169.294 449.58,168.124 448.14,168.124 C446.718,168.124 445.926,169.294 445.926,170.644 C445.926,172.012 446.718,173.182 448.14,173.182 Z M454.98,175 L454.98,168.304 L453.54,168.304 L453.54,166.306 L454.98,166.306 L454.98,165.946 C454.98,163.984 456.15,162.814 457.896,162.814 C458.742,162.814 459.642,163.048 460.164,163.642 L459.3,165.028 C459.066,164.812 458.76,164.686 458.346,164.686 C457.698,164.686 457.266,165.1 457.266,165.946 L457.266,166.306 L459.03,166.306 L459.03,168.304 L457.266,168.304 L457.266,175 Z M464.43,175.216 C461.784,175.216 459.786,173.434 459.786,170.644 C459.786,168.124 461.658,166.09 464.286,166.09 C466.896,166.09 468.642,168.034 468.642,170.86 L468.642,171.4 L462.18,171.4 C462.342,172.462 463.206,173.344 464.682,173.344 C465.42,173.344 466.428,173.038 466.986,172.498 L468.012,174.01 C467.148,174.802 465.78,175.216 464.43,175.216 Z M466.446,169.816 C466.374,168.988 465.798,167.962 464.286,167.962 C462.864,167.962 462.252,168.952 462.162,169.816 Z M473.43,175.216 C471.918,175.216 470.46,174.712 469.542,173.866 L470.532,172.21 C471.18,172.822 472.458,173.416 473.538,173.416 C474.528,173.416 474.996,173.038 474.996,172.498 C474.996,171.076 469.848,172.246 469.848,168.826 C469.848,167.368 471.108,166.09 473.412,166.09 C474.87,166.09 476.04,166.594 476.904,167.278 L475.986,168.898 C475.464,168.358 474.474,167.89 473.412,167.89 C472.584,167.89 472.044,168.25 472.044,168.736 C472.044,170.014 477.21,168.934 477.21,172.444 C477.21,174.046 475.842,175.216 473.43,175.216 Z M482.016,175.216 C480.504,175.216 479.046,174.712 478.128,173.866 L479.118,172.21 C479.766,172.822 481.044,173.416 482.124,173.416 C483.114,173.416 483.582,173.038 483.582,172.498 C483.582,171.076 478.434,172.246 478.434,168.826 C478.434,167.368 479.694,166.09 481.998,166.09 C483.456,166.09 484.626,166.594 485.49,167.278 L484.572,168.898 C484.05,168.358 483.06,167.89 481.998,167.89 C481.17,167.89 480.63,168.25 480.63,168.736 C480.63,170.014 485.796,168.934 485.796,172.444 C485.796,174.046 484.428,175.216 482.016,175.216 Z M488.604,165.37 C487.866,165.37 487.254,164.758 487.254,164.002 C487.254,163.246 487.866,162.652 488.604,162.652 C489.36,162.652 489.972,163.246 489.972,164.002 C489.972,164.758 489.36,165.37 488.604,165.37 Z M487.47,175 L487.47,166.306 L489.756,166.306 L489.756,175 Z M496.056,175.216 C493.194,175.216 491.466,173.11 491.466,170.644 C491.466,168.178 493.194,166.09 496.056,166.09 C498.936,166.09 500.664,168.178 500.664,170.644 C500.664,173.11 498.936,175.216 496.056,175.216 Z M496.056,173.182 C497.496,173.182 498.288,172.012 498.288,170.644 C498.288,169.294 497.496,168.124 496.056,168.124 C494.634,168.124 493.842,169.294 493.842,170.644 C493.842,172.012 494.634,173.182 496.056,173.182 Z M508.242,175 L508.242,169.744 C508.242,168.538 507.612,168.124 506.64,168.124 C505.74,168.124 505.056,168.628 504.66,169.132 L504.66,175 L502.374,175 L502.374,166.306 L504.66,166.306 L504.66,167.422 C505.218,166.774 506.298,166.09 507.702,166.09 C509.628,166.09 510.546,167.17 510.546,168.862 L510.546,175 Z M518.016,175 L518.016,174.082 C517.422,174.802 516.396,175.216 515.262,175.216 C513.876,175.216 512.256,174.28 512.256,172.336 C512.256,170.284 513.876,169.528 515.262,169.528 C516.432,169.528 517.44,169.906 518.016,170.59 L518.016,169.492 C518.016,168.61 517.26,168.034 516.108,168.034 C515.19,168.034 514.326,168.394 513.606,169.06 L512.706,167.458 C513.768,166.504 515.136,166.09 516.504,166.09 C518.502,166.09 520.32,166.882 520.32,169.384 L520.32,175 Z M516.18,173.668 C516.918,173.668 517.638,173.416 518.016,172.912 L518.016,171.832 C517.638,171.328 516.918,171.058 516.18,171.058 C515.28,171.058 514.542,171.544 514.542,172.372 C514.542,173.2 515.28,173.668 516.18,173.668 Z M522.57,175 L522.57,162.994 L524.856,162.994 L524.856,175 Z M530.256,175.216 C528.744,175.216 527.286,174.712 526.368,173.866 L527.358,172.21 C528.006,172.822 529.284,173.416 530.364,173.416 C531.354,173.416 531.822,173.038 531.822,172.498 C531.822,171.076 526.674,172.246 526.674,168.826 C526.674,167.368 527.934,166.09 530.238,166.09 C531.696,166.09 532.866,166.594 533.73,167.278 L532.812,168.898 C532.29,168.358 531.3,167.89 530.238,167.89 C529.41,167.89 528.87,168.25 528.87,168.736 C528.87,170.014 534.036,168.934 534.036,172.444 C534.036,174.046 532.668,175.216 530.256,175.216 Z M530.256,175.216" id="# of full-time" fill-opacity="0.4" fill="#FFFFFF"></path>
            <path d="M430.392,41 L431.436,37.94 L429.726,37.94 L428.7,41 L427.008,41 L428.034,37.94 L426.306,37.94 L426.774,36.482 L428.538,36.482 L429.51,33.512 L427.764,33.512 L428.214,32.072 L430.014,32.072 L431.022,28.994 L432.714,28.994 L431.706,32.072 L433.398,32.072 L434.406,28.994 L436.116,28.994 L435.072,32.072 L436.818,32.072 L436.404,33.512 L434.586,33.512 L433.596,36.482 L435.414,36.482 L434.964,37.94 L433.11,37.94 L432.102,41 Z M431.904,36.482 L432.894,33.512 L431.202,33.512 L430.23,36.482 Z M446.916,41.216 C444.054,41.216 442.326,39.11 442.326,36.644 C442.326,34.178 444.054,32.09 446.916,32.09 C449.796,32.09 451.524,34.178 451.524,36.644 C451.524,39.11 449.796,41.216 446.916,41.216 Z M446.916,39.182 C448.356,39.182 449.148,38.012 449.148,36.644 C449.148,35.294 448.356,34.124 446.916,34.124 C445.494,34.124 444.702,35.294 444.702,36.644 C444.702,38.012 445.494,39.182 446.916,39.182 Z M453.756,41 L453.756,34.304 L452.316,34.304 L452.316,32.306 L453.756,32.306 L453.756,31.946 C453.756,29.984 454.926,28.814 456.672,28.814 C457.518,28.814 458.418,29.048 458.94,29.642 L458.076,31.028 C457.842,30.812 457.536,30.686 457.122,30.686 C456.474,30.686 456.042,31.1 456.042,31.946 L456.042,32.306 L457.806,32.306 L457.806,34.304 L456.042,34.304 L456.042,41 Z M464.88,31.37 C464.142,31.37 463.53,30.758 463.53,30.002 C463.53,29.246 464.142,28.652 464.88,28.652 C465.636,28.652 466.248,29.246 466.248,30.002 C466.248,30.758 465.636,31.37 464.88,31.37 Z M463.746,41 L463.746,32.306 L466.032,32.306 L466.032,41 Z M474.168,41 L474.168,35.744 C474.168,34.538 473.538,34.124 472.566,34.124 C471.666,34.124 470.982,34.628 470.586,35.132 L470.586,41 L468.3,41 L468.3,32.306 L470.586,32.306 L470.586,33.422 C471.144,32.774 472.224,32.09 473.628,32.09 C475.554,32.09 476.472,33.17 476.472,34.862 L476.472,41 Z M484.698,41 L484.698,39.884 C484.014,40.748 483.078,41.216 482.016,41.216 C479.838,41.216 478.164,39.56 478.164,36.644 C478.164,33.818 479.802,32.09 482.016,32.09 C483.042,32.09 484.014,32.522 484.698,33.422 L484.698,28.994 L487.002,28.994 L487.002,41 Z M482.736,39.182 C483.492,39.182 484.32,38.768 484.698,38.192 L484.698,35.114 C484.32,34.538 483.492,34.124 482.736,34.124 C481.422,34.124 480.522,35.15 480.522,36.644 C480.522,38.156 481.422,39.182 482.736,39.182 Z M493.356,41.216 C490.71,41.216 488.712,39.434 488.712,36.644 C488.712,34.124 490.584,32.09 493.212,32.09 C495.822,32.09 497.568,34.034 497.568,36.86 L497.568,37.4 L491.106,37.4 C491.268,38.462 492.132,39.344 493.608,39.344 C494.346,39.344 495.354,39.038 495.912,38.498 L496.938,40.01 C496.074,40.802 494.706,41.216 493.356,41.216 Z M495.372,35.816 C495.3,34.988 494.724,33.962 493.212,33.962 C491.79,33.962 491.178,34.952 491.088,35.816 Z M504.192,41.216 C503.166,41.216 502.23,40.784 501.51,39.884 L501.51,44.312 L499.224,44.312 L499.224,32.306 L501.51,32.306 L501.51,33.404 C502.176,32.558 503.13,32.09 504.192,32.09 C506.424,32.09 508.044,33.746 508.044,36.644 C508.044,39.542 506.424,41.216 504.192,41.216 Z M503.472,39.182 C504.786,39.182 505.686,38.156 505.686,36.644 C505.686,35.15 504.786,34.124 503.472,34.124 C502.734,34.124 501.906,34.538 501.51,35.114 L501.51,38.174 C501.888,38.732 502.734,39.182 503.472,39.182 Z M513.804,41.216 C511.158,41.216 509.16,39.434 509.16,36.644 C509.16,34.124 511.032,32.09 513.66,32.09 C516.27,32.09 518.016,34.034 518.016,36.86 L518.016,37.4 L511.554,37.4 C511.716,38.462 512.58,39.344 514.056,39.344 C514.794,39.344 515.802,39.038 516.36,38.498 L517.386,40.01 C516.522,40.802 515.154,41.216 513.804,41.216 Z M515.82,35.816 C515.748,34.988 515.172,33.962 513.66,33.962 C512.238,33.962 511.626,34.952 511.536,35.816 Z M525.54,41 L525.54,35.744 C525.54,34.538 524.91,34.124 523.938,34.124 C523.038,34.124 522.354,34.628 521.958,35.132 L521.958,41 L519.672,41 L519.672,32.306 L521.958,32.306 L521.958,33.422 C522.516,32.774 523.596,32.09 525,32.09 C526.926,32.09 527.844,33.17 527.844,34.862 L527.844,41 Z M536.07,41 L536.07,39.884 C535.386,40.748 534.45,41.216 533.388,41.216 C531.21,41.216 529.536,39.56 529.536,36.644 C529.536,33.818 531.174,32.09 533.388,32.09 C534.414,32.09 535.386,32.522 536.07,33.422 L536.07,28.994 L538.374,28.994 L538.374,41 Z M534.108,39.182 C534.864,39.182 535.692,38.768 536.07,38.192 L536.07,35.114 C535.692,34.538 534.864,34.124 534.108,34.124 C532.794,34.124 531.894,35.15 531.894,36.644 C531.894,38.156 532.794,39.182 534.108,39.182 Z M544.728,41.216 C542.082,41.216 540.084,39.434 540.084,36.644 C540.084,34.124 541.956,32.09 544.584,32.09 C547.194,32.09 548.94,34.034 548.94,36.86 L548.94,37.4 L542.478,37.4 C542.64,38.462 543.504,39.344 544.98,39.344 C545.718,39.344 546.726,39.038 547.284,38.498 L548.31,40.01 C547.446,40.802 546.078,41.216 544.728,41.216 Z M546.744,35.816 C546.672,34.988 546.096,33.962 544.584,33.962 C543.162,33.962 542.55,34.952 542.46,35.816 Z M556.464,41 L556.464,35.744 C556.464,34.538 555.834,34.124 554.862,34.124 C553.962,34.124 553.278,34.628 552.882,35.132 L552.882,41 L550.596,41 L550.596,32.306 L552.882,32.306 L552.882,33.422 C553.44,32.774 554.52,32.09 555.924,32.09 C557.85,32.09 558.768,33.17 558.768,34.862 L558.768,41 Z M563.934,41.216 C562.332,41.216 561.486,40.388 561.486,38.822 L561.486,34.304 L560.046,34.304 L560.046,32.306 L561.486,32.306 L561.486,29.93 L563.772,29.93 L563.772,32.306 L565.536,32.306 L565.536,34.304 L563.772,34.304 L563.772,38.21 C563.772,38.768 564.06,39.182 564.564,39.182 C564.906,39.182 565.23,39.056 565.356,38.912 L565.842,40.658 C565.5,40.964 564.888,41.216 563.934,41.216 Z M432.102,63.216 C431.076,63.216 430.14,62.784 429.42,61.884 L429.42,66.312 L427.134,66.312 L427.134,54.306 L429.42,54.306 L429.42,55.404 C430.086,54.558 431.04,54.09 432.102,54.09 C434.334,54.09 435.954,55.746 435.954,58.644 C435.954,61.542 434.334,63.216 432.102,63.216 Z M431.382,61.182 C432.696,61.182 433.596,60.156 433.596,58.644 C433.596,57.15 432.696,56.124 431.382,56.124 C430.644,56.124 429.816,56.538 429.42,57.114 L429.42,60.174 C429.798,60.732 430.644,61.182 431.382,61.182 Z M437.628,63 L437.628,54.306 L439.914,54.306 L439.914,55.476 C440.544,54.72 441.606,54.09 442.686,54.09 L442.686,56.322 C442.524,56.286 442.326,56.268 442.056,56.268 C441.3,56.268 440.292,56.7 439.914,57.258 L439.914,63 Z M448.14,63.216 C445.278,63.216 443.55,61.11 443.55,58.644 C443.55,56.178 445.278,54.09 448.14,54.09 C451.02,54.09 452.748,56.178 452.748,58.644 C452.748,61.11 451.02,63.216 448.14,63.216 Z M448.14,61.182 C449.58,61.182 450.372,60.012 450.372,58.644 C450.372,57.294 449.58,56.124 448.14,56.124 C446.718,56.124 445.926,57.294 445.926,58.644 C445.926,60.012 446.718,61.182 448.14,61.182 Z M454.98,63 L454.98,56.304 L453.54,56.304 L453.54,54.306 L454.98,54.306 L454.98,53.946 C454.98,51.984 456.15,50.814 457.896,50.814 C458.742,50.814 459.642,51.048 460.164,51.642 L459.3,53.028 C459.066,52.812 458.76,52.686 458.346,52.686 C457.698,52.686 457.266,53.1 457.266,53.946 L457.266,54.306 L459.03,54.306 L459.03,56.304 L457.266,56.304 L457.266,63 Z M464.43,63.216 C461.784,63.216 459.786,61.434 459.786,58.644 C459.786,56.124 461.658,54.09 464.286,54.09 C466.896,54.09 468.642,56.034 468.642,58.86 L468.642,59.4 L462.18,59.4 C462.342,60.462 463.206,61.344 464.682,61.344 C465.42,61.344 466.428,61.038 466.986,60.498 L468.012,62.01 C467.148,62.802 465.78,63.216 464.43,63.216 Z M466.446,57.816 C466.374,56.988 465.798,55.962 464.286,55.962 C462.864,55.962 462.252,56.952 462.162,57.816 Z M473.43,63.216 C471.918,63.216 470.46,62.712 469.542,61.866 L470.532,60.21 C471.18,60.822 472.458,61.416 473.538,61.416 C474.528,61.416 474.996,61.038 474.996,60.498 C474.996,59.076 469.848,60.246 469.848,56.826 C469.848,55.368 471.108,54.09 473.412,54.09 C474.87,54.09 476.04,54.594 476.904,55.278 L475.986,56.898 C475.464,56.358 474.474,55.89 473.412,55.89 C472.584,55.89 472.044,56.25 472.044,56.736 C472.044,58.014 477.21,56.934 477.21,60.444 C477.21,62.046 475.842,63.216 473.43,63.216 Z M482.016,63.216 C480.504,63.216 479.046,62.712 478.128,61.866 L479.118,60.21 C479.766,60.822 481.044,61.416 482.124,61.416 C483.114,61.416 483.582,61.038 483.582,60.498 C483.582,59.076 478.434,60.246 478.434,56.826 C478.434,55.368 479.694,54.09 481.998,54.09 C483.456,54.09 484.626,54.594 485.49,55.278 L484.572,56.898 C484.05,56.358 483.06,55.89 481.998,55.89 C481.17,55.89 480.63,56.25 480.63,56.736 C480.63,58.014 485.796,56.934 485.796,60.444 C485.796,62.046 484.428,63.216 482.016,63.216 Z M488.604,53.37 C487.866,53.37 487.254,52.758 487.254,52.002 C487.254,51.246 487.866,50.652 488.604,50.652 C489.36,50.652 489.972,51.246 489.972,52.002 C489.972,52.758 489.36,53.37 488.604,53.37 Z M487.47,63 L487.47,54.306 L489.756,54.306 L489.756,63 Z M496.056,63.216 C493.194,63.216 491.466,61.11 491.466,58.644 C491.466,56.178 493.194,54.09 496.056,54.09 C498.936,54.09 500.664,56.178 500.664,58.644 C500.664,61.11 498.936,63.216 496.056,63.216 Z M496.056,61.182 C497.496,61.182 498.288,60.012 498.288,58.644 C498.288,57.294 497.496,56.124 496.056,56.124 C494.634,56.124 493.842,57.294 493.842,58.644 C493.842,60.012 494.634,61.182 496.056,61.182 Z M508.242,63 L508.242,57.744 C508.242,56.538 507.612,56.124 506.64,56.124 C505.74,56.124 505.056,56.628 504.66,57.132 L504.66,63 L502.374,63 L502.374,54.306 L504.66,54.306 L504.66,55.422 C505.218,54.774 506.298,54.09 507.702,54.09 C509.628,54.09 510.546,55.17 510.546,56.862 L510.546,63 Z M518.016,63 L518.016,62.082 C517.422,62.802 516.396,63.216 515.262,63.216 C513.876,63.216 512.256,62.28 512.256,60.336 C512.256,58.284 513.876,57.528 515.262,57.528 C516.432,57.528 517.44,57.906 518.016,58.59 L518.016,57.492 C518.016,56.61 517.26,56.034 516.108,56.034 C515.19,56.034 514.326,56.394 513.606,57.06 L512.706,55.458 C513.768,54.504 515.136,54.09 516.504,54.09 C518.502,54.09 520.32,54.882 520.32,57.384 L520.32,63 Z M516.18,61.668 C516.918,61.668 517.638,61.416 518.016,60.912 L518.016,59.832 C517.638,59.328 516.918,59.058 516.18,59.058 C515.28,59.058 514.542,59.544 514.542,60.372 C514.542,61.2 515.28,61.668 516.18,61.668 Z M522.57,63 L522.57,50.994 L524.856,50.994 L524.856,63 Z M530.256,63.216 C528.744,63.216 527.286,62.712 526.368,61.866 L527.358,60.21 C528.006,60.822 529.284,61.416 530.364,61.416 C531.354,61.416 531.822,61.038 531.822,60.498 C531.822,59.076 526.674,60.246 526.674,56.826 C526.674,55.368 527.934,54.09 530.238,54.09 C531.696,54.09 532.866,54.594 533.73,55.278 L532.812,56.898 C532.29,56.358 531.3,55.89 530.238,55.89 C529.41,55.89 528.87,56.25 528.87,56.736 C528.87,58.014 534.036,56.934 534.036,60.444 C534.036,62.046 532.668,63.216 530.256,63.216 Z M530.256,63.216" id="# of independent" fill="#2FADD8"></path>
        </g>
    </g>
</svg>