<?xml version="1.0" encoding="UTF-8" standalone="no"?>
<svg width="798px" height="127px" viewBox="0 0 798 127" version="1.1" xmlns="http://www.w3.org/2000/svg" xmlns:xlink="http://www.w3.org/1999/xlink" xmlns:sketch="http://www.bohemiancoding.com/sketch/ns">
    <title>Slice 1</title>
    <description>Created with Sketch (http://www.bohemiancoding.com/sketch)</description>
    <defs></defs>
    <g id="Page 1" stroke="none" stroke-width="1" fill="none" fill-rule="evenodd">
        <g id="Graph 2" transform="translate(0.000000, 13.000000)">
            <g id="Bar 1" fill="#2FADD8">
                <path d="M0,0 L0,45 L230,45 L230,0 L0,0 Z M0,0" id="Rectangle 1"></path>
            </g>
            <g id="Bar 2" transform="translate(0.000000, 54.000000)">
                <path d="M0,0 L0,45 L545,45 L545,0 L0,0 Z M0,0" id="Rectangle 1" fill="#1A3F4F"></path>
                <path d="M585.94,29.24 C582.12,29.24 580.42,25.78 580.42,22.34 C580.42,18.9 582.12,15.46 585.94,15.46 C589.76,15.46 591.46,18.9 591.46,22.34 C591.46,25.78 589.76,29.24 585.94,29.24 Z M573.66,29.24 C571.22,29.24 569.38,28.3 568.4,27.1 L569.9,25.2 C570.8,26.16 572.26,26.72 573.56,26.72 C575.18,26.72 576.08,26.02 576.08,25.02 C576.08,23.96 575.26,23.48 573.4,23.48 C572.84,23.48 571.94,23.5 571.74,23.52 L571.74,20.96 C571.98,20.98 572.9,20.98 573.4,20.98 C574.88,20.98 575.88,20.54 575.88,19.56 C575.88,18.5 574.78,17.98 573.4,17.98 C572.1,17.98 570.94,18.46 570,19.36 L568.58,17.58 C569.66,16.36 571.34,15.46 573.68,15.46 C576.8,15.46 578.72,16.86 578.72,19.08 C578.72,20.76 577.28,21.86 575.8,22.12 C577.16,22.26 578.92,23.32 578.92,25.32 C578.92,27.62 576.86,29.24 573.66,29.24 Z M585.94,26.72 C587.84,26.72 588.56,24.8 588.56,22.34 C588.56,19.88 587.86,17.98 585.94,17.98 C584.04,17.98 583.32,19.88 583.32,22.34 C583.32,24.8 584.04,26.72 585.94,26.72 Z M598.34,29.24 C594.52,29.24 592.82,25.78 592.82,22.34 C592.82,18.9 594.52,15.46 598.34,15.46 C602.16,15.46 603.86,18.9 603.86,22.34 C603.86,25.78 602.16,29.24 598.34,29.24 Z M598.34,26.72 C600.24,26.72 600.96,24.8 600.96,22.34 C600.96,19.88 600.26,17.98 598.34,17.98 C596.44,17.98 595.72,19.88 595.72,22.34 C595.72,24.8 596.44,26.72 598.34,26.72 Z M610.74,29.24 C606.92,29.24 605.22,25.78 605.22,22.34 C605.22,18.9 606.92,15.46 610.74,15.46 C614.56,15.46 616.26,18.9 616.26,22.34 C616.26,25.78 614.56,29.24 610.74,29.24 Z M610.74,26.72 C612.64,26.72 613.36,24.8 613.36,22.34 C613.36,19.88 612.66,17.98 610.74,17.98 C608.84,17.98 608.12,19.88 608.12,22.34 C608.12,24.8 608.84,26.72 610.74,26.72 Z M622.86,23.04 L622.86,27.1 L621.12,27.1 L621.12,23.04 L617.52,23.04 L617.52,21.46 L621.12,21.46 L621.12,17.54 L622.86,17.54 L622.86,21.46 L626.44,21.46 L626.44,23.04 Z M637.9,29.24 C634.72,29.24 632.8,26.9 632.8,24.16 C632.8,21.42 634.72,19.1 637.9,19.1 C641.1,19.1 643.02,21.42 643.02,24.16 C643.02,26.9 641.1,29.24 637.9,29.24 Z M637.9,26.98 C639.5,26.98 640.38,25.68 640.38,24.16 C640.38,22.66 639.5,21.36 637.9,21.36 C636.32,21.36 635.44,22.66 635.44,24.16 C635.44,25.68 636.32,26.98 637.9,26.98 Z M651.44,29 L651.44,23.16 C651.44,21.82 650.74,21.36 649.66,21.36 C648.66,21.36 647.9,21.92 647.46,22.48 L647.46,29 L644.92,29 L644.92,19.34 L647.46,19.34 L647.46,20.58 C648.08,19.86 649.28,19.1 650.84,19.1 C652.98,19.1 654,20.3 654,22.18 L654,29 Z M664.88,29.24 C663.1,29.24 662.16,28.32 662.16,26.58 L662.16,21.56 L660.56,21.56 L660.56,19.34 L662.16,19.34 L662.16,16.7 L664.7,16.7 L664.7,19.34 L666.66,19.34 L666.66,21.56 L664.7,21.56 L664.7,25.9 C664.7,26.52 665.02,26.98 665.58,26.98 C665.96,26.98 666.32,26.84 666.46,26.68 L667,28.62 C666.62,28.96 665.94,29.24 664.88,29.24 Z M674.94,29 L674.94,23.12 C674.94,21.78 674.24,21.36 673.16,21.36 C672.16,21.36 671.38,21.92 670.96,22.48 L670.96,29 L668.4,29 L668.4,15.66 L670.96,15.66 L670.96,20.58 C671.58,19.86 672.76,19.1 674.34,19.1 C676.46,19.1 677.48,20.26 677.48,22.14 L677.48,29 Z M684.54,29.24 C681.6,29.24 679.38,27.26 679.38,24.16 C679.38,21.36 681.46,19.1 684.38,19.1 C687.28,19.1 689.22,21.26 689.22,24.4 L689.22,25 L682.04,25 C682.22,26.18 683.18,27.16 684.82,27.16 C685.64,27.16 686.76,26.82 687.38,26.22 L688.52,27.9 C687.56,28.78 686.04,29.24 684.54,29.24 Z M686.78,23.24 C686.7,22.32 686.06,21.18 684.38,21.18 C682.8,21.18 682.12,22.28 682.02,23.24 Z M704.68,29 L702.64,22.42 L700.6,29 L697.88,29 L694.94,19.34 L697.58,19.34 L699.38,25.84 L701.5,19.34 L703.76,19.34 L705.88,25.84 L707.68,19.34 L710.34,19.34 L707.4,29 Z M717.4,29 L717.4,27.98 C716.74,28.78 715.6,29.24 714.34,29.24 C712.8,29.24 711,28.2 711,26.04 C711,23.76 712.8,22.92 714.34,22.92 C715.64,22.92 716.76,23.34 717.4,24.1 L717.4,22.88 C717.4,21.9 716.56,21.26 715.28,21.26 C714.26,21.26 713.3,21.66 712.5,22.4 L711.5,20.62 C712.68,19.56 714.2,19.1 715.72,19.1 C717.94,19.1 719.96,19.98 719.96,22.76 L719.96,29 Z M715.36,27.52 C716.18,27.52 716.98,27.24 717.4,26.68 L717.4,25.48 C716.98,24.92 716.18,24.62 715.36,24.62 C714.36,24.62 713.54,25.16 713.54,26.08 C713.54,27 714.36,27.52 715.36,27.52 Z M723.72,18.3 C722.9,18.3 722.22,17.62 722.22,16.78 C722.22,15.94 722.9,15.28 723.72,15.28 C724.56,15.28 725.24,15.94 725.24,16.78 C725.24,17.62 724.56,18.3 723.72,18.3 Z M722.46,29 L722.46,19.34 L725,19.34 L725,29 Z M730.76,29.24 C728.98,29.24 728.04,28.32 728.04,26.58 L728.04,21.56 L726.44,21.56 L726.44,19.34 L728.04,19.34 L728.04,16.7 L730.58,16.7 L730.58,19.34 L732.54,19.34 L732.54,21.56 L730.58,21.56 L730.58,25.9 C730.58,26.52 730.9,26.98 731.46,26.98 C731.84,26.98 732.2,26.84 732.34,26.68 L732.88,28.62 C732.5,28.96 731.82,29.24 730.76,29.24 Z M735.54,18.3 C734.72,18.3 734.04,17.62 734.04,16.78 C734.04,15.94 734.72,15.28 735.54,15.28 C736.38,15.28 737.06,15.94 737.06,16.78 C737.06,17.62 736.38,18.3 735.54,18.3 Z M734.28,29 L734.28,19.34 L736.82,19.34 L736.82,29 Z M745.86,29 L745.86,23.16 C745.86,21.82 745.16,21.36 744.08,21.36 C743.08,21.36 742.32,21.92 741.88,22.48 L741.88,29 L739.34,29 L739.34,19.34 L741.88,19.34 L741.88,20.58 C742.5,19.86 743.7,19.1 745.26,19.1 C747.4,19.1 748.42,20.3 748.42,22.18 L748.42,29 Z M754.88,32.92 C753.24,32.92 751.94,32.54 750.72,31.48 L751.86,29.66 C752.64,30.5 753.68,30.84 754.88,30.84 C756.1,30.84 757.56,30.32 757.56,28.36 L757.56,27.42 C756.8,28.38 755.76,28.92 754.56,28.92 C752.16,28.92 750.3,27.24 750.3,24.02 C750.3,20.86 752.12,19.1 754.56,19.1 C755.72,19.1 756.78,19.58 757.56,20.58 L757.56,19.34 L760.1,19.34 L760.1,28.36 C760.1,32.02 757.26,32.92 754.88,32.92 Z M755.38,26.68 C756.2,26.68 757.12,26.2 757.56,25.58 L757.56,22.44 C757.12,21.82 756.2,21.36 755.38,21.36 C753.92,21.36 752.92,22.36 752.92,24.02 C752.92,25.68 753.92,26.68 755.38,26.68 Z M767.76,29 L767.76,15.66 L770.3,15.66 L770.3,29 Z M774.08,18.3 C773.26,18.3 772.58,17.62 772.58,16.78 C772.58,15.94 773.26,15.28 774.08,15.28 C774.92,15.28 775.6,15.94 775.6,16.78 C775.6,17.62 774.92,18.3 774.08,18.3 Z M772.82,29 L772.82,19.34 L775.36,19.34 L775.36,29 Z M781.36,29.24 C779.68,29.24 778.06,28.68 777.04,27.74 L778.14,25.9 C778.86,26.58 780.28,27.24 781.48,27.24 C782.58,27.24 783.1,26.82 783.1,26.22 C783.1,24.64 777.38,25.94 777.38,22.14 C777.38,20.52 778.78,19.1 781.34,19.1 C782.96,19.1 784.26,19.66 785.22,20.42 L784.2,22.22 C783.62,21.62 782.52,21.1 781.34,21.1 C780.42,21.1 779.82,21.5 779.82,22.04 C779.82,23.46 785.56,22.26 785.56,26.16 C785.56,27.94 784.04,29.24 781.36,29.24 Z M790.66,29.24 C788.88,29.24 787.94,28.32 787.94,26.58 L787.94,21.56 L786.34,21.56 L786.34,19.34 L787.94,19.34 L787.94,16.7 L790.48,16.7 L790.48,19.34 L792.44,19.34 L792.44,21.56 L790.48,21.56 L790.48,25.9 C790.48,26.52 790.8,26.98 791.36,26.98 C791.74,26.98 792.1,26.84 792.24,26.68 L792.78,28.62 C792.4,28.96 791.72,29.24 790.66,29.24 Z M790.66,29.24" id="3000+ on the waiting" fill="#FFFFFF"></path>
            </g>
            <path d="M254.56,29 L254.56,19.32 L252.34,21.58 L250.72,19.88 L254.92,15.66 L257.4,15.66 L257.4,29 Z M264.92,29.24 C261.1,29.24 259.4,25.78 259.4,22.34 C259.4,18.9 261.1,15.46 264.92,15.46 C268.74,15.46 270.44,18.9 270.44,22.34 C270.44,25.78 268.74,29.24 264.92,29.24 Z M264.92,26.72 C266.82,26.72 267.54,24.8 267.54,22.34 C267.54,19.88 266.84,17.98 264.92,17.98 C263.02,17.98 262.3,19.88 262.3,22.34 C262.3,24.8 263.02,26.72 264.92,26.72 Z M277.32,29.24 C273.5,29.24 271.8,25.78 271.8,22.34 C271.8,18.9 273.5,15.46 277.32,15.46 C281.14,15.46 282.84,18.9 282.84,22.34 C282.84,25.78 281.14,29.24 277.32,29.24 Z M277.32,26.72 C279.22,26.72 279.94,24.8 279.94,22.34 C279.94,19.88 279.24,17.98 277.32,17.98 C275.42,17.98 274.7,19.88 274.7,22.34 C274.7,24.8 275.42,26.72 277.32,26.72 Z M289.72,29.24 C285.9,29.24 284.2,25.78 284.2,22.34 C284.2,18.9 285.9,15.46 289.72,15.46 C293.54,15.46 295.24,18.9 295.24,22.34 C295.24,25.78 293.54,29.24 289.72,29.24 Z M289.72,26.72 C291.62,26.72 292.34,24.8 292.34,22.34 C292.34,19.88 291.64,17.98 289.72,17.98 C287.82,17.98 287.1,19.88 287.1,22.34 C287.1,24.8 287.82,26.72 289.72,26.72 Z M301.84,23.04 L301.84,27.1 L300.1,27.1 L300.1,23.04 L296.5,23.04 L296.5,21.46 L300.1,21.46 L300.1,17.54 L301.84,17.54 L301.84,21.46 L305.42,21.46 L305.42,23.04 Z M324.38,29 L324.38,22.9 C324.38,22 323.98,21.36 322.94,21.36 C322.04,21.36 321.3,21.96 320.94,22.48 L320.94,29 L318.38,29 L318.38,22.9 C318.38,22 317.98,21.36 316.94,21.36 C316.06,21.36 315.32,21.96 314.94,22.48 L314.94,29 L312.4,29 L312.4,19.34 L314.94,19.34 L314.94,20.58 C315.36,20.02 316.62,19.1 318.1,19.1 C319.52,19.1 320.44,19.76 320.78,20.84 C321.34,19.98 322.62,19.1 324.1,19.1 C325.88,19.1 326.94,20.04 326.94,22.02 L326.94,29 Z M334,29.24 C331.06,29.24 328.84,27.26 328.84,24.16 C328.84,21.36 330.92,19.1 333.84,19.1 C336.74,19.1 338.68,21.26 338.68,24.4 L338.68,25 L331.5,25 C331.68,26.18 332.64,27.16 334.28,27.16 C335.1,27.16 336.22,26.82 336.84,26.22 L337.98,27.9 C337.02,28.78 335.5,29.24 334,29.24 Z M336.24,23.24 C336.16,22.32 335.52,21.18 333.84,21.18 C332.26,21.18 331.58,22.28 331.48,23.24 Z M352.5,29 L352.5,22.9 C352.5,22 352.1,21.36 351.06,21.36 C350.16,21.36 349.42,21.96 349.06,22.48 L349.06,29 L346.5,29 L346.5,22.9 C346.5,22 346.1,21.36 345.06,21.36 C344.18,21.36 343.44,21.96 343.06,22.48 L343.06,29 L340.52,29 L340.52,19.34 L343.06,19.34 L343.06,20.58 C343.48,20.02 344.74,19.1 346.22,19.1 C347.64,19.1 348.56,19.76 348.9,20.84 C349.46,19.98 350.74,19.1 352.22,19.1 C354,19.1 355.06,20.04 355.06,22.02 L355.06,29 Z M360.12,25.9 C360.56,26.52 361.48,26.98 362.32,26.98 C363.78,26.98 364.76,25.84 364.76,24.16 C364.76,22.5 363.78,21.36 362.32,21.36 C361.48,21.36 360.56,21.84 360.12,22.48 Z M357.58,29 L357.58,15.66 L360.12,15.66 L360.12,20.58 C360.88,19.58 361.96,19.1 363.1,19.1 C365.56,19.1 367.38,21.02 367.38,24.16 C367.38,27.4 365.54,29.24 363.1,29.24 C361.94,29.24 360.88,28.72 360.12,27.76 L360.12,29 Z M373.84,29.24 C370.9,29.24 368.68,27.26 368.68,24.16 C368.68,21.36 370.76,19.1 373.68,19.1 C376.58,19.1 378.52,21.26 378.52,24.4 L378.52,25 L371.34,25 C371.52,26.18 372.48,27.16 374.12,27.16 C374.94,27.16 376.06,26.82 376.68,26.22 L377.82,27.9 C376.86,28.78 375.34,29.24 373.84,29.24 Z M376.08,23.24 C376,22.32 375.36,21.18 373.68,21.18 C372.1,21.18 371.42,22.28 371.32,23.24 Z M380.36,29 L380.36,19.34 L382.9,19.34 L382.9,20.64 C383.6,19.8 384.78,19.1 385.98,19.1 L385.98,21.58 C385.8,21.54 385.58,21.52 385.28,21.52 C384.44,21.52 383.32,22 382.9,22.62 L382.9,29 Z M391.04,29.24 C389.36,29.24 387.74,28.68 386.72,27.74 L387.82,25.9 C388.54,26.58 389.96,27.24 391.16,27.24 C392.26,27.24 392.78,26.82 392.78,26.22 C392.78,24.64 387.06,25.94 387.06,22.14 C387.06,20.52 388.46,19.1 391.02,19.1 C392.64,19.1 393.94,19.66 394.9,20.42 L393.88,22.22 C393.3,21.62 392.2,21.1 391.02,21.1 C390.1,21.1 389.5,21.5 389.5,22.04 C389.5,23.46 395.24,22.26 395.24,26.16 C395.24,27.94 393.72,29.24 391.04,29.24 Z M391.04,29.24" id="1000+ members" fill="#FFFFFF"></path>
        </g>
    </g>
</svg>