<?xml version="1.0" encoding="UTF-8" standalone="no"?>
<svg width="682px" height="531px" viewBox="0 0 682 531" version="1.1" xmlns="http://www.w3.org/2000/svg" xmlns:xlink="http://www.w3.org/1999/xlink" xmlns:sketch="http://www.bohemiancoding.com/sketch/ns">
    <title>Slice 4</title>
    <description>Created with Sketch (http://www.bohemiancoding.com/sketch)</description>
    <defs></defs>
    <g id="Page 1" stroke="none" stroke-width="1" fill="none" fill-rule="evenodd">
        <path d="M117,461.545863 L212.023437,448.713754 L304.726562,391.990388 L393.3125,339.615916 L478.566406,263.853209 L571.925781,155.081059 L657.214844,40.5729675 L657.214844,489.572959 L117,489.572968" id="Path 314" fill="#2FADD8"></path>
        <path d="M10.842,53.8 L10.842,52.18 C8.988,52.036 7.602,51.298 6.648,50.308 L7.836,48.67 C8.502,49.408 9.546,50.092 10.842,50.29 L10.842,46.798 C8.988,46.33 7.044,45.664 7.044,43.324 C7.044,41.488 8.52,40.03 10.842,39.832 L10.842,38.176 L12.282,38.176 L12.282,39.85 C13.74,40.012 14.964,40.588 15.9,41.488 L14.712,43.054 C14.028,42.37 13.164,41.956 12.282,41.776 L12.282,44.89 C14.154,45.376 16.188,46.078 16.188,48.49 C16.188,50.326 14.982,51.946 12.282,52.18 L12.282,53.8 Z M14.028,48.688 C14.028,47.878 13.272,47.482 12.282,47.176 L12.282,50.308 C13.524,50.128 14.028,49.39 14.028,48.688 Z M9.204,43.162 C9.204,43.864 9.888,44.224 10.842,44.512 L10.842,41.686 C9.834,41.812 9.204,42.37 9.204,43.162 Z M20.346,52 L20.346,42.712 L18.384,44.764 L17.16,43.486 L20.616,39.994 L22.452,39.994 L22.452,52 Z M27.294,51.316 C27.294,52.558 26.61,53.692 25.62,54.394 L24.756,53.692 C25.332,53.35 25.944,52.612 26.052,52 C26.016,52.018 25.872,52.054 25.746,52.054 C25.152,52.054 24.684,51.568 24.684,50.902 C24.684,50.236 25.224,49.678 25.908,49.678 C26.646,49.678 27.294,50.272 27.294,51.316 Z M33.252,52.216 C29.868,52.216 28.446,49.012 28.446,46.006 C28.446,42.982 29.868,39.814 33.252,39.814 C36.618,39.814 38.04,42.982 38.04,46.006 C38.04,49.012 36.618,52.216 33.252,52.216 Z M33.252,50.344 C35.196,50.344 35.898,48.292 35.898,46.006 C35.898,43.702 35.214,41.686 33.252,41.686 C31.29,41.686 30.588,43.702 30.588,46.006 C30.588,48.292 31.29,50.344 33.252,50.344 Z M44.358,52.216 C40.974,52.216 39.552,49.012 39.552,46.006 C39.552,42.982 40.974,39.814 44.358,39.814 C47.724,39.814 49.146,42.982 49.146,46.006 C49.146,49.012 47.724,52.216 44.358,52.216 Z M44.358,50.344 C46.302,50.344 47.004,48.292 47.004,46.006 C47.004,43.702 46.32,41.686 44.358,41.686 C42.396,41.686 41.694,43.702 41.694,46.006 C41.694,48.292 42.396,50.344 44.358,50.344 Z M55.464,52.216 C52.08,52.216 50.658,49.012 50.658,46.006 C50.658,42.982 52.08,39.814 55.464,39.814 C58.83,39.814 60.252,42.982 60.252,46.006 C60.252,49.012 58.83,52.216 55.464,52.216 Z M55.464,50.344 C57.408,50.344 58.11,48.292 58.11,46.006 C58.11,43.702 57.426,41.686 55.464,41.686 C53.502,41.686 52.8,43.702 52.8,46.006 C52.8,48.292 53.502,50.344 55.464,50.344 Z M64.122,51.316 C64.122,52.558 63.438,53.692 62.448,54.394 L61.584,53.692 C62.16,53.35 62.772,52.612 62.88,52 C62.844,52.018 62.7,52.054 62.574,52.054 C61.98,52.054 61.512,51.568 61.512,50.902 C61.512,50.236 62.052,49.678 62.736,49.678 C63.474,49.678 64.122,50.272 64.122,51.316 Z M70.08,52.216 C66.696,52.216 65.274,49.012 65.274,46.006 C65.274,42.982 66.696,39.814 70.08,39.814 C73.446,39.814 74.868,42.982 74.868,46.006 C74.868,49.012 73.446,52.216 70.08,52.216 Z M70.08,50.344 C72.024,50.344 72.726,48.292 72.726,46.006 C72.726,43.702 72.042,41.686 70.08,41.686 C68.118,41.686 67.416,43.702 67.416,46.006 C67.416,48.292 68.118,50.344 70.08,50.344 Z M81.186,52.216 C77.802,52.216 76.38,49.012 76.38,46.006 C76.38,42.982 77.802,39.814 81.186,39.814 C84.552,39.814 85.974,42.982 85.974,46.006 C85.974,49.012 84.552,52.216 81.186,52.216 Z M81.186,50.344 C83.13,50.344 83.832,48.292 83.832,46.006 C83.832,43.702 83.148,41.686 81.186,41.686 C79.224,41.686 78.522,43.702 78.522,46.006 C78.522,48.292 79.224,50.344 81.186,50.344 Z M92.292,52.216 C88.908,52.216 87.486,49.012 87.486,46.006 C87.486,42.982 88.908,39.814 92.292,39.814 C95.658,39.814 97.08,42.982 97.08,46.006 C97.08,49.012 95.658,52.216 92.292,52.216 Z M92.292,50.344 C94.236,50.344 94.938,48.292 94.938,46.006 C94.938,43.702 94.254,41.686 92.292,41.686 C90.33,41.686 89.628,43.702 89.628,46.006 C89.628,48.292 90.33,50.344 92.292,50.344 Z M92.292,50.344" id="$1,000,000" fill="#FFFFFF"></path>
        <path d="M19.842,138.18 C17.988,138.036 16.602,137.298 15.648,136.308 L16.836,134.67 C17.502,135.408 18.546,136.092 19.842,136.29 L19.842,132.798 C17.988,132.33 16.044,131.664 16.044,129.324 C16.044,127.488 17.52,126.03 19.842,125.832 L19.842,124.176 L21.282,124.176 L21.282,125.85 C22.74,126.012 23.964,126.588 24.9,127.488 L23.712,129.054 C23.028,128.37 22.164,127.956 21.282,127.776 L21.282,130.89 C23.154,131.376 25.188,132.078 25.188,134.49 C25.188,136.326 23.982,137.946 21.282,138.18 L21.282,139.8 L19.842,139.8 Z M23.028,134.688 C23.028,133.878 22.272,133.482 21.282,133.176 L21.282,136.308 C22.524,136.128 23.028,135.39 23.028,134.688 Z M18.204,129.162 C18.204,129.864 18.888,130.224 19.842,130.512 L19.842,127.686 C18.834,127.812 18.204,128.37 18.204,129.162 Z M31.254,138.216 C28.788,138.216 26.646,137.064 26.646,134.904 C26.646,133.392 27.888,132.294 29.346,131.808 C27.996,131.376 26.844,130.476 26.844,128.964 C26.844,126.732 29.13,125.814 31.254,125.814 C33.378,125.814 35.664,126.732 35.664,128.964 C35.664,130.476 34.512,131.376 33.162,131.808 C34.62,132.294 35.862,133.392 35.862,134.904 C35.862,137.064 33.702,138.216 31.254,138.216 Z M31.254,130.962 C31.992,130.836 33.522,130.404 33.522,129.288 C33.522,128.262 32.55,127.686 31.254,127.686 C29.958,127.686 28.986,128.262 28.986,129.288 C28.986,130.404 30.534,130.836 31.254,130.962 Z M31.254,136.344 C32.586,136.344 33.72,135.696 33.72,134.634 C33.72,133.392 31.992,132.852 31.254,132.744 C30.498,132.852 28.788,133.392 28.788,134.634 C28.788,135.696 29.886,136.344 31.254,136.344 Z M42.18,138.216 C38.796,138.216 37.374,135.012 37.374,132.006 C37.374,128.982 38.796,125.814 42.18,125.814 C45.546,125.814 46.968,128.982 46.968,132.006 C46.968,135.012 45.546,138.216 42.18,138.216 Z M42.18,136.344 C44.124,136.344 44.826,134.292 44.826,132.006 C44.826,129.702 44.142,127.686 42.18,127.686 C40.218,127.686 39.516,129.702 39.516,132.006 C39.516,134.292 40.218,136.344 42.18,136.344 Z M53.286,138.216 C49.902,138.216 48.48,135.012 48.48,132.006 C48.48,128.982 49.902,125.814 53.286,125.814 C56.652,125.814 58.074,128.982 58.074,132.006 C58.074,135.012 56.652,138.216 53.286,138.216 Z M53.286,136.344 C55.23,136.344 55.932,134.292 55.932,132.006 C55.932,129.702 55.248,127.686 53.286,127.686 C51.324,127.686 50.622,129.702 50.622,132.006 C50.622,134.292 51.324,136.344 53.286,136.344 Z M61.944,137.316 C61.944,138.558 61.26,139.692 60.27,140.394 L59.406,139.692 C59.982,139.35 60.594,138.612 60.702,138 C60.666,138.018 60.522,138.054 60.396,138.054 C59.802,138.054 59.334,137.568 59.334,136.902 C59.334,136.236 59.874,135.678 60.558,135.678 C61.296,135.678 61.944,136.272 61.944,137.316 Z M67.902,138.216 C64.518,138.216 63.096,135.012 63.096,132.006 C63.096,128.982 64.518,125.814 67.902,125.814 C71.268,125.814 72.69,128.982 72.69,132.006 C72.69,135.012 71.268,138.216 67.902,138.216 Z M67.902,136.344 C69.846,136.344 70.548,134.292 70.548,132.006 C70.548,129.702 69.864,127.686 67.902,127.686 C65.94,127.686 65.238,129.702 65.238,132.006 C65.238,134.292 65.94,136.344 67.902,136.344 Z M79.008,138.216 C75.624,138.216 74.202,135.012 74.202,132.006 C74.202,128.982 75.624,125.814 79.008,125.814 C82.374,125.814 83.796,128.982 83.796,132.006 C83.796,135.012 82.374,138.216 79.008,138.216 Z M79.008,136.344 C80.952,136.344 81.654,134.292 81.654,132.006 C81.654,129.702 80.97,127.686 79.008,127.686 C77.046,127.686 76.344,129.702 76.344,132.006 C76.344,134.292 77.046,136.344 79.008,136.344 Z M90.114,138.216 C86.73,138.216 85.308,135.012 85.308,132.006 C85.308,128.982 86.73,125.814 90.114,125.814 C93.48,125.814 94.902,128.982 94.902,132.006 C94.902,135.012 93.48,138.216 90.114,138.216 Z M90.114,136.344 C92.058,136.344 92.76,134.292 92.76,132.006 C92.76,129.702 92.076,127.686 90.114,127.686 C88.152,127.686 87.45,129.702 87.45,132.006 C87.45,134.292 88.152,136.344 90.114,136.344 Z M90.114,136.344" id="$800,000" fill="#FFFFFF"></path>
        <path d="M19.842,230.8 L19.842,229.18 C17.988,229.036 16.602,228.298 15.648,227.308 L16.836,225.67 C17.502,226.408 18.546,227.092 19.842,227.29 L19.842,223.798 C17.988,223.33 16.044,222.664 16.044,220.324 C16.044,218.488 17.52,217.03 19.842,216.832 L19.842,215.176 L21.282,215.176 L21.282,216.85 C22.74,217.012 23.964,217.588 24.9,218.488 L23.712,220.054 C23.028,219.37 22.164,218.956 21.282,218.776 L21.282,221.89 C23.154,222.376 25.188,223.078 25.188,225.49 C25.188,227.326 23.982,228.946 21.282,229.18 L21.282,230.8 Z M23.028,225.688 C23.028,224.878 22.272,224.482 21.282,224.176 L21.282,227.308 C22.524,227.128 23.028,226.39 23.028,225.688 Z M18.204,220.162 C18.204,220.864 18.888,221.224 19.842,221.512 L19.842,218.686 C18.834,218.812 18.204,219.37 18.204,220.162 Z M31.596,229.216 C28.068,229.216 26.646,226.354 26.646,223.006 C26.646,219.55 28.464,216.814 31.938,216.814 C33.414,216.814 34.566,217.336 35.376,218.146 L34.404,219.73 C33.774,219.082 33.072,218.686 31.938,218.686 C29.922,218.686 28.77,220.54 28.77,222.646 L28.77,222.988 C29.328,222.178 30.588,221.296 31.992,221.296 C34.152,221.296 36.024,222.628 36.024,225.184 C36.024,227.398 34.278,229.216 31.596,229.216 Z M31.47,227.344 C33.054,227.344 33.882,226.21 33.882,225.256 C33.882,223.78 32.73,223.114 31.434,223.114 C30.408,223.114 29.4,223.654 28.806,224.518 C28.914,225.814 29.634,227.344 31.47,227.344 Z M42.27,229.216 C38.886,229.216 37.464,226.012 37.464,223.006 C37.464,219.982 38.886,216.814 42.27,216.814 C45.636,216.814 47.058,219.982 47.058,223.006 C47.058,226.012 45.636,229.216 42.27,229.216 Z M42.27,227.344 C44.214,227.344 44.916,225.292 44.916,223.006 C44.916,220.702 44.232,218.686 42.27,218.686 C40.308,218.686 39.606,220.702 39.606,223.006 C39.606,225.292 40.308,227.344 42.27,227.344 Z M53.376,229.216 C49.992,229.216 48.57,226.012 48.57,223.006 C48.57,219.982 49.992,216.814 53.376,216.814 C56.742,216.814 58.164,219.982 58.164,223.006 C58.164,226.012 56.742,229.216 53.376,229.216 Z M53.376,227.344 C55.32,227.344 56.022,225.292 56.022,223.006 C56.022,220.702 55.338,218.686 53.376,218.686 C51.414,218.686 50.712,220.702 50.712,223.006 C50.712,225.292 51.414,227.344 53.376,227.344 Z M62.034,228.316 C62.034,229.558 61.35,230.692 60.36,231.394 L59.496,230.692 C60.072,230.35 60.684,229.612 60.792,229 C60.756,229.018 60.612,229.054 60.486,229.054 C59.892,229.054 59.424,228.568 59.424,227.902 C59.424,227.236 59.964,226.678 60.648,226.678 C61.386,226.678 62.034,227.272 62.034,228.316 Z M67.992,229.216 C64.608,229.216 63.186,226.012 63.186,223.006 C63.186,219.982 64.608,216.814 67.992,216.814 C71.358,216.814 72.78,219.982 72.78,223.006 C72.78,226.012 71.358,229.216 67.992,229.216 Z M67.992,227.344 C69.936,227.344 70.638,225.292 70.638,223.006 C70.638,220.702 69.954,218.686 67.992,218.686 C66.03,218.686 65.328,220.702 65.328,223.006 C65.328,225.292 66.03,227.344 67.992,227.344 Z M79.098,229.216 C75.714,229.216 74.292,226.012 74.292,223.006 C74.292,219.982 75.714,216.814 79.098,216.814 C82.464,216.814 83.886,219.982 83.886,223.006 C83.886,226.012 82.464,229.216 79.098,229.216 Z M79.098,227.344 C81.042,227.344 81.744,225.292 81.744,223.006 C81.744,220.702 81.06,218.686 79.098,218.686 C77.136,218.686 76.434,220.702 76.434,223.006 C76.434,225.292 77.136,227.344 79.098,227.344 Z M90.204,229.216 C86.82,229.216 85.398,226.012 85.398,223.006 C85.398,219.982 86.82,216.814 90.204,216.814 C93.57,216.814 94.992,219.982 94.992,223.006 C94.992,226.012 93.57,229.216 90.204,229.216 Z M90.204,227.344 C92.148,227.344 92.85,225.292 92.85,223.006 C92.85,220.702 92.166,218.686 90.204,218.686 C88.242,218.686 87.54,220.702 87.54,223.006 C87.54,225.292 88.242,227.344 90.204,227.344 Z M90.204,227.344" id="$600,000" fill="#FFFFFF"></path>
        <path d="M19.842,316.8 L19.842,315.18 C17.988,315.036 16.602,314.298 15.648,313.308 L16.836,311.67 C17.502,312.408 18.546,313.092 19.842,313.29 L19.842,309.798 C17.988,309.33 16.044,308.664 16.044,306.324 C16.044,304.488 17.52,303.03 19.842,302.832 L19.842,301.176 L21.282,301.176 L21.282,302.85 C22.74,303.012 23.964,303.588 24.9,304.488 L23.712,306.054 C23.028,305.37 22.164,304.956 21.282,304.776 L21.282,307.89 C23.154,308.376 25.188,309.078 25.188,311.49 C25.188,313.326 23.982,314.946 21.282,315.18 L21.282,316.8 Z M23.028,311.688 C23.028,310.878 22.272,310.482 21.282,310.176 L21.282,313.308 C22.524,313.128 23.028,312.39 23.028,311.688 Z M18.204,306.162 C18.204,306.864 18.888,307.224 19.842,307.512 L19.842,304.686 C18.834,304.812 18.204,305.37 18.204,306.162 Z M32.118,315 L32.118,312.282 L26.394,312.282 L26.394,310.59 L31.326,302.994 L34.224,302.994 L34.224,310.428 L35.826,310.428 L35.826,312.282 L34.224,312.282 L34.224,315 Z M32.118,310.428 L32.118,304.884 L28.464,310.428 Z M41.892,315.216 C38.508,315.216 37.086,312.012 37.086,309.006 C37.086,305.982 38.508,302.814 41.892,302.814 C45.258,302.814 46.68,305.982 46.68,309.006 C46.68,312.012 45.258,315.216 41.892,315.216 Z M41.892,313.344 C43.836,313.344 44.538,311.292 44.538,309.006 C44.538,306.702 43.854,304.686 41.892,304.686 C39.93,304.686 39.228,306.702 39.228,309.006 C39.228,311.292 39.93,313.344 41.892,313.344 Z M52.998,315.216 C49.614,315.216 48.192,312.012 48.192,309.006 C48.192,305.982 49.614,302.814 52.998,302.814 C56.364,302.814 57.786,305.982 57.786,309.006 C57.786,312.012 56.364,315.216 52.998,315.216 Z M52.998,313.344 C54.942,313.344 55.644,311.292 55.644,309.006 C55.644,306.702 54.96,304.686 52.998,304.686 C51.036,304.686 50.334,306.702 50.334,309.006 C50.334,311.292 51.036,313.344 52.998,313.344 Z M61.656,314.316 C61.656,315.558 60.972,316.692 59.982,317.394 L59.118,316.692 C59.694,316.35 60.306,315.612 60.414,315 C60.378,315.018 60.234,315.054 60.108,315.054 C59.514,315.054 59.046,314.568 59.046,313.902 C59.046,313.236 59.586,312.678 60.27,312.678 C61.008,312.678 61.656,313.272 61.656,314.316 Z M67.614,315.216 C64.23,315.216 62.808,312.012 62.808,309.006 C62.808,305.982 64.23,302.814 67.614,302.814 C70.98,302.814 72.402,305.982 72.402,309.006 C72.402,312.012 70.98,315.216 67.614,315.216 Z M67.614,313.344 C69.558,313.344 70.26,311.292 70.26,309.006 C70.26,306.702 69.576,304.686 67.614,304.686 C65.652,304.686 64.95,306.702 64.95,309.006 C64.95,311.292 65.652,313.344 67.614,313.344 Z M78.72,315.216 C75.336,315.216 73.914,312.012 73.914,309.006 C73.914,305.982 75.336,302.814 78.72,302.814 C82.086,302.814 83.508,305.982 83.508,309.006 C83.508,312.012 82.086,315.216 78.72,315.216 Z M78.72,313.344 C80.664,313.344 81.366,311.292 81.366,309.006 C81.366,306.702 80.682,304.686 78.72,304.686 C76.758,304.686 76.056,306.702 76.056,309.006 C76.056,311.292 76.758,313.344 78.72,313.344 Z M89.826,315.216 C86.442,315.216 85.02,312.012 85.02,309.006 C85.02,305.982 86.442,302.814 89.826,302.814 C93.192,302.814 94.614,305.982 94.614,309.006 C94.614,312.012 93.192,315.216 89.826,315.216 Z M89.826,313.344 C91.77,313.344 92.472,311.292 92.472,309.006 C92.472,306.702 91.788,304.686 89.826,304.686 C87.864,304.686 87.162,306.702 87.162,309.006 C87.162,311.292 87.864,313.344 89.826,313.344 Z M89.826,313.344" id="$400,000" fill="#FFFFFF"></path>
        <path d="M19.842,407.8 L19.842,406.18 C17.988,406.036 16.602,405.298 15.648,404.308 L16.836,402.67 C17.502,403.408 18.546,404.092 19.842,404.29 L19.842,400.798 C17.988,400.33 16.044,399.664 16.044,397.324 C16.044,395.488 17.52,394.03 19.842,393.832 L19.842,392.176 L21.282,392.176 L21.282,393.85 C22.74,394.012 23.964,394.588 24.9,395.488 L23.712,397.054 C23.028,396.37 22.164,395.956 21.282,395.776 L21.282,398.89 C23.154,399.376 25.188,400.078 25.188,402.49 C25.188,404.326 23.982,405.946 21.282,406.18 L21.282,407.8 Z M23.028,402.688 C23.028,401.878 22.272,401.482 21.282,401.176 L21.282,404.308 C22.524,404.128 23.028,403.39 23.028,402.688 Z M18.204,397.162 C18.204,397.864 18.888,398.224 19.842,398.512 L19.842,395.686 C18.834,395.812 18.204,396.37 18.204,397.162 Z M26.79,406 L26.79,404.326 C31.452,400.798 33.288,399.25 33.288,397.504 C33.288,396.244 32.19,395.686 31.092,395.686 C29.688,395.686 28.626,396.244 27.852,397.108 L26.628,395.74 C27.69,394.444 29.382,393.814 31.074,393.814 C33.396,393.814 35.412,395.11 35.412,397.504 C35.412,399.736 33.378,401.716 30.174,404.146 L35.484,404.146 L35.484,406 Z M42.162,406.216 C38.778,406.216 37.356,403.012 37.356,400.006 C37.356,396.982 38.778,393.814 42.162,393.814 C45.528,393.814 46.95,396.982 46.95,400.006 C46.95,403.012 45.528,406.216 42.162,406.216 Z M42.162,404.344 C44.106,404.344 44.808,402.292 44.808,400.006 C44.808,397.702 44.124,395.686 42.162,395.686 C40.2,395.686 39.498,397.702 39.498,400.006 C39.498,402.292 40.2,404.344 42.162,404.344 Z M53.268,406.216 C49.884,406.216 48.462,403.012 48.462,400.006 C48.462,396.982 49.884,393.814 53.268,393.814 C56.634,393.814 58.056,396.982 58.056,400.006 C58.056,403.012 56.634,406.216 53.268,406.216 Z M53.268,404.344 C55.212,404.344 55.914,402.292 55.914,400.006 C55.914,397.702 55.23,395.686 53.268,395.686 C51.306,395.686 50.604,397.702 50.604,400.006 C50.604,402.292 51.306,404.344 53.268,404.344 Z M61.926,405.316 C61.926,406.558 61.242,407.692 60.252,408.394 L59.388,407.692 C59.964,407.35 60.576,406.612 60.684,406 C60.648,406.018 60.504,406.054 60.378,406.054 C59.784,406.054 59.316,405.568 59.316,404.902 C59.316,404.236 59.856,403.678 60.54,403.678 C61.278,403.678 61.926,404.272 61.926,405.316 Z M67.884,406.216 C64.5,406.216 63.078,403.012 63.078,400.006 C63.078,396.982 64.5,393.814 67.884,393.814 C71.25,393.814 72.672,396.982 72.672,400.006 C72.672,403.012 71.25,406.216 67.884,406.216 Z M67.884,404.344 C69.828,404.344 70.53,402.292 70.53,400.006 C70.53,397.702 69.846,395.686 67.884,395.686 C65.922,395.686 65.22,397.702 65.22,400.006 C65.22,402.292 65.922,404.344 67.884,404.344 Z M78.99,406.216 C75.606,406.216 74.184,403.012 74.184,400.006 C74.184,396.982 75.606,393.814 78.99,393.814 C82.356,393.814 83.778,396.982 83.778,400.006 C83.778,403.012 82.356,406.216 78.99,406.216 Z M78.99,404.344 C80.934,404.344 81.636,402.292 81.636,400.006 C81.636,397.702 80.952,395.686 78.99,395.686 C77.028,395.686 76.326,397.702 76.326,400.006 C76.326,402.292 77.028,404.344 78.99,404.344 Z M90.096,406.216 C86.712,406.216 85.29,403.012 85.29,400.006 C85.29,396.982 86.712,393.814 90.096,393.814 C93.462,393.814 94.884,396.982 94.884,400.006 C94.884,403.012 93.462,406.216 90.096,406.216 Z M90.096,404.344 C92.04,404.344 92.742,402.292 92.742,400.006 C92.742,397.702 92.058,395.686 90.096,395.686 C88.134,395.686 87.432,397.702 87.432,400.006 C87.432,402.292 88.134,404.344 90.096,404.344 Z M90.096,404.344" id="$200,000" fill="#FFFFFF"></path>
        <path d="M103.278,523 L103.278,510.994 L111.504,510.994 L111.504,512.848 L105.384,512.848 L105.384,515.944 L111.378,515.944 L111.378,517.798 L105.384,517.798 L105.384,523 Z M117.39,523.216 C114.762,523.216 112.836,521.398 112.836,518.644 C112.836,516.124 114.672,514.09 117.246,514.09 C119.856,514.09 121.512,516.07 121.512,518.806 L121.512,519.274 L114.816,519.274 C114.96,520.57 115.932,521.668 117.57,521.668 C118.434,521.668 119.424,521.326 120.054,520.696 L120.918,521.938 C120.036,522.766 118.758,523.216 117.39,523.216 Z M119.694,517.924 C119.64,516.898 118.938,515.638 117.228,515.638 C115.626,515.638 114.87,516.88 114.798,517.924 Z M125.274,520.39 C125.706,521.038 126.624,521.542 127.524,521.542 C129.018,521.542 129.972,520.336 129.972,518.644 C129.972,516.97 129.018,515.764 127.524,515.764 C126.624,515.764 125.706,516.286 125.274,516.934 Z M123.384,523 L123.384,510.994 L125.274,510.994 L125.274,515.512 C125.976,514.576 126.984,514.09 128.064,514.09 C130.314,514.09 131.934,515.836 131.934,518.644 C131.934,521.524 130.296,523.216 128.064,523.216 C126.948,523.216 125.94,522.676 125.274,521.812 L125.274,523 Z M123.384,523" id="Feb" fill="#FFFFFF"></path>
        <path d="M204.646,523 L204.646,513.73 L200.974,523 L200.074,523 L196.384,513.73 L196.384,523 L194.278,523 L194.278,510.994 L197.248,510.994 L200.524,519.238 L203.782,510.994 L206.752,510.994 L206.752,523 Z M214.582,523 L214.582,522.046 C213.934,522.802 212.908,523.216 211.756,523.216 C210.352,523.216 208.75,522.244 208.75,520.336 C208.75,518.32 210.334,517.492 211.756,517.492 C212.944,517.492 213.934,517.87 214.582,518.608 L214.582,517.312 C214.582,516.304 213.736,515.692 212.548,515.692 C211.576,515.692 210.712,516.052 209.974,516.808 L209.182,515.494 C210.19,514.522 211.45,514.09 212.836,514.09 C214.78,514.09 216.472,514.9 216.472,517.222 L216.472,523 Z M212.512,521.92 C213.322,521.92 214.132,521.614 214.582,521.02 L214.582,519.688 C214.132,519.094 213.322,518.788 212.512,518.788 C211.45,518.788 210.64,519.418 210.64,520.354 C210.64,521.308 211.45,521.92 212.512,521.92 Z M218.92,523 L218.92,514.306 L220.81,514.306 L220.81,515.566 C221.476,514.738 222.52,514.09 223.636,514.09 L223.636,515.962 C223.474,515.926 223.294,515.908 223.06,515.908 C222.25,515.908 221.188,516.448 220.81,517.078 L220.81,523 Z M218.92,523" id="Mar" fill="#FFFFFF"></path>
        <path d="M296.096,523 L293.702,523 L292.82,520.678 L287.312,520.678 L286.43,523 L284.036,523 L288.752,510.994 L291.38,510.994 Z M292.226,518.824 L290.066,513.1 L287.906,518.824 Z M302.018,523.216 C300.92,523.216 299.948,522.712 299.228,521.794 L299.228,526.312 L297.338,526.312 L297.338,514.306 L299.228,514.306 L299.228,515.494 C299.876,514.63 300.884,514.09 302.018,514.09 C304.268,514.09 305.87,515.782 305.87,518.644 C305.87,521.506 304.268,523.216 302.018,523.216 Z M301.46,521.542 C302.954,521.542 303.926,520.336 303.926,518.644 C303.926,516.952 302.954,515.764 301.46,515.764 C300.578,515.764 299.66,516.268 299.228,516.916 L299.228,520.354 C299.642,521.002 300.578,521.542 301.46,521.542 Z M307.76,523 L307.76,514.306 L309.65,514.306 L309.65,515.566 C310.316,514.738 311.36,514.09 312.476,514.09 L312.476,515.962 C312.314,515.926 312.134,515.908 311.9,515.908 C311.09,515.908 310.028,516.448 309.65,517.078 L309.65,523 Z M307.76,523" id="Apr" fill="#FFFFFF"></path>
        <path d="M384.646,523 L384.646,513.73 L380.974,523 L380.074,523 L376.384,513.73 L376.384,523 L374.278,523 L374.278,510.994 L377.248,510.994 L380.524,519.238 L383.782,510.994 L386.752,510.994 L386.752,523 Z M394.582,523 L394.582,522.046 C393.934,522.802 392.908,523.216 391.756,523.216 C390.352,523.216 388.75,522.244 388.75,520.336 C388.75,518.32 390.334,517.492 391.756,517.492 C392.944,517.492 393.934,517.87 394.582,518.608 L394.582,517.312 C394.582,516.304 393.736,515.692 392.548,515.692 C391.576,515.692 390.712,516.052 389.974,516.808 L389.182,515.494 C390.19,514.522 391.45,514.09 392.836,514.09 C394.78,514.09 396.472,514.9 396.472,517.222 L396.472,523 Z M392.512,521.92 C393.322,521.92 394.132,521.614 394.582,521.02 L394.582,519.688 C394.132,519.094 393.322,518.788 392.512,518.788 C391.45,518.788 390.64,519.418 390.64,520.354 C390.64,521.308 391.45,521.92 392.512,521.92 Z M398.56,526.402 L398.83,524.71 C399.028,524.8 399.334,524.854 399.55,524.854 C400.162,524.854 400.558,524.674 400.81,524.098 L401.242,523.108 L397.66,514.306 L399.694,514.306 L402.232,520.822 L404.77,514.306 L406.786,514.306 L402.592,524.566 C401.998,526.042 400.972,526.51 399.622,526.528 C399.352,526.528 398.812,526.474 398.56,526.402 Z M398.56,526.402" id="May" fill="#FFFFFF"></path>
        <path d="M476.768,523 L476.768,521.848 C476.156,522.532 475.076,523.216 473.708,523.216 C471.836,523.216 470.9,522.226 470.9,520.462 L470.9,514.306 L472.79,514.306 L472.79,519.76 C472.79,521.11 473.474,521.542 474.554,521.542 C475.508,521.542 476.336,520.984 476.768,520.408 L476.768,514.306 L478.658,514.306 L478.658,523 Z M464.348,523.216 C463.106,523.216 462.008,522.838 461.144,521.938 L462.134,520.336 C462.602,520.876 463.268,521.344 464.186,521.344 C465.464,521.344 466.292,520.462 466.292,519.166 L466.292,510.994 L468.398,510.994 L468.398,519.184 C468.398,521.92 466.67,523.216 464.348,523.216 Z M486.992,523 L486.992,517.564 C486.992,516.196 486.29,515.764 485.228,515.764 C484.274,515.764 483.446,516.34 482.996,516.916 L482.996,523 L481.106,523 L481.106,514.306 L482.996,514.306 L482.996,515.476 C483.572,514.792 484.706,514.09 486.074,514.09 C487.946,514.09 488.882,515.098 488.882,516.88 L488.882,523 Z M486.992,523" id="Jun" fill="#FFFFFF"></path>
        <path d="M568.768,523 L568.768,521.848 C568.156,522.532 567.076,523.216 565.708,523.216 C563.836,523.216 562.9,522.226 562.9,520.462 L562.9,514.306 L564.79,514.306 L564.79,519.76 C564.79,521.11 565.474,521.542 566.554,521.542 C567.508,521.542 568.336,520.984 568.768,520.408 L568.768,514.306 L570.658,514.306 L570.658,523 Z M556.348,523.216 C555.106,523.216 554.008,522.838 553.144,521.938 L554.134,520.336 C554.602,520.876 555.268,521.344 556.186,521.344 C557.464,521.344 558.292,520.462 558.292,519.166 L558.292,510.994 L560.398,510.994 L560.398,519.184 C560.398,521.92 558.67,523.216 556.348,523.216 Z M573.106,523 L573.106,510.994 L574.996,510.994 L574.996,523 Z M573.106,523" id="Jul" fill="#FFFFFF"></path>
        <path d="M657.096,523 L654.702,523 L653.82,520.678 L648.312,520.678 L647.43,523 L645.036,523 L649.752,510.994 L652.38,510.994 Z M653.226,518.824 L651.066,513.1 L648.906,518.824 Z M663.972,523 L663.972,521.848 C663.36,522.532 662.28,523.216 660.912,523.216 C659.04,523.216 658.104,522.226 658.104,520.462 L658.104,514.306 L659.994,514.306 L659.994,519.76 C659.994,521.11 660.678,521.542 661.758,521.542 C662.712,521.542 663.54,520.984 663.972,520.408 L663.972,514.306 L665.862,514.306 L665.862,523 Z M671.856,526.528 C670.38,526.528 669.282,526.204 668.202,525.232 L669.084,523.864 C669.804,524.674 670.704,524.98 671.856,524.98 C673.098,524.98 674.43,524.404 674.43,522.55 L674.43,521.56 C673.764,522.442 672.774,523.018 671.64,523.018 C669.426,523.018 667.788,521.416 667.788,518.554 C667.788,515.728 669.39,514.09 671.64,514.09 C672.738,514.09 673.728,514.576 674.43,515.512 L674.43,514.306 L676.32,514.306 L676.32,522.55 C676.32,525.682 673.98,526.528 671.856,526.528 Z M672.198,521.326 C673.08,521.326 673.998,520.804 674.43,520.174 L674.43,516.916 C673.998,516.286 673.08,515.764 672.198,515.764 C670.686,515.764 669.732,516.88 669.732,518.554 C669.732,520.228 670.686,521.326 672.198,521.326 Z M672.198,521.326" id="Aug" fill="#FFFFFF"></path>
    </g>
</svg>