<?xml version="1.0" encoding="UTF-8" standalone="no"?>
<svg width="92px" height="34px" viewBox="0 0 92 34" version="1.1" xmlns="http://www.w3.org/2000/svg" xmlns:xlink="http://www.w3.org/1999/xlink" xmlns:sketch="http://www.bohemiancoding.com/sketch/ns">
    <title>Slice 1</title>
    <description>Created with Sketch (http://www.bohemiancoding.com/sketch)</description>
    <defs></defs>
    <g id="Page 1" stroke="none" stroke-width="1" fill="none" fill-rule="evenodd">
        <g id="Layer_1" fill="#FFFFFF">
            <g id="Group">
                <path d="M75.184,9.554 C76.729,9.554 77.468,10.73 77.468,12.04 C77.468,12.914 77.165,14.089 76.561,15.5 C75.957,16.978 74.613,19.9 74.613,20.74 C74.613,21.11 74.781,21.244 75.084,21.244 C75.688,21.244 77.838,19.498 80.156,16.206 C80.794,16.206 81.466,16.643 81.466,17.314 C81.466,19.43 75.588,25.51 72.498,25.51 C70.516,25.51 69.844,24.636 69.844,22.789 C69.844,20.571 71.825,16.574 71.825,15.835 C71.825,15.566 71.691,15.432 71.423,15.432 C71.12,15.432 69.944,16.137 68.635,17.951 C68.164,20.537 67.828,22.418 67.728,24.702 C67.392,25.038 67.09,25.206 66.384,25.206 C64.503,25.206 63.227,24.434 63.194,22.418 C63.194,21.142 63.731,19.16 64.336,17.547 C64.605,16.808 64.907,16.036 64.907,15.7 C64.907,15.398 64.772,15.297 64.504,15.297 C64.201,15.297 63.396,15.801 62.086,17.615 C61.615,20.201 61.313,22.082 61.212,24.366 C60.876,24.702 60.641,24.803 59.868,24.803 C57.987,24.803 56.61,23.023 56.576,21.007 C56.576,19.732 56.946,17.984 57.516,16.439 C57.247,15.801 57.18,15.028 57.18,14.356 C57.18,12.374 59.868,9.888 61.951,9.888 C62.925,9.888 63.395,10.291 63.395,11.299 C63.395,12.138 63.16,13.314 62.353,15.094 C64.806,10.862 66.485,9.887 67.963,9.887 C69.239,9.887 69.944,10.761 69.944,11.869 C69.944,12.743 69.911,13.515 69.104,15.127 C71.858,10.999 73.706,9.554 75.184,9.554 L75.184,9.554 Z M75.184,9.554" id="Shape"></path>
                <path d="M81.889,5.792 C82.36,1.123 82.897,0.518 84.61,0.518 C86.39,0.518 88.473,2.601 88.473,4.717 C88.473,5.792 87.734,7.405 85.953,10.495 C86.995,10.461 90.052,10.327 90.488,10.226 C90.891,10.529 91.127,11.133 91.127,11.637 C91.127,12.913 90.286,13.887 89.178,13.887 C88.406,13.887 87.734,13.853 87.062,13.786 C88.339,14.492 89.212,16.171 89.212,18.522 C89.212,24.569 84.106,33.1 79.672,33.1 C77.388,33.1 76.313,32.025 76.313,30.178 C76.313,28.902 76.482,28.028 78.363,22.418 C79.169,20.033 80.479,15.599 80.883,13.517 C80.244,13.483 79.942,13.215 79.942,12.677 C79.942,11.737 80.647,10.729 81.386,10.662 C81.52,9.487 81.755,7.169 81.889,5.792 L81.889,5.792 Z M81.419,28.062 C81.385,28.163 81.352,28.297 81.352,28.364 C81.352,28.599 81.52,28.7 81.755,28.7 C83.031,28.7 85.819,22.822 85.819,19.194 C85.819,17.615 85.416,16.44 84.811,15.936 C84.072,20.605 82.124,26.349 81.419,28.062 L81.419,28.062 Z M81.419,28.062" id="Shape"></path>
                <path d="M47.527,9.83 C45.683,9.83 43.986,10.457 42.635,11.507 C41.28,12.521 39.772,13.843 38.253,15.22 L39.651,16.512 L40.621,17.409 L40.175,17.891 C40.062,17.789 39.949,17.686 39.837,17.584 L39.56,17.328 L37.762,15.666 L37.761,15.667 C37.747,15.654 37.733,15.641 37.719,15.627 C36.013,14.042 34.396,12.539 33.124,11.559 C31.761,10.476 30.037,9.829 28.161,9.829 C26.473,9.829 24.909,10.354 23.619,11.248 C23.549,11.286 23.48,11.326 23.414,11.375 C22.017,12.403 20.444,13.782 18.862,15.215 L20.282,16.528 L21.233,17.406 L20.785,17.891 L20.725,17.837 L20.193,17.345 L18.371,15.661 C18.37,15.662 18.368,15.663 18.367,15.665 C18.353,15.652 18.339,15.639 18.325,15.625 C16.619,14.04 15.002,12.537 13.73,11.557 C12.368,10.474 10.643,9.827 8.767,9.827 C4.358,9.827 0.784,13.401 0.784,17.809 C0.784,22.219 4.358,25.792 8.767,25.792 C10.56,25.792 12.215,25.201 13.548,24.203 C14.969,23.203 16.612,21.758 18.356,20.173 C20.204,21.85 21.996,23.375 23.488,24.281 C23.49,24.283 23.493,24.285 23.496,24.286 C24.808,25.234 26.42,25.792 28.162,25.792 C29.955,25.792 31.61,25.201 32.943,24.203 C34.364,23.203 36.006,21.758 37.751,20.173 C39.532,21.789 41.261,23.265 42.72,24.181 C44.057,25.193 45.723,25.792 47.529,25.792 C51.938,25.792 55.512,22.219 55.512,17.809 C55.511,13.403 51.937,9.83 47.527,9.83 L47.527,9.83 Z M10.342,20.165 C8.127,20.995 6.189,19.334 5.912,17.673 C5.635,16.012 7.022,14.173 8.958,14.074 C12.324,13.9 13.458,17.679 13.458,17.679 C13.458,17.679 12.557,19.334 10.342,20.165 L10.342,20.165 Z M31.982,17.81 C31.705,19.474 29.764,21.138 27.546,20.306 C25.328,19.474 24.424,17.817 24.424,17.817 C24.424,17.817 25.56,14.032 28.932,14.206 C30.871,14.305 32.26,16.147 31.982,17.81 L31.982,17.81 Z M50.944,17.81 C50.667,19.474 48.726,21.138 46.508,20.306 C44.29,19.474 43.386,17.817 43.386,17.817 C43.386,17.817 44.522,14.032 47.894,14.206 C49.832,14.305 51.222,16.147 50.944,17.81 L50.944,17.81 Z M50.944,17.81" id="Shape"></path>
            </g>
        </g>
    </g>
</svg>