<?xml version="1.0" encoding="utf-8"?>
<!-- Generator: Adobe Illustrator 16.2.1, SVG Export Plug-In . SVG Version: 6.00 Build 0)  -->
<!DOCTYPE svg PUBLIC "-//W3C//DTD SVG 1.1//EN" "http://www.w3.org/Graphics/SVG/1.1/DTD/svg11.dtd">
<svg version="1.1" id="Layer_1" xmlns="http://www.w3.org/2000/svg" xmlns:xlink="http://www.w3.org/1999/xlink" x="0px" y="0px"
	 width="100px" height="50px" viewBox="0 0 100 50" enable-background="new 0 0 100 50" xml:space="preserve">
<g>
	<path fill="#434343" d="M80.184,17.554c1.545,0,2.284,1.176,2.284,2.486c0,0.874-0.303,2.049-0.907,3.46
		c-0.604,1.478-1.948,4.4-1.948,5.24c0,0.37,0.168,0.504,0.471,0.504c0.604,0,2.754-1.746,5.072-5.038
		c0.638,0,1.31,0.437,1.31,1.108c0,2.116-5.878,8.196-8.968,8.196c-1.982,0-2.654-0.874-2.654-2.721
		c0-2.218,1.981-6.215,1.981-6.954c0-0.269-0.134-0.403-0.402-0.403c-0.303,0-1.479,0.705-2.788,2.519
		c-0.471,2.586-0.807,4.467-0.907,6.751c-0.336,0.336-0.638,0.504-1.344,0.504c-1.881,0-3.157-0.772-3.19-2.788
		c0-1.276,0.537-3.258,1.142-4.871c0.269-0.739,0.571-1.511,0.571-1.847c0-0.302-0.135-0.403-0.403-0.403
		c-0.303,0-1.108,0.504-2.418,2.318c-0.471,2.586-0.773,4.467-0.874,6.751c-0.336,0.336-0.571,0.437-1.344,0.437
		c-1.881,0-3.258-1.78-3.292-3.796c0-1.275,0.37-3.023,0.94-4.568c-0.269-0.638-0.336-1.411-0.336-2.083
		c0-1.982,2.688-4.468,4.771-4.468c0.974,0,1.444,0.403,1.444,1.411c0,0.839-0.235,2.015-1.042,3.795
		c2.453-4.232,4.132-5.207,5.61-5.207c1.276,0,1.981,0.874,1.981,1.982c0,0.874-0.033,1.646-0.84,3.258
		C76.858,18.999,78.706,17.554,80.184,17.554z"/>
	<path fill="#434343" d="M86.889,13.792c0.471-4.669,1.008-5.274,2.721-5.274c1.78,0,3.863,2.083,3.863,4.199
		c0,1.075-0.739,2.688-2.52,5.778c1.042-0.034,4.099-0.168,4.535-0.269c0.403,0.303,0.639,0.907,0.639,1.411
		c0,1.276-0.841,2.25-1.949,2.25c-0.772,0-1.444-0.034-2.116-0.101c1.277,0.706,2.15,2.385,2.15,4.736
		c0,6.047-5.106,14.578-9.54,14.578c-2.284,0-3.359-1.075-3.359-2.922c0-1.276,0.169-2.15,2.05-7.76
		c0.806-2.385,2.116-6.819,2.52-8.901c-0.639-0.034-0.941-0.302-0.941-0.84c0-0.94,0.705-1.948,1.444-2.015
		C86.52,17.487,86.755,15.169,86.889,13.792z M86.419,36.062c-0.034,0.101-0.067,0.235-0.067,0.302c0,0.235,0.168,0.336,0.403,0.336
		c1.276,0,4.064-5.878,4.064-9.506c0-1.579-0.403-2.754-1.008-3.258C89.072,28.605,87.124,34.349,86.419,36.062z"/>
	<g>
		<path fill="#434343" d="M52.527,17.83c-1.844,0-3.541,0.627-4.892,1.677c-1.355,1.014-2.863,2.336-4.382,3.713l1.398,1.292
			l0.97,0.897l-0.446,0.482c-0.113-0.102-0.226-0.205-0.338-0.307l-0.277-0.256l-1.798-1.662c0,0-0.001,0.001-0.001,0.001
			c-0.014-0.013-0.028-0.026-0.042-0.04c-1.706-1.585-3.323-3.088-4.595-4.068c-1.363-1.083-3.087-1.73-4.963-1.73
			c-1.688,0-3.252,0.525-4.542,1.419c-0.07,0.038-0.139,0.078-0.205,0.127c-1.397,1.028-2.97,2.407-4.552,3.84l1.42,1.313
			l0.951,0.878l-0.448,0.485c-0.02-0.018-0.04-0.036-0.06-0.054l-0.532-0.492l-1.822-1.684c-0.001,0.001-0.003,0.002-0.004,0.004
			c-0.014-0.013-0.028-0.026-0.042-0.04c-1.706-1.585-3.323-3.088-4.595-4.068c-1.362-1.083-3.087-1.73-4.963-1.73
			c-4.409,0-7.983,3.574-7.983,7.982c0,4.41,3.574,7.983,7.983,7.983c1.793,0,3.448-0.591,4.781-1.589
			c1.421-1,3.064-2.445,4.808-4.03c1.848,1.677,3.64,3.202,5.132,4.108c0.002,0.002,0.005,0.004,0.008,0.005
			c1.312,0.948,2.924,1.506,4.666,1.506c1.793,0,3.448-0.591,4.781-1.589c1.421-1,3.063-2.445,4.808-4.03
			c1.781,1.616,3.51,3.092,4.969,4.008c1.337,1.012,3.003,1.611,4.809,1.611c4.409,0,7.983-3.573,7.983-7.983
			C60.511,21.403,56.937,17.83,52.527,17.83z M15.342,28.165c-2.215,0.83-4.153-0.831-4.43-2.492c-0.277-1.661,1.11-3.5,3.046-3.599
			c3.366-0.174,4.5,3.605,4.5,3.605S17.557,27.334,15.342,28.165z M36.982,25.81c-0.277,1.664-2.218,3.328-4.436,2.496
			c-2.218-0.832-3.122-2.489-3.122-2.489s1.136-3.785,4.508-3.611C35.871,22.305,37.26,24.147,36.982,25.81z M55.944,25.81
			c-0.277,1.664-2.218,3.328-4.436,2.496c-2.218-0.832-3.122-2.489-3.122-2.489s1.136-3.785,4.508-3.611
			C54.832,22.305,56.222,24.147,55.944,25.81z"/>
	</g>
</g>
</svg>
