<?xml version="1.0" encoding="UTF-8" standalone="no"?>
<svg width="217px" height="326px" viewBox="0 0 217 326" version="1.1" xmlns="http://www.w3.org/2000/svg" xmlns:xlink="http://www.w3.org/1999/xlink" xmlns:sketch="http://www.bohemiancoding.com/sketch/ns">
    <title>Slice 2</title>
    <description>Created with Sketch (http://www.bohemiancoding.com/sketch)</description>
    <defs></defs>
    <g id="Page 1" stroke="none" stroke-width="1" fill="none" fill-rule="evenodd">
        <path d="M107,8.91448069 L107,61.5768967" id="Line" stroke="#FFFFFF" stroke-width="4" stroke-linecap="square" fill="#FFFFFF"></path>
        <path id="Line decoration-1" d="M104,50.1144817 C105.05,53.8944818 105.95,57.134482 107,60.9144821 C108.05,57.134482 108.95,53.894482 110,50.1144819" stroke="#FFFFFF" stroke-width="4" stroke-linecap="square" fill="#FFFFFF"></path>
        <path d="M109.5,259.908485 L109.5,313.576897" id="Line" stroke="#FFFFFF" stroke-width="4" stroke-linecap="square" fill="#FFFFFF"></path>
        <path id="Line decoration-1" d="M106.5,302.108485 C107.55,305.888485 108.45,309.128485 109.5,312.908485 C110.55,309.128485 111.45,305.888485 112.5,302.108486" stroke="#FFFFFF" stroke-width="4" stroke-linecap="square" fill="#FFFFFF"></path>
        <path d="M64.9998548,86 C60.581657,86 57,89.5839622 57,93.9998548 L57,183.000145 C57,187.418343 60.5839622,191 64.9998548,191 L154.000145,191 C158.418343,191 162,187.416038 162,183.000145 L162,93.9998548 C162,89.581657 158.416038,86 154.000145,86 L64.9998548,86 Z M64.9998548,86" id="Rectangle 4" fill="#48B0E7"></path>
        <g id="Slice 1" transform="translate(69.367188, 102.500000)" fill="#FFFFFF">
            <g id="Page 1">
                <g id="Layer_1">
                    <g id="Group">
                        <path d="M43.4809412,20.918 C47.0253529,20.918 48.7207059,23.6158824 48.7207059,26.6211765 C48.7207059,28.6262353 48.0255882,31.3218235 46.6399412,34.5588235 C45.2542941,37.9495294 42.171,44.6529412 42.171,46.58 C42.171,47.4288235 42.5564118,47.7362353 43.2515294,47.7362353 C44.6371765,47.7362353 49.5695294,43.7307059 54.8872941,36.1784706 C56.3509412,36.1784706 57.8925882,37.181 57.8925882,38.7203529 C57.8925882,43.5747059 44.4077647,57.5229412 37.3189412,57.5229412 C32.772,57.5229412 31.2303529,55.5178824 31.2303529,51.2806471 C31.2303529,46.1922941 35.775,37.0227059 35.775,35.3273529 C35.775,34.7102353 35.4675882,34.4028235 34.8527647,34.4028235 C34.1576471,34.4028235 31.4597647,36.0201765 28.4567647,40.1817059 C27.3762353,46.1142941 26.6054118,50.4295294 26.376,55.6692941 C25.6051765,56.4401176 24.9123529,56.8255294 23.2927059,56.8255294 C18.9774706,56.8255294 16.0501765,55.0544706 15.9744706,50.4295294 C15.9744706,47.5022353 17.2064118,42.9552941 18.5943529,39.2548824 C19.2114706,37.5595294 19.9042941,35.7884706 19.9042941,35.0176471 C19.9042941,34.3248235 19.5945882,34.0931176 18.9797647,34.0931176 C18.2846471,34.0931176 16.4378824,35.2493529 13.4325882,39.4108824 C12.3520588,45.3434706 11.6592353,49.6587059 11.4275294,54.8984706 C10.6567059,55.6692941 10.1175882,55.901 8.34423529,55.901 C4.029,55.901 0.87,51.8174706 0.792,47.1925294 C0.792,44.2675294 1.64082353,40.2574118 2.94847059,36.713 C2.33135294,35.2493529 2.17764706,33.476 2.17764706,31.9343529 C2.17764706,27.3874118 8.34423529,21.6842353 13.1228824,21.6842353 C15.3573529,21.6842353 16.4355882,22.6087647 16.4355882,24.9212353 C16.4355882,26.846 15.8964706,29.5438824 14.0451176,33.6274118 C19.6725882,23.9187059 23.5244118,21.6819412 26.9151176,21.6819412 C29.8424118,21.6819412 31.4597647,23.687 31.4597647,26.2288824 C31.4597647,28.2339412 31.3840588,30.005 29.5327059,33.7031176 C35.8507059,24.233 40.0902353,20.918 43.4809412,20.918 L43.4809412,20.918 L43.4809412,20.918 Z M43.4809412,20.918" id="Shape"></path>
                        <path d="M58.863,12.2875294 C59.9435294,1.57629412 61.1754706,0.188352941 65.1052941,0.188352941 C69.1888235,0.188352941 73.9674706,4.967 73.9674706,9.82135294 C73.9674706,12.2875294 72.2721176,15.9879412 68.1862941,23.0767647 C70.5767647,22.9987647 77.5898824,22.6913529 78.5901176,22.4596471 C79.5146471,23.1547647 80.0560588,24.5404118 80.0560588,25.6966471 C80.0560588,28.6239412 78.1267059,30.8584118 75.5848235,30.8584118 C73.8137647,30.8584118 72.2721176,30.7804118 70.7304706,30.6267059 C73.6600588,32.2463529 75.6628235,36.0981765 75.6628235,41.4916471 C75.6628235,55.3641765 63.9490588,74.9352941 53.7769412,74.9352941 C48.5371765,74.9352941 46.071,72.4691176 46.071,68.2318824 C46.071,65.3045882 46.4587059,63.2995294 50.7739412,50.4295294 C52.623,44.9580588 55.6282941,34.7859412 56.5551176,30.0095882 C55.0891765,29.9315882 54.3963529,29.3167647 54.3963529,28.0825294 C54.3963529,25.9260588 56.0137059,23.6135882 57.7090588,23.4598824 C58.0164706,20.7642941 58.5555882,15.4465294 58.863,12.2875294 L58.863,12.2875294 L58.863,12.2875294 Z M57.7847647,63.3775294 C57.7067647,63.6092353 57.6310588,63.9166471 57.6310588,64.0703529 C57.6310588,64.6094706 58.0164706,64.8411765 58.5555882,64.8411765 C61.4828824,64.8411765 67.8788824,51.3563529 67.8788824,43.0332941 C67.8788824,39.4108824 66.9543529,36.7152941 65.5664118,35.5590588 C63.8710588,46.2702941 59.4021176,59.4477059 57.7847647,63.3775294 L57.7847647,63.3775294 L57.7847647,63.3775294 Z M57.7847647,63.3775294" id="Shape"></path>
                    </g>
                </g>
            </g>
        </g>
        <text id="ooomf Review" fill="#48B0E7" font-family="Proxima Nova" font-size="24" font-weight="526" x="32" y="234.000049">
            <tspan>ooomf Review</tspan>
        </text>
    </g>
</svg>