<?xml version="1.0" encoding="UTF-8" standalone="no"?>
<svg width="217px" height="326px" viewBox="0 0 217 326" version="1.1" xmlns="http://www.w3.org/2000/svg" xmlns:xlink="http://www.w3.org/1999/xlink" xmlns:sketch="http://www.bohemiancoding.com/sketch/ns">
    <title>Slice 2</title>
    <description>Created with Sketch (http://www.bohemiancoding.com/sketch)</description>
    <defs></defs>
    <g id="Page 1" stroke="none" stroke-width="1" fill="none" fill-rule="evenodd">
        <path d="M107,8.91448069 L107,61.5768967" id="Line" stroke="#FFFFFF" stroke-width="4" stroke-linecap="square" fill="#FFFFFF"></path>
        <path id="Line decoration-1" d="M104,50.1144817 C105.05,53.8944818 105.95,57.134482 107,60.9144821 C108.05,57.134482 108.95,53.894482 110,50.1144819" stroke="#FFFFFF" stroke-width="4" stroke-linecap="square" fill="#FFFFFF"></path>
        <path d="M109.5,259.908485 L109.5,313.576897" id="Line" stroke="#FFFFFF" stroke-width="4" stroke-linecap="square" fill="#FFFFFF"></path>
        <path id="Line decoration-1" d="M106.5,302.108485 C107.55,305.888485 108.45,309.128485 109.5,312.908485 C110.55,309.128485 111.45,305.888485 112.5,302.108486" stroke="#FFFFFF" stroke-width="4" stroke-linecap="square" fill="#FFFFFF"></path>
        <path d="M64.9998548,86 C60.581657,86 57,89.5839622 57,93.9998548 L57,183.000145 C57,187.418343 60.5839622,191 64.9998548,191 L154.000145,191 C158.418343,191 162,187.416038 162,183.000145 L162,93.9998548 C162,89.581657 158.416038,86 154.000145,86 L64.9998548,86 Z M64.9998548,86" id="Rectangle 4" fill="#48B0E7"></path>
        <g id="Slice 1" transform="translate(69.367188, 102.500000)" fill="#FFFFFF">
            <g id="Page 1">
                <g id="Layer_1">
                    <g id="Group">
                        <path d="M43.4809412,20.918 C47.0253529,20.918 48.7207059,23.6158824 48.7207059,26.6211765 C48.7207059,28.6262353 48.0255882,31.3218235 46.6399412,34.5588235 C45.2542941,37.9495294 42.171,44.6529412 42.171,46.58 C42.171,47.4288235 42.5564118,47.7362353 43.2515294,47.7362353 C44.6371765,47.7362353 49.5695294,43.7307059 54.8872941,36.1784706 C56.3509412,36.1784706 57.8925882,37.181 57.8925882,38.7203529 C57.8925882,43.5747059 44.4077647,57.5229412 37.3189412,57.5229412 C32.772,57.5229412 31.2303529,55.5178824 31.2303529,51.2806471 C31.2303529,46.1922941 35.775,37.0227059 35.775,35.3273529 C35.775,34.7102353 35.4675882,34.4028235 34.8527647,34.4028235 C34.1576471,34.4028235 31.4597647,36.0201765 28.4567647,40.1817059 C27.3762353,46.1142941 26.6054118,50.4295294 26.376,55.6692941 C25.6051765,56.4401176 24.9123529,56.8255294 23.2927059,56.8255294 C18.9774706,56.8255294 16.0501765,55.0544706 15.9744706,50.4295294 C15.9744706,47.5022353 17.2064118,42.9552941 18.5943529,39.2548824 C19.2114706,37.5595294 19.9042941,35.7884706 19.9042941,35.0176471 C19.9042941,34.3248235 19.5945882,34.0931176 18.9797647,34.0931176 C18.2846471,34.0931176 16.4378824,35.2493529 13.4325882,39.4108824 C12.3520588,45.3434706 11.6592353,49.6587059 11.4275294,54.8984706 C10.6567059,55.6692941 10.1175882,55.901 8.34423529,55.901 C4.029,55.901 0.87,51.8174706 0.792,47.1925294 C0.792,44.2675294 1.64082353,40.2574118 2.94847059,36.713 C2.33135294,35.2493529 2.17764706,33.476 2.17764706,31.9343529 C2.17764706,27.3874118 8.34423529,21.6842353 13.1228824,21.6842353 C15.3573529,21.6842353 16.4355882,22.6087647 16.4355882,24.9212353 C16.4355882,26.846 15.8964706,29.5438824 14.0451176,33.6274118 C19.6725882,23.9187059 23.5244118,21.6819412 26.9151176,21.6819412 C29.8424118,21.6819412 31.4597647,23.687 31.4597647,26.2288824 C31.4597647,28.2339412 31.3840588,30.005 29.5327059,33.7031176 C35.8507059,24.233 40.0902353,20.918 43.4809412,20.918 L43.4809412,20.918 L43.4809412,20.918 Z M43.4809412,20.918" id="Shape"></path>
                        <path d="M58.863,12.2875294 C59.9435294,1.57629412 61.1754706,0.188352941 65.1052941,0.188352941 C69.1888235,0.188352941 73.9674706,4.967 73.9674706,9.82135294 C73.9674706,12.2875294 72.2721176,15.9879412 68.1862941,23.0767647 C70.5767647,22.9987647 77.5898824,22.6913529 78.5901176,22.4596471 C79.5146471,23.1547647 80.0560588,24.5404118 80.0560588,25.6966471 C80.0560588,28.6239412 78.1267059,30.8584118 75.5848235,30.8584118 C73.8137647,30.8584118 72.2721176,30.7804118 70.7304706,30.6267059 C73.6600588,32.2463529 75.6628235,36.0981765 75.6628235,41.4916471 C75.6628235,55.3641765 63.9490588,74.9352941 53.7769412,74.9352941 C48.5371765,74.9352941 46.071,72.4691176 46.071,68.2318824 C46.071,65.3045882 46.4587059,63.2995294 50.7739412,50.4295294 C52.623,44.9580588 55.6282941,34.7859412 56.5551176,30.0095882 C55.0891765,29.9315882 54.3963529,29.3167647 54.3963529,28.0825294 C54.3963529,25.9260588 56.0137059,23.6135882 57.7090588,23.4598824 C58.0164706,20.7642941 58.5555882,15.4465294 58.863,12.2875294 L58.863,12.2875294 L58.863,12.2875294 Z M57.7847647,63.3775294 C57.7067647,63.6092353 57.6310588,63.9166471 57.6310588,64.0703529 C57.6310588,64.6094706 58.0164706,64.8411765 58.5555882,64.8411765 C61.4828824,64.8411765 67.8788824,51.3563529 67.8788824,43.0332941 C67.8788824,39.4108824 66.9543529,36.7152941 65.5664118,35.5590588 C63.8710588,46.2702941 59.4021176,59.4477059 57.7847647,63.3775294 L57.7847647,63.3775294 L57.7847647,63.3775294 Z M57.7847647,63.3775294" id="Shape"></path>
                    </g>
                </g>
            </g>
        </g>
        <path d="M89.062,234 L89.062,226.07 C89.062,224.9 88.542,224.068 87.19,224.068 C86.02,224.068 85.058,224.848 84.59,225.524 L84.59,234 L81.262,234 L81.262,226.07 C81.262,224.9 80.742,224.068 79.39,224.068 C78.246,224.068 77.284,224.848 76.79,225.524 L76.79,234 L73.488,234 L73.488,221.442 L76.79,221.442 L76.79,223.054 C77.336,222.326 78.974,221.13 80.898,221.13 C82.744,221.13 83.94,221.988 84.382,223.392 C85.11,222.274 86.774,221.13 88.698,221.13 C91.012,221.13 92.39,222.352 92.39,224.926 L92.39,234 Z M49.412,231.374 C51.492,231.374 52.636,229.684 52.636,227.708 C52.636,225.758 51.492,224.068 49.412,224.068 C47.358,224.068 46.214,225.758 46.214,227.708 C46.214,229.684 47.358,231.374 49.412,231.374 Z M96.42,234 L96.42,224.328 L94.34,224.328 L94.34,221.442 L96.42,221.442 L96.42,220.922 C96.42,218.088 98.11,216.398 100.632,216.398 C101.854,216.398 103.154,216.736 103.908,217.594 L102.66,219.596 C102.322,219.284 101.88,219.102 101.282,219.102 C100.346,219.102 99.722,219.7 99.722,220.922 L99.722,221.442 L102.27,221.442 L102.27,224.328 L99.722,224.328 L99.722,234 Z M34.462,234.312 C30.328,234.312 27.832,231.27 27.832,227.708 C27.832,224.146 30.328,221.13 34.462,221.13 C38.622,221.13 41.118,224.146 41.118,227.708 C41.118,231.27 38.622,234.312 34.462,234.312 Z M120.73,234 L117.324,227.838 L114.62,227.838 L114.62,234 L110.928,234 L110.928,216.658 L119.04,216.658 C122.654,216.658 124.89,219.024 124.89,222.248 C124.89,225.29 122.94,226.954 121.068,227.396 L124.994,234 Z M64.362,234.312 C60.228,234.312 57.732,231.27 57.732,227.708 C57.732,224.146 60.228,221.13 64.362,221.13 C68.522,221.13 71.018,224.146 71.018,227.708 C71.018,231.27 68.522,234.312 64.362,234.312 Z M118.52,224.588 C119.976,224.588 121.094,223.704 121.094,222.222 C121.094,220.792 119.976,219.908 118.52,219.908 L114.62,219.908 L114.62,224.588 Z M49.412,234.312 C45.278,234.312 42.782,231.27 42.782,227.708 C42.782,224.146 45.278,221.13 49.412,221.13 C53.572,221.13 56.068,224.146 56.068,227.708 C56.068,231.27 53.572,234.312 49.412,234.312 Z M132.69,234.312 C128.868,234.312 125.982,231.738 125.982,227.708 C125.982,224.068 128.686,221.13 132.482,221.13 C136.252,221.13 138.774,223.938 138.774,228.02 L138.774,228.8 L129.44,228.8 C129.674,230.334 130.922,231.608 133.054,231.608 C134.12,231.608 135.576,231.166 136.382,230.386 L137.864,232.57 C136.616,233.714 134.64,234.312 132.69,234.312 Z M64.362,231.374 C66.442,231.374 67.586,229.684 67.586,227.708 C67.586,225.758 66.442,224.068 64.362,224.068 C62.308,224.068 61.164,225.758 61.164,227.708 C61.164,229.684 62.308,231.374 64.362,231.374 Z M135.602,226.512 C135.498,225.316 134.666,223.834 132.482,223.834 C130.428,223.834 129.544,225.264 129.414,226.512 Z M34.462,231.374 C36.542,231.374 37.686,229.684 37.686,227.708 C37.686,225.758 36.542,224.068 34.462,224.068 C32.408,224.068 31.264,225.758 31.264,227.708 C31.264,229.684 32.408,231.374 34.462,231.374 Z M144.416,234 L139.372,221.442 L142.908,221.442 L146.184,230.178 L149.486,221.442 L153.022,221.442 L147.978,234 Z M156.142,220.09 C155.076,220.09 154.192,219.206 154.192,218.114 C154.192,217.022 155.076,216.164 156.142,216.164 C157.234,216.164 158.118,217.022 158.118,218.114 C158.118,219.206 157.234,220.09 156.142,220.09 Z M154.504,234 L154.504,221.442 L157.806,221.442 L157.806,234 Z M166.984,234.312 C163.162,234.312 160.276,231.738 160.276,227.708 C160.276,224.068 162.98,221.13 166.776,221.13 C170.546,221.13 173.068,223.938 173.068,228.02 L173.068,228.8 L163.734,228.8 C163.968,230.334 165.216,231.608 167.348,231.608 C168.414,231.608 169.87,231.166 170.676,230.386 L172.158,232.57 C170.91,233.714 168.934,234.312 166.984,234.312 Z M169.896,226.512 C169.792,225.316 168.96,223.834 166.776,223.834 C164.722,223.834 163.838,225.264 163.708,226.512 Z M186.484,234 L183.832,225.446 L181.18,234 L177.644,234 L173.822,221.442 L177.254,221.442 L179.594,229.892 L182.35,221.442 L185.288,221.442 L188.044,229.892 L190.384,221.442 L193.842,221.442 L190.02,234 Z M186.484,234" id="ooomf Review" fill="#48B0E7"></path>
    </g>
</svg>